<svg xmlns="http://www.w3.org/2000/svg" width="110.869" height="95.199" viewBox="0 0 110.869 95.199">
    <defs>
        <style>
            .cls-1{fill:#fbb92e}.cls-2{fill:#f69830}.cls-3{fill:#f7bc2e}.cls-4{fill:#f6c24e}.cls-5{fill:#eeb36c}.cls-6{fill:#fed53e}.cls-7{fill:#fdd43f}.cls-8{fill:#fdce3a}.cls-9{fill:#fecf3e}.cls-10{fill:#f37c2f}.cls-11{fill:#f47c2f}.cls-12{fill:#f06130}.cls-13{fill:#f16130}.cls-14{fill:#b2b726}.cls-15{fill:#ed853c}.cls-16{fill:#f5c049}.cls-17{fill:#faf9f2}.cls-18{fill:#f7be41}.cls-19{fill:#f7bc41}.cls-20{fill:#f5be3d}.cls-21{fill:#f5c04c}.cls-22{fill:#f4c251}.cls-23{fill:#f3c14a}.cls-24{fill:#faf9f3}.cls-25{fill:#f4f2ce}.cls-26{fill:#f6bf47}.cls-27{fill:#a7412a}.cls-28{fill:#c9cd2d}.cls-29{fill:#953921}.cls-30{fill:#6f291d}.cls-31{fill:#70281d}.cls-32{fill:#6f2a1d}.cls-33{fill:#a74932}.cls-34{fill:#a74831}.cls-35{fill:#a8503b}.cls-36{fill:#a74d39}.cls-37{fill:#a64730}.cls-38{fill:#fefefe}.cls-39{fill:#a54f3c}.cls-40{fill:#f5c455}.cls-41{fill:#de524e}.cls-42{fill:#e04c44}.cls-43{fill:#ec372f}.cls-44{fill:#de4741}.cls-45{fill:#eb3e33}.cls-46{fill:#efddd6}.cls-47{fill:#de5a55}.cls-48{fill:#d65c57}.cls-49{fill:#dd5b53}.cls-50{fill:#d55457}.cls-51{fill:#d8746e}.cls-52{fill:#e94640}.cls-53{fill:#eb4b45}.cls-54{fill:#e6493f}.cls-55{fill:#a9411b}.cls-56{fill:#db5546}.cls-57{fill:#d95758}.cls-58{fill:#ec514f}.cls-59{fill:#d44e4e}.cls-60{fill:#cdd54a}.cls-61{fill:#d36361}.cls-62{fill:#d17270}.cls-63{fill:#543229}.cls-64{fill:#b66a5d}.cls-65{fill:#de574b}.cls-66{fill:#cc6266}.cls-67{fill:#c26c6a}.cls-68{fill:#e94440}.cls-69{fill:#d25b58}.cls-70{fill:#f15c5c}.cls-71{fill:#f7f6df}.cls-72{fill:#f2f1b3}.cls-73{fill:#d46a6c}.cls-74{fill:#d95c5d}.cls-75{fill:#de4543}.cls-76{fill:#cc5754}.cls-77{fill:#e44f52}.cls-78{fill:#f57a32}.cls-79{fill:#ed642c}.cls-80{fill:#f67932}.cls-81{fill:#faaf59}.cls-82{fill:#ee672b}.cls-83{fill:#ea6b28}.cls-84{fill:#faa355}.cls-85{fill:#f9b155}.cls-86{fill:#f8ab51}.cls-87{fill:#fcb258}.cls-88{fill:#fcae55}.cls-89{fill:#febd5f}.cls-90{fill:#feb65d}.cls-91{fill:#ee8532}.cls-92{fill:#fab75a}.cls-93{fill:#fb7139}.cls-94{fill:#ef652c}.cls-95{fill:#ea6928}.cls-96{fill:#c47e1d}.cls-97{fill:#ec6329}.cls-98{fill:#f07e2b}.cls-99{fill:#d17420}.cls-100{fill:#e3682b}.cls-101{fill:#e36d30}.cls-102{fill:#ee7235}.cls-103{fill:#ba931f}.cls-104{fill:#ce7723}.cls-105{fill:#e68835}.cls-106{fill:#e38c38}.cls-107{fill:#d77026}.cls-108{fill:#ea6b2d}.cls-109{fill:#e96c26}.cls-110{fill:#b8981e}.cls-111{fill:#c6ab2f}.cls-112{fill:#b79c21}.cls-113{fill:#df9939}.cls-114{fill:#e78a36}.cls-115{fill:#e57e34}.cls-116{fill:#cda632}.cls-117{fill:#cda631}.cls-118{fill:#993a23}.cls-119{fill:#983921}.cls-120{fill:#983a22}.cls-121{fill:#9a3922}.cls-122{fill:#973920}.cls-123{fill:#9b3823}.cls-124{fill:#b7bd24}.cls-125{fill:#b3bb22}.cls-126{fill:#b2bb25}.cls-127{fill:#b7bc20}.cls-128{fill:#b8bd23}.cls-129{fill:#b9bf23}.cls-130{fill:#b6b920}.cls-131{fill:#a04029}.cls-132{fill:#a0402b}.cls-133{fill:#a14029}.cls-134{fill:#fcb92e}.cls-135{fill:#f7bc31}.cls-136{fill:#f6c652}.cls-137{fill:#f2ca64}.cls-138{fill:#f6efbe}.cls-139{fill:#fdb940}.cls-140{fill:#f0e4ad}.cls-141{fill:#efe1a0}.cls-142{fill:#efe3a5}.cls-143{fill:#f0cf6f}.cls-144{fill:#f6c55e}.cls-145{fill:#f5bd3a}.cls-146{fill:#f6eac6}.cls-147{fill:#f0ebc0}.cls-148{fill:#f5edc5}.cls-149{fill:#f2ca63}.cls-150{fill:#f0d37d}.cls-151{fill:#edc566}.cls-152{fill:#fcd53b}.cls-153{fill:#fcd33e}.cls-154{fill:#fdd33c}.cls-155{fill:#fcd23d}.cls-156{fill:#f9cb3f}.cls-157{fill:#f8cb3c}.cls-158{fill:#fdd63a}.cls-159{fill:#fdd63f}.cls-160{fill:#f9b545}.cls-161{fill:#fccc3b}.cls-162{fill:#fdd43c}.cls-163{fill:#fbca3b}.cls-164{fill:#fbd13d}.cls-165{fill:#f4b535}.cls-166{fill:#f8b44d}.cls-167{fill:#f6c43c}.cls-168{fill:#feca3e}.cls-169{fill:#fcd43a}.cls-170{fill:#f5b354}.cls-171{fill:#fed03d}.cls-172{fill:#f4bf29}.cls-173{fill:#fed23f}.cls-174{fill:#f4b656}.cls-175{fill:#fdcc4a}.cls-176{fill:#f9b540}.cls-177{fill:#f4b453}.cls-178{fill:#f7b742}.cls-179{fill:#f5b65e}.cls-180{fill:#fcd334}.cls-181{fill:#f8b254}.cls-182{fill:#f3af5b}.cls-183{fill:#f3ac61}.cls-184{fill:#f4b44c}.cls-185{fill:#fad459}.cls-186{fill:#f4c235}.cls-187{fill:#78433d}.cls-188{fill:#712a1f}.cls-189{fill:#a25243}.cls-190{fill:#aa5945}.cls-191{fill:#8a5a4e}.cls-192{fill:#cb5452}.cls-193{fill:#a75550}.cls-194{fill:#eb504e}.cls-195{fill:#ce665e}.cls-196{fill:#cc7c79}.cls-197{fill:#f23636}.cls-198{fill:#db5f60}.cls-199{fill:#c76c67}.cls-200{fill:#ef3e4c}.cls-201{fill:#712a1e}.cls-202{fill:#5f2e25}.cls-203{fill:#fdfcfd}.cls-204{fill:#d95b52}.cls-205{fill:#cf5f61}.cls-206{fill:#7f5249}.cls-207{fill:#a85949}.cls-208{fill:#a66252}.cls-209{fill:#ac4b32}.cls-210{fill:#712d21}.cls-211{fill:#e94b45}.cls-212{fill:#ab4b31}.cls-213{fill:#d16465}.cls-214{fill:#c75c5d}
        </style>
    </defs>
    <g id="LOGO_BURGER_QUEEN-04" data-name="LOGO BURGER QUEEN-04" transform="translate(2.002 -1.463)">
        <g id="Camada_1" data-name="Camada 1" transform="translate(-2.002 1.463)">
            <path id="Trazado_5006" d="M109.912 6.46c.028.557.553.921.921 1.29a1.828 1.828 0 0 0 2.732.18c.594-.484 1.23-.921 1.843-1.382.719-.521 1.5-1.207 2.511-.885.9.29 1.014 1.147 1.1 1.889a12.576 12.576 0 0 1 .023 7.016c-.1 1.147-.069 2.373-2.17 2.28a6.91 6.91 0 0 1-2.138.24 114.285 114.285 0 0 1-18.584-1c-3.492-.557-4.708-1.368-5.279-4.192-.424-2.087-.963-4.229.332-6.279.825.032 1.23.723 2 .838a3.128 3.128 0 0 1 2.128 1.433c1 1.1 1.912.507 2.575-.217.88-.949 1.543-2.032 2.34-3.031a15.245 15.245 0 0 1 1.7-1.889c2.087-1.875 3.584-1.709 5.247.534.286.7-.111.843-.838.617-.424-.129-.673-.5-1.138-.576-.244.461.295.769.258 1.175a10.342 10.342 0 0 0 3.188 3.4c.2-.719-.921-.825-.986-1.414.17-.7.811-.654 1.451-.6a1.013 1.013 0 0 1 .788.571z" class="cls-1" data-name="Trazado 5006" transform="translate(-48.746 -1.463)"/>
            <path id="Trazado_5007" d="M88.482 10.256a19.077 19.077 0 0 0 .359 7.035c.594 2.045 2.271 2.736 4.542 3.022a126.613 126.613 0 0 0 18.74 1.133c-.7.884-1.764.175-2.617.405a15.386 15.386 0 0 0-2.257.069 167.816 167.816 0 0 1-18.077 0c-.709-.17-1.437-.29-2.142-.461-1.115-.322-1.2-1.124-1.35-1.893a16.474 16.474 0 0 1 .8-9.3l-.069-.055.064.06a2.713 2.713 0 0 1 2.007-.015z" class="cls-2" data-name="Trazado 5007" transform="translate(-46.03 -6.102)"/>
            <path id="Trazado_5008" d="M121.52 4.3c.838-.106 1.2.461 1.7.806.576.4.654.046.756-.3.99.59 1.175 1.635 2.009 2.3.244.157.253.336.078.53-.548.078-1.308-.189-1.419.58.576.392.788 1.018 1.382 1.382-.571.461-1.06 1.23-1.6-.1a4.579 4.579 0 0 0-1.93-2.2A1.225 1.225 0 0 1 121.87 6c.958-.18 1.142.6 1.709.815-.488-.893-1.979-1.335-2.059-2.515z" class="cls-3" data-name="Trazado 5008" transform="translate(-65.537 -2.989)"/>
            <path id="Trazado_5009" d="M168.1 33c-.373.921-.682 2.419-2.032 2.087-2.147-.534.4-1.424.267-2.3a1.6 1.6 0 0 1 1.7-1.787c.672.664.355 1.332.065 2z" class="cls-4" data-name="Trazado 5009" transform="translate(-89.097 -17.389)"/>
            <path id="Trazado_5010" d="M137.17 35.046a8.068 8.068 0 0 0 2.842-.276l2.041.028c-1.529.921-3.271.424-4.934.484-.087-.093-.087-.171.051-.236z" class="cls-2" data-name="Trazado 5010" transform="translate(-73.918 -19.426)"/>
            <path id="Trazado_5011" d="M89 34.764a2.847 2.847 0 0 1 2.142.461A2.8 2.8 0 0 1 89 34.764z" class="cls-5" data-name="Trazado 5011" transform="translate(-47.999 -19.397)"/>
            <path id="Trazado_5012" d="M134.922 35.348a.382.382 0 0 1-.046.235l-1.986-.037c.631-.368 1.354-.146 2.032-.198z" class="cls-1" data-name="Trazado 5012" transform="translate(-71.669 -19.728)"/>
            <path id="Trazado_5013" d="M148.68 17.069v-2.884c0-.193.083-.415.35-.405.18 0 .525.2.511.267-.253 1.013.668 2.137-.861 3.022z" class="cls-6" data-name="Trazado 5013" transform="translate(-80.185 -8.106)"/>
            <path id="Trazado_5014" d="M121.15 4.32c.783.728 1.6 1.433 2.331 2.2.23.244.921.567.461.889s-.843-.161-1.179-.461a14.106 14.106 0 0 0-1.239-.921c.156-.627-1.314-1.002-.374-1.707z" class="cls-7" data-name="Trazado 5014" transform="translate(-65.167 -3.004)"/>
            <path id="Trazado_5015" d="M129.692 14.262c-1.276.064-1.133-.792-1.382-1.382 1.009.097 1.414.599 1.382 1.382z" class="cls-8" data-name="Trazado 5015" transform="translate(-69.199 -7.621)"/>
            <path id="Trazado_5016" d="M149.346 25.783c-.055.166-.046.41-.373.346-.258-.051-.29-.258-.263-.461s.051-.41.373-.35.272.276.263.465z" class="cls-9" data-name="Trazado 5016" transform="translate(-80.197 -14.323)"/>
            <path id="Trazado_5017" d="M60.961 43.182c5.252-2.437 11.135-3.225 17-4.036 1.428-.189 2.875-.3 4.317-.461a2.709 2.709 0 0 1 .866-.461.461.461 0 0 1 .461.152c5.427.1 10.867-.1 16.248.709 4.671.7 9.283 1.525 13.318 3.685.433.548.083.843-.511 1.069-1.175.41-2.174-.8-3.349-.235.157.322.553.336.857.461a.627.627 0 0 1 .341.327c.286.788 1.05-.065 1.47.267a7.906 7.906 0 0 1 3.1 1.35 3.93 3.93 0 0 0 2.2.751 3.492 3.492 0 0 1 2.446.461 11.324 11.324 0 0 1 3.5 4.505 8.74 8.74 0 0 1-5.556 2.589 2.916 2.916 0 0 1-1.239-.461c-2.465-1.382-4.224-1.3-6.827.281a14.461 14.461 0 0 1-2.257.963c-2.3 1.069-4.81.82-7.279.848-4.049-.037-8.108.217-12.139-.313a7.815 7.815 0 0 1-2.225-.369 3.225 3.225 0 0 1-.921-.88 4.1 4.1 0 0 0-3.971-.663 4.109 4.109 0 0 1-2.437-.691c-1.207-.825-2.912-.576-4.178-1.262a5.222 5.222 0 0 0-2.432-.35c-2.2-.138-3.907-1.253-5.9-1.93a10.105 10.105 0 0 0 3.478 1.935c.461.106.806.373.461.834a4.273 4.273 0 0 1-2.7.668c-5.067-.756-7.938-3.437-7.491-6.956a7.019 7.019 0 0 1 1.349-2.787z" class="cls-10" data-name="Trazado 5017" transform="translate(-32.122 -21.283)"/>
            <path id="Trazado_5018" d="M128.755 152.81l.064 1.88-1.921 5.528c-.359.488-.2 1.207-1.009 1.5-.272.378-.544.755-.82 1.129a1.424 1.424 0 0 1-.737.23c-3.907.617-7.7 1.626-11.706 1.884a169.64 169.64 0 0 1-25.236-.212c-3.879-.327-7.8-.29-11.6-1.207a18.755 18.755 0 0 1-10.342-6.136c-.461-.557-1.078-1.184-.663-1.87s1.437-.58 2.257-.6c1.912-.051 3.833.037 5.749-.074 5.588 0 11.181.051 16.764 0 12.25-.157 24.476-.525 36.569-2.3a3.386 3.386 0 0 1 2.631.248z" class="cls-11" data-name="Trazado 5018" transform="translate(-34.868 -82.876)"/>
            <path id="Trazado_5019" d="M58.219 157.54c-2.068 0-4.146.06-6.2 0-1.47-.037-1.562.318-.825 1.239 3.225 4.04 7.832 6.348 13.678 6.938a225.269 225.269 0 0 0 30.4 1.087 57.339 57.339 0 0 0 12.554-1.843c.82-.217 1.7-.751 2.492.078.138.921-.557 1.382-1.437 1.787-1.815 1.506-4.146 1.976-6.625 2.211A360.182 360.182 0 0 1 61.38 170.5a89.619 89.619 0 0 1-15.516-1.322 9.107 9.107 0 0 1-3.768-1.612c-1.843-.834-1.806-2.409-2.271-3.787L38 156.836a2.17 2.17 0 0 1 1.686-.438c5.279.424 10.573.078 15.852.235.977.028 2.239-.249 2.681.907z" class="cls-12" data-name="Trazado 5019" transform="translate(-20.493 -85.008)"/>
            <path id="Trazado_5020" d="M69.405 60.591a39.324 39.324 0 0 0 7.615.732c2.372.051 4.75 0 7.122 0q.249.309-.138.511c-1.069.078-2.142.041-3.621 0 .382 0 .359.041.369.134s.083-.083.18-.083c2.382.1 4.736-.322 7.118-.212a6.5 6.5 0 0 0 3.119-.461c3.483-.539 7.048-.654 10.49-1.382 2.119-.267 3.575-1.589 5.459-2.234a17.493 17.493 0 0 1 2.5 8.14c-.921.779-1.944.364-2.9.134s-1.893-.267-2.819-.461a2.91 2.91 0 0 1-.636-.235 4.659 4.659 0 0 0-2.552-.392 6.118 6.118 0 0 1-1.691-.207 3.731 3.731 0 0 1-.6-.263c-1.087-.461-2.253-.189-3.381-.244h-2.577a8.61 8.61 0 0 1-2.6-.226 4.3 4.3 0 0 0-2.414-.511h-32.37a14.606 14.606 0 0 1-3.787-.235c-1.207-.4.06.249-.175.24a.557.557 0 0 1-.387.461 10.941 10.941 0 0 1-3.437.267c-1.133.009-2.28 0-3.418 0-1.17.069-2.382-.226-3.5.281a3.224 3.224 0 0 1-.636.263 15.456 15.456 0 0 1-4.565.493c-.921-.157-1.875-.461-2.713.207-.921.111-1.631 1.078-2.709.382 0-2.078 1.354-3.87 1.9-5.832.673-2.276 2.331-4.013 4.266-5.722a40.958 40.958 0 0 1 4.542-3.506 6.1 6.1 0 0 1 2.8-1.147L44.883 49c.617 1.069-.714 1.732-.838 2.677-.461 3.372 2.239 6.03 6.91 6.689a57.354 57.354 0 0 1 7.477.921c.829.1 1.677.06 2.492.24.461.106.921.253 1.382.382a12.309 12.309 0 0 0 3.266.18c1.295.064 2.677-.263 3.833.502z" class="cls-13" data-name="Trazado 5020" transform="translate(-16.044 -27.101)"/>
            <path id="Trazado_5021" d="M40.979 80.2l3.658-.088c1.189-.567 2.5-.226 3.755-.322h32.933a3.665 3.665 0 0 1 2.018.327l2.741.088a2.57 2.57 0 0 0 .553.272c.894.111 1.787.037 2.686.06 1.092.083 2.244-.226 3.257.332l1.806.069a2.493 2.493 0 0 0 .5.272c.774.17 1.658-.092 2.345.41 2.115-.3 3.948.921 6.044.728l3.92 1.576c.373.728 1.456 1.244 1.041 2.216a1.05 1.05 0 0 1-.852-.166c-4.045-2.971-8.9-3.017-13.82-2.276a13.74 13.74 0 0 1-8.016-.783 7.481 7.481 0 0 0-6.348-.083 8.974 8.974 0 0 1-5.137.58 30.607 30.607 0 0 0-10.725-.12 17.967 17.967 0 0 1-7.274-.281 9.96 9.96 0 0 0-5.818.318 8.292 8.292 0 0 1-4.478.594 13.391 13.391 0 0 0-7.371.834 10.061 10.061 0 0 1-7.739-.193c-3.92-1.668-4.925-.921-8 1.46a21.16 21.16 0 0 1-1.958 1.554c-1.447.078-1.778-1.064-2.7-1.576.207-2.009 1.843-3.137 5.4-3.685 1-.055 1.7-.921 2.8-.677.682-.557 1.576-.129 2.331-.327l5.031-.424c1.041-.562 2.22-.244 3.331-.332s2.331.06 3.492-.06a2.528 2.528 0 0 0 .594-.297z" class="cls-14" data-name="Trazado 5021" transform="translate(-9.707 -43.7)"/>
            <path id="Trazado_5022" d="M173.76 49.067c.627-.023.921-.3.963-.8a14.585 14.585 0 0 1 6.551 4.464l-2.442.028a23.866 23.866 0 0 0-4.243-2.773c-.428-.186-.981-.386-.829-.919z" class="cls-15" data-name="Trazado 5022" transform="translate(-93.697 -26.707)"/>
            <path id="Trazado_5023" d="M197.191 179.34c1.382.134 1.539 1.129 2.11 1.8.488.576.8 1.212.378 1.88a.921.921 0 0 1-1.184.235 7.131 7.131 0 0 1-2.156-3.289c-.124-.322.429-.589.852-.626z" class="cls-16" data-name="Trazado 5023" transform="translate(-105.879 -97.396)"/>
            <path id="Trazado_5024" d="M38.538 172.54q1.133 1.893 2.271 3.787c-.774.309-.092 1.493-1.382 1.493-.378-.654-.461-1.552-1.764-1.46l-2.013-.064c0-.977 1.433-1.285 1.539-2.207a1.106 1.106 0 0 1 .392-.364 1.267 1.267 0 0 0 .957-1.185z" class="cls-17" data-name="Trazado 5024" transform="translate(-19.226 -93.728)"/>
            <path id="Trazado_5025" d="M45.6 44.067c0 .359-.028.714-.046 1.073-1.2.746-1.87.3-2.3-.668s-1.493-1.732-1.285-2.872c1.382-1 2.027-.207 2.658.677a.382.382 0 0 0 .083.309c.189.415.774.645.788 1.138a.539.539 0 0 0 .102.343z" class="cls-18" data-name="Trazado 5025" transform="translate(-22.619 -22.859)"/>
            <path id="Trazado_5026" d="M55.6 36.787c0 .359-.032.714-.046 1.073-1.2.746-1.87.3-2.3-.673s-1.488-1.732-1.281-2.87c1.382-1 2.032-.207 2.658.677a.387.387 0 0 0 .083.309c.193.41.779.645.792 1.133a.516.516 0 0 0 .1.35z" class="cls-18" data-name="Trazado 5026" transform="translate(-28.013 -18.932)"/>
            <path id="Trazado_5027" d="M38.437 180.119c.686.1.963-.99 1.764-.461.889.6-.161 1.267 0 1.9-.967.544-.811 2.174-2.7 1.843-.59-.461-.419-.954-.17-1.47z" class="cls-19" data-name="Trazado 5027" transform="translate(-20.009 -97.489)"/>
            <path id="Trazado_5028" d="M176.467 35.907c-.152-.852.861-1.354.981-2.128.392-.415.857-.3 1.336-.124 1.3 1.046-.571 1.746-.461 2.663-.567.484-.507 1.764-2.027 1.037a1.488 1.488 0 0 1 .171-1.448z" class="cls-20" data-name="Trazado 5028" transform="translate(-95.018 -18.739)"/>
            <path id="Trazado_5029" d="M204.583 177.138c-.166.461-.461 1.013-1.036.774-.981-.4-2.23-.742-2.506-1.7-.152-.53.746-.461 1.235-.461a2.154 2.154 0 0 1 2.307 1.387z" class="cls-21" data-name="Trazado 5029" transform="translate(-108.415 -95.456)"/>
            <path id="Trazado_5030" d="M181.493 41.808c.636.032 1.262-.557 1.916 0a.59.59 0 0 1-.055.99c-.765.636-1.539 1.382-2.856.852-.798-1.008.202-1.386.995-1.842z" class="cls-22" data-name="Trazado 5030" transform="translate(-97.187 -23.092)"/>
            <path id="Trazado_5031" d="M37.936 51.219c-.557-1.382.2-1.7 1.732-1.433 1.161.516 2.184 1.064.806 2.188l-.742.026c-.543-.32-1.405-.186-1.796-.781z" class="cls-23" data-name="Trazado 5031" transform="translate(-20.36 -27.477)"/>
            <path id="Trazado_5032" d="M191.83 176.944l1.437-1.787a1.114 1.114 0 0 0 .392-.1c.092 1.09.152 2.131-1.829 1.887z" class="cls-24" data-name="Trazado 5032" transform="translate(-103.457 -95.087)"/>
            <path id="Trazado_5033" d="M36.664 184.78c.06.493.115.981.17 1.47a1.06 1.06 0 0 1-1-1.087z" class="cls-25" data-name="Trazado 5033" transform="translate(-19.328 -100.33)"/>
            <path id="Trazado_5034" d="M197.58 170.852a2.382 2.382 0 0 1 1.009-1.5c-.055.62.387 1.463-1.009 1.5z" class="cls-24" data-name="Trazado 5034" transform="translate(-106.558 -92.008)"/>
            <path id="Trazado_5035" d="M188.809 48.08l-.889-.369.866-1.1c.005.489.014.98.023 1.469z" class="cls-26" data-name="Trazado 5035" transform="translate(-101.348 -25.812)"/>
            <path id="Trazado_5036" d="M58.413 142.126c8.9 0 17.8.074 26.719 0 13.272-.12 26.544-.424 39.794-1.166 3.156-.175 4.386 1.05 3.575 3.464-2.93 1.631-6.417 1.557-9.707 1.926-6.74.76-13.544.981-20.344 1.308-7.044.341-14.074.29-21.108.263a109.429 109.429 0 0 1-12.342-.76 10.655 10.655 0 0 1-5.818-2.4c-.865-.728-1.658-1.552-.769-2.635z" class="cls-27" data-name="Trazado 5036" transform="translate(-31.292 -76.688)"/>
            <path id="Trazado_5037" d="M23.84 89.692c.889-1.972 2.884-3.123 4.943-4.146a4.473 4.473 0 0 1 3.953.152 10.854 10.854 0 0 0 9.748.332 9.568 9.568 0 0 1 5.989-.511 6.717 6.717 0 0 0 4.026-.364 11.254 11.254 0 0 1 7.707-.346 16.363 16.363 0 0 0 7.214 0 30.241 30.241 0 0 1 9.988.23 7.919 7.919 0 0 0 4.8-.608 7.012 7.012 0 0 1 6.1-.069c2.9 1.354 5.8 1.235 9.048.875 5.04-.562 10.282-.779 14.014 3.031-.226 2.055-.613 2.3-3.713 2.151a12.163 12.163 0 0 0-3.3-.364 11.176 11.176 0 0 1-1.308-.276l-1.248-.092c-.852-.433-1.87-.221-2.764-.461a8.909 8.909 0 0 0-1.529-.889 5.556 5.556 0 0 0-2.3-.028c-2.3.433-4.607.921-6.887 0a.921.921 0 0 0-.4-.092 5.689 5.689 0 0 1-1.474-.659c-2.161-.055-4.086.99-6.293.8-1.728-.147-3.515.2-5.123-.686-.682-.378-1.437-.028-2.179.189a13.581 13.581 0 0 1-9.126-.037 3.538 3.538 0 0 0-2.607.032c-2.483.779-5.067 1.161-7.518.051-.8-.359-1.032 0-1.52.276a12.931 12.931 0 0 1-4.307 1.626 1.774 1.774 0 0 1-1.843 0c-2.041-1.046-4.049-.871-6.353-.355a10.392 10.392 0 0 1-6.91-.373c-1.2-.571-2.359-.157-3.506.2a9.326 9.326 0 0 1-5.322.411z" class="cls-28" data-name="Trazado 5037" transform="translate(-12.857 -45.813)"/>
            <path id="Trazado_5038" d="M41.572 143.064c.4 2.179 2.967 4.146 6.2 4.469a231.839 231.839 0 0 0 30.041.709c5.325-.138 10.683-.309 16-.728a177.143 177.143 0 0 0 17.828-2.156c-.249 1.566-2.1 1.566-3.3 2.2-6.754.981-13.549 1.7-20.394 2.082-4.492.249-9 .424-13.5.461-7.422.083-14.843.037-22.269.041a2.326 2.326 0 0 0-1.5-.309c-6.242-.1-12.5.216-18.722-.4-2.059-.461-4.183-.774-4.906-2.806-.861-2.414.539-4.036 3.6-3.948 3.639.15 7.297-.057 10.922.385z" class="cls-29" data-name="Trazado 5038" transform="translate(-14.451 -77.626)"/>
            <path id="Trazado_5039" d="M126.873 110.129c.5.023 1 .032 1.5.069 1.2.092 1.907.5 1.451 1.58a6.422 6.422 0 0 0-.147 3.013c.1 1.843-.921 2.764-3.225 2.994-4.644.433-6.878-.8-7.3-4.528-.346-3.1-.723-6.279.8-9.3 1.037-2.055 3.225-3.022 5.846-2.677.461.064 1.106.028 1.092.6s-.585.7-1.073.636c-2.382-.281-3.036 1-3.5 2.451a16.027 16.027 0 0 0-.332 9.016 3.377 3.377 0 0 0 1.05 1.76 3.114 3.114 0 0 0 2.7.769 1.834 1.834 0 0 0 1.442-1.635 19.491 19.491 0 0 0 .258-2.267c.12-.884-.244-1.318-1.451-1.23-.627.041-1.649.2-1.649-.571 0-.857 1.05-.636 1.76-.682.276-.012.525.002.778.002z" class="cls-30" data-name="Trazado 5039" transform="translate(-64.095 -55.259)"/>
            <path id="Trazado_5040" d="M78.2 115.612a4.5 4.5 0 0 1-4.533 1.622 3.72 3.72 0 0 1-3.275-2.981 11.517 11.517 0 0 1-.382-3.017c-.074-3.146-.078-6.293-.111-9.435 0-.553-.138-1.253.852-1.258a1.133 1.133 0 0 1 1.193 1.17c.041 1.843.092 3.653 0 5.473-.115 2.4.507 4.745.64 7.127.046.921.848 1.271 1.843 1.456a1.774 1.774 0 0 0 2.073-.949 12.808 12.808 0 0 0 1.345-5.482c.2-2.63.258-5.27.378-7.905.028-.627-.249-1.382 1.1-1.382 1.161 0 1.382.608 1.262 1.327-.631 4.321-.074 8.753-1.594 12.977-.244.437-.291.945-.791 1.257z" class="cls-31" data-name="Trazado 5040" transform="translate(-37.695 -54.633)"/>
            <path id="Trazado_5041" d="M154.06 108.18c.958.484.438.825-.235.967a8.117 8.117 0 0 1-1.866.041c-.622 0-.88.143-.885.7a110.398 110.398 0 0 1-.207 5.924c-.06.921.29 1.3 1.479 1.179a17.574 17.574 0 0 1 2.257 0c.461 0 .921.111.921.567s-.461.64-.884.65c-1.626.032-3.266.078-4.883-.032-.954-.064-.921-.8-.981-1.428a54.709 54.709 0 0 1 0-8.513 20.362 20.362 0 0 0 0-4.556c-.258-1.755.461-2.3 2.677-2.156a28.606 28.606 0 0 1 3.123.5c.419.078.921.217.838.677s-.613.562-1.119.65c-1.018.18-2.28-1.023-2.976.069-.461.742-.212 1.787-.272 2.7-.037.557-.055 1.115-.083 1.672.926.592 2.101.009 3.096.389z" class="cls-32" data-name="Trazado 5041" transform="translate(-80.148 -55.415)"/>
            <path id="Trazado_5042" d="M196.341 118.45a8.8 8.8 0 0 1-2.409.032c-.415-.111-.921-.194-.921-.622s.493-.622.921-.65a80.559 80.559 0 0 1 4.833-.23c.53 0 1.216.152 1.207.728s-.64.7-1.212.732c-.807.037-1.608.01-2.419.01z" class="cls-33" data-name="Trazado 5042" transform="translate(-104.093 -63.764)"/>
            <path id="Trazado_5043" d="M27.786 119.683a9.211 9.211 0 0 1 2.492 0c.364.1.756.175.792.544s-.276.6-.645.65a31.1 31.1 0 0 1-5.4.221c-.438-.023-.866-.212-.838-.668s.424-.58.866-.686a9.255 9.255 0 0 1 2.733-.061z" class="cls-34" data-name="Trazado 5043" transform="translate(-13.044 -65.167)"/>
            <path id="Trazado_5044" d="M195.246 126.546a8.836 8.836 0 0 1 3.474 2.032c.29.29.069.567-.226.783a.889.889 0 0 1-1.018.055c-.967-.622-1.916-1.262-2.865-1.9a.548.548 0 0 1-.221-.682c.11-.306.419-.32.856-.288z" class="cls-35" data-name="Trazado 5044" transform="translate(-104.814 -68.916)"/>
            <path id="Trazado_5045" d="M29.406 106.99c.954.668 2.087 1.447 3.183 2.257.1.078.051.4-.06.539a.756.756 0 0 1-.843.138 10.061 10.061 0 0 1-3.225-1.792.548.548 0 0 1-.115-.829c.184-.221.442-.359 1.06-.313z" class="cls-36" data-name="Trazado 5045" transform="translate(-15.211 -58.371)"/>
            <path id="Trazado_5046" d="M196.983 105.846c.028.659-2.087 2.557-2.806 2.6s-1-.318-.64-.737a14.778 14.778 0 0 1 2.3-2.2c.446-.336 1.054-.225 1.146.337z" class="cls-37" data-name="Trazado 5046" transform="translate(-104.294 -57.476)"/>
            <path id="Trazado_5047" d="M22.943 151.9c.779 1 .608 2.216 1.907 2.865.461.226.129.521-.258.668-.663.258-1.815-.23-1.944.838-.217-.06-.507-.074-.627-.193a1.17 1.17 0 0 1-.17-1.557 3.089 3.089 0 0 0 1.092-2.621z" class="cls-38" data-name="Trazado 5047" transform="translate(-11.665 -82.597)"/>
            <path id="Trazado_5048" d="M33.735 129.795c-.249.654-.921 1.055-1.41 1.571a.954.954 0 0 1-1.175.189c-.548-.295-.387-.714-.051-1.05.539-.544.954-1.212 1.93-1.354.383.105.503.391.706.644z" class="cls-39" data-name="Trazado 5048" transform="translate(-16.606 -70.327)"/>
            <path id="Trazado_5049" d="M35.745 175.686c.359 1.295-1.428 1.354-1.907 2.165-2.091-.719-2.087-.852.083-2.234a1.913 1.913 0 0 1 1.824.069z" class="cls-40" data-name="Trazado 5049" transform="translate(-17.409 -95.281)"/>
            <path id="Trazado_5050" d="M207.357 137.407c.521-.06.958.134.921.428-.147 1.041-1.253 1.46-2.216 1.9a.461.461 0 0 1-.686-.5 3.279 3.279 0 0 1 1.981-1.828z" class="cls-41" data-name="Trazado 5050" transform="translate(-110.757 -74.775)"/>
            <path id="Trazado_5051" d="M183.7 118.081c.088-.074.157-.18.258-.207.774-.226 1.571-1.382 2.239-.539.461.594-.954 1.023-1.746 1.336-.659.138-.613-.271-.751-.59z" class="cls-42" data-name="Trazado 5051" transform="translate(-99.072 -63.791)"/>
            <path id="Trazado_5052" d="M178.757 87.143a4.734 4.734 0 0 0-.627.2c-.553.253-1.115.921-1.746.263-.732-.737.516-.76.815-1.133a3.533 3.533 0 0 1 .645-.488c.516-.17 1.106-.267 1.442.129s-.036.786-.529 1.029z" class="cls-43" data-name="Trazado 5052" transform="translate(-95.004 -46.968)"/>
            <path id="Trazado_5053" d="M83.519 138.454l.636-.737c.493-.253 1.11-.318 1.41.051.461.557-.064 1-.594 1.382l.106.046-.1-.055c-.5.64-.88 1.5-2.124.751l.037.037c-.504-.706.191-1.051.629-1.475z" class="cls-44" data-name="Trazado 5053" transform="translate(-44.609 -74.835)"/>
            <path id="Trazado_5054" d="M81.371 119.073c-.041.037-.074.092-.124.111-.659.276-1.207 1.382-1.912.719-.507-.461.659-1 1.285-1.382.672-.19 1.11-.176.751.552z" class="cls-45" data-name="Trazado 5054" transform="translate(-42.719 -64.539)"/>
            <path id="Trazado_5055" d="M163.86 93.62c2.3.571 4.607.055 6.887 0a7.723 7.723 0 0 1-6.887 0z" class="cls-46" data-name="Trazado 5055" transform="translate(-88.372 -51.165)"/>
            <path id="Trazado_5056" d="M42.26 122.168a1.99 1.99 0 0 1 .341-.341c.461-.29 1.009-.986 1.5-.461s-.295.921-.921 1.156c-.395.038-.897.278-.92-.354z" class="cls-47" data-name="Trazado 5056" transform="translate(-22.791 -66.027)"/>
            <path id="Trazado_5057" d="M105.484 88.534c-.129.7-.921.7-1.511.889-.346.115-.843.032-.788-.378.092-.654.875-.76 1.483-.949a.622.622 0 0 1 .815.438z" class="cls-48" data-name="Trazado 5057" transform="translate(-55.647 -48.166)"/>
            <path id="Trazado_5058" d="M176.379 141.256c.567-.032 1.013.143.834.461a2.055 2.055 0 0 1-1.5 1.046c-.235.041-.659-.1-.562-.433a1.382 1.382 0 0 1 1.228-1.074z" class="cls-49" data-name="Trazado 5058" transform="translate(-94.455 -76.854)"/>
            <path id="Trazado_5059" d="M26.661 100.121c.64-.106.852.147.82.461-.069.65-.815.806-1.382 1.027-.419.157-.751-.078-.673-.461.12-.584.793-.792 1.235-1.027z" class="cls-50" data-name="Trazado 5059" transform="translate(-13.706 -54.658)"/>
            <path id="Trazado_5060" d="M160.47 108.806c.313-.037.6 0 .608.24 0 .557-.562.751-1.046.949-.309.124-.682 0-.654-.313.046-.531.631-.697 1.092-.876z" class="cls-51" data-name="Trazado 5060" transform="translate(-85.954 -59.349)"/>
            <path id="Trazado_5061" d="M148.175 94.4c-.921.53-1.778 1.11-3.045.714a1.622 1.622 0 0 1 1.658-1.023c.53-.091 1.18-.543 1.387.309z" class="cls-52" data-name="Trazado 5061" transform="translate(-78.271 -51.31)"/>
            <path id="Trazado_5062" d="M134.886 113.111a2.594 2.594 0 0 1-1.843.617c-.124-.709.567-.921 1.106-1.175a.668.668 0 0 1 .8.055c.194.176.13.351-.063.503z" class="cls-53" data-name="Trazado 5062" transform="translate(-71.744 -61.318)"/>
            <path id="Trazado_5063" d="M55.5 141.316c-.792.645-1.184 1.686-2.861 1.239.978-.521 1.245-1.705 2.861-1.239z" class="cls-54" data-name="Trazado 5063" transform="translate(-28.389 -76.831)"/>
            <path id="Trazado_5064" d="M36.355 129.11a.612.612 0 0 1-.7-.645c.332-.253.5-.921 1.175-.378s-.401.654-.475 1.023z" class="cls-55" data-name="Trazado 5064" transform="translate(-19.226 -69.642)"/>
            <path id="Trazado_5065" d="M159.291 126.756c-.369.276-.571.977-1.207.627-.461-.244 0-.7.364-.967.442-.148.875-.254.843.34z" class="cls-56" data-name="Trazado 5065" transform="translate(-85.153 -68.79)"/>
            <path id="Trazado_5066" d="M182.822 119.31l.751.59c-.332.461-.843.751-1.327.295s.154-.682.576-.885z" class="cls-57" data-name="Trazado 5066" transform="translate(-98.195 -65.02)"/>
            <path id="Trazado_5067" d="M148.9 139.439c.571-.115 1.235-.921 1.686-.147.355.608-.295.977-1.156.852-.467-.111-.606-.364-.53-.705z" class="cls-58" data-name="Trazado 5067" transform="translate(-80.293 -75.618)"/>
            <path id="Trazado_5068" d="M159.943 125.862a1.023 1.023 0 0 0-.843-.341 1.636 1.636 0 0 1 1.995-.783z" class="cls-59" data-name="Trazado 5068" transform="translate(-85.805 -67.896)"/>
            <path id="Trazado_5069" d="M198.73 87.1a4.4 4.4 0 0 1 3.266.659l-1.8.023c-.36-.408-1.461.228-1.466-.682z" class="cls-60" data-name="Trazado 5069" transform="translate(-107.178 -47.629)"/>
            <path id="Trazado_5070" d="M27.542 171.08c-.161.737-.622 1.046-1.382 1.258.111-.631.24-1.138 1.382-1.258z" class="cls-38" data-name="Trazado 5070" transform="translate(-14.108 -92.941)"/>
            <path id="Trazado_5071" d="M55.563 96.12c-.332.608-.677 1.05-1.483 1.018a.336.336 0 0 1-.18-.29c.143-.648.622-.899 1.663-.728z" class="cls-61" data-name="Trazado 5071" transform="translate(-29.069 -52.485)"/>
            <path id="Trazado_5072" d="M71.85 98.288c.392-.461.852-1.078 1.562-.53.461.364-.175.732-.613.977-.378-.06-.765-.12-.949-.447z" class="cls-62" data-name="Trazado 5072" transform="translate(-38.749 -53.281)"/>
            <path id="Trazado_5073" d="M156.789 115.542c-1.041-.129-2.211.461-3.119-.392 1.009.281 2.165-.193 3.119.392z" class="cls-63" data-name="Trazado 5073" transform="translate(-82.877 -62.777)"/>
            <path id="Trazado_5074" d="M202.1 100.98c-.35 0-.613-.138-.627-.405a.63.63 0 0 1 .673-.594c.286 0 .654 0 .622.355a.714.714 0 0 1-.668.644z" class="cls-64" data-name="Trazado 5074" transform="translate(-108.655 -54.595)"/>
            <path id="Trazado_5075" d="M121.6 139.379a1.263 1.263 0 0 1 1.755-.6c.433.253-.138.571-.58.686a1.041 1.041 0 0 1-1.175-.086z" class="cls-65" data-name="Trazado 5075" transform="translate(-65.581 -75.429)"/>
            <path id="Trazado_5076" d="M22.362 142.215a.792.792 0 0 1-.7.811c-.272.06-.7 0-.553-.35a1.382 1.382 0 0 1 .686-.663c.281-.12.567.05.567.202z" class="cls-66" data-name="Trazado 5076" transform="translate(-11.369 -77.243)"/>
            <path id="Trazado_5077" d="M147.437 141.587c-.428.438-.894.493-1.212-.041s0-.921.7-1.106c.461.295.411.742.512 1.147z" class="cls-67" data-name="Trazado 5077" transform="translate(-78.795 -76.416)"/>
            <path id="Trazado_5078" d="M148.389 141.281c-.631-.249-.511-.714-.516-1.147.083-.184.189-.336.461-.221l.53.7c.077.337-.052.576-.475.668z" class="cls-68" data-name="Trazado 5078" transform="translate(-79.747 -76.11)"/>
            <path id="Trazado_5079" d="M41.521 123.33a1.2 1.2 0 0 0 .921.332c-.369.405-.82.921-1.442.461-.345-.236.2-.572.521-.793z" class="cls-69" data-name="Trazado 5079" transform="translate(-22.052 -67.188)"/>
            <path id="Trazado_5080" d="M71.3 99.16a.931.931 0 0 1 .949.461c-.35.359-.811.6-1.281.24-.344-.277-.004-.535.332-.701z" class="cls-70" data-name="Trazado 5080" transform="translate(-38.195 -54.153)"/>
            <path id="Trazado_5081" d="M37.643 175.211l-1.843-.069c.557-.332 1.027-.967 1.843-.336a2.382 2.382 0 0 1 0 .405z" class="cls-71" data-name="Trazado 5081" transform="translate(-19.307 -94.805)"/>
            <path id="Trazado_5082" d="M159.79 91.989a1.6 1.6 0 0 1 1.474.659c-.7.078-1.34.083-1.474-.659z" class="cls-72" data-name="Trazado 5082" transform="translate(-86.177 -50.281)"/>
            <path id="Trazado_5083" d="M136.2 112.957c.023-.415-.336-.507-.732-.557.364-.226.769-.4 1.087 0 .219.276-.039.451-.355.557z" class="cls-73" data-name="Trazado 5083" transform="translate(-73.061 -61.164)"/>
            <path id="Trazado_5084" d="M83.021 118.8c0-.4-.341-.511-.751-.548.309-.226.663-.544 1.041-.17.244.236.083.545-.29.718z" class="cls-74" data-name="Trazado 5084" transform="translate(-44.369 -64.264)"/>
            <path id="Trazado_5085" d="M113.063 119.929c.3.064.4.263.281.461a.765.765 0 0 1-.511.35c-.286 0-.29-.263-.258-.461a.425.425 0 0 1 .488-.35z" class="cls-75" data-name="Trazado 5085" transform="translate(-60.705 -65.354)"/>
            <path id="Trazado_5086" d="M121.064 140.28l1.175.088c-.359.392-.751.894-1.428.59-.434-.194-.097-.508.253-.678z" class="cls-76" data-name="Trazado 5086" transform="translate(-65.044 -76.33)"/>
            <path id="Trazado_5087" d="M150.122 90.106c-.369-.382-.921-.253-1.382-.313a1.477 1.477 0 0 1 1.612-.313c.433.211.194.469-.23.626z" class="cls-77" data-name="Trazado 5087" transform="translate(-80.218 -48.858)"/>
            <path id="Trazado_5088" d="M185.226 94.313l-.567.1h-.921l-.028-.668a1.7 1.7 0 0 1 1.516.568z" class="cls-46" data-name="Trazado 5088" transform="translate(-99.078 -51.222)"/>
            <path id="Trazado_5089" d="M165.34 70.682c-2.082 1.124-4.469 1.308-6.869 1.5-1.092.088-2.3-.341-3.271.364a31.026 31.026 0 0 1-7.371 0v-.376c2.5.028 5.012.124 7.371-.742a19.5 19.5 0 0 0 4.929-1.009c-1.073-.06-2 .673-3.082.258a5.733 5.733 0 0 1 6.85-.792c.439.309.734.806 1.443.797z" class="cls-78" data-name="Trazado 5089" transform="translate(-79.727 -37.939)"/>
            <path id="Trazado_5090" d="M75.6 64.671a10.049 10.049 0 0 1-5.33-3.271c2.764.18 4.57 2.068 7.173 2.156.843.461 1.912-.1 2.764.373a7.946 7.946 0 0 0 3.123.737c.608.051.967.244 1.023.751a11.767 11.767 0 0 1-8.753-.746z" class="cls-79" data-name="Trazado 5090" transform="translate(-37.897 -33.788)"/>
            <path id="Trazado_5091" d="M78.614 68.5a38.046 38.046 0 0 0 8.753.746l2.3.742c1.456-.4 2.764.336 4.146.373a.732.732 0 0 1 .461.746h-4.143c-1-.5-2.207.111-3.225-.369a1.06 1.06 0 0 1-.921-.373c-.921-.779-1.843-.235-2.764 0-2.359-.829-5.067-.461-7.371-1.479a10.593 10.593 0 0 0 2.764-.386z" class="cls-80" data-name="Trazado 5091" transform="translate(-40.907 -37.617)"/>
            <path id="Trazado_5092" d="M169.34 49.057c1.686 1.235 4.358 1.589 5.067 3.685-1.428.069-2.3-.76-3.3-1.382a5.067 5.067 0 0 0-2.184-.871c-.461-.281-1.064-.332-1.414-.728-.433-.281-1.161-.2-1.382-.732-.428-.24-1.064-.548-.032-.742 1.2-.22 2.105.651 3.245.77z" class="cls-81" data-name="Trazado 5092" transform="translate(-89.278 -26.698)"/>
            <path id="Trazado_5093" d="M165.667 71.451a15.934 15.934 0 0 1 4.4-.921c-1.1 1.451-4.243 2.267-6.251 1.7a2.842 2.842 0 0 1 1.851-.779z" class="cls-82" data-name="Trazado 5093" transform="translate(-88.351 -38.712)"/>
            <path id="Trazado_5094" d="M109.986 71.387c-1.474.539-2.764-.1-4.146-.373 1.566-1.257 2.838-.29 4.146.373z" class="cls-83" data-name="Trazado 5094" transform="translate(-57.081 -38.644)"/>
            <path id="Trazado_5095" d="M189.676 63.618c-.668-.327-1.382-.7-1.5-1.419-.028-.134.461-.488.53-.461a2.133 2.133 0 0 1 1.562 1.419c.053.249-.168.452-.592.461z" class="cls-84" data-name="Trazado 5095" transform="translate(-101.487 -33.97)"/>
            <path id="Trazado_5096" d="M144.832 53.007c-.092.53-.613.461-1.05.461-.544 0-1.216 0-1.253-.553-.032-.415.548-.53 1.032-.534.566.004 1.059.133 1.271.626z" class="cls-85" data-name="Trazado 5096" transform="translate(-76.867 -28.924)"/>
            <path id="Trazado_5097" d="M119.645 52.132c-.861 1.147-1.566 1.092-2.34.645-.346-.2-.548-.571-.2-.769.775-.429 1.356.285 2.54.124z" class="cls-86" data-name="Trazado 5097" transform="translate(-63.059 -28.648)"/>
            <path id="Trazado_5098" d="M88.045 47.048c-.415 0-.871-.051-.811-.461s.534-.59 1.018-.59c.364 0 .871-.051.889.364.028.558-.557.632-1.096.687z" class="cls-87" data-name="Trazado 5098" transform="translate(-47.043 -25.481)"/>
            <path id="Trazado_5099" d="M128.676 42.75c.382 0 .769.1.866.424s-.226.525-.622.539a.7.7 0 0 1-.774-.516c-.074-.258.207-.41.53-.447z" class="cls-88" data-name="Trazado 5099" transform="translate(-69.105 -23.73)"/>
            <path id="Trazado_5100" d="M149.742 46.175c-.9.207-1.354.069-1.566-.419-.088-.212.12-.373.373-.359a1.184 1.184 0 0 1 1.193.779z" class="cls-89" data-name="Trazado 5100" transform="translate(-79.903 -25.156)"/>
            <path id="Trazado_5101" d="M106.972 42.689c.295 0 .65.037.659.322 0 .461-.461.4-.792.382-.272 0-.636-.069-.553-.4s.387-.304.686-.304z" class="cls-90" data-name="Trazado 5101" transform="translate(-57.315 -23.697)"/>
            <path id="Trazado_5102" d="M169.284 51.537a1.566 1.566 0 0 1 1.414.728c-.631-.055-1.308.193-1.88-.18-.018-.009.305-.336.466-.548z" class="cls-91" data-name="Trazado 5102" transform="translate(-91.046 -28.468)"/>
            <path id="Trazado_5103" d="M99.958 52.287c-.415-.074-.806-.1-.65-.424.074-.152.461-.263.7-.286s.7-.041.516.336c-.087.181-.414.287-.566.374z" class="cls-92" data-name="Trazado 5103" transform="translate(-53.539 -28.485)"/>
            <path id="Trazado_5104" d="M88.594 66.426c-.921-.12-1.953.3-2.764-.373.926.12 1.963-.304 2.764.373z" class="cls-93" data-name="Trazado 5104" transform="translate(-46.289 -36.286)"/>
            <path id="Trazado_5105" d="M166.709 50l1.382.732c-.447-.271-1.824.613-1.382-.732z" class="cls-91" data-name="Trazado 5105" transform="translate(-89.862 -27.64)"/>
            <path id="Trazado_5106" d="M96.68 169.93c4.538 1.29 9.338 1.456 14.06 1.981-5.16 1.589-9.647-.032-14.06-1.981z" class="cls-94" data-name="Trazado 5106" transform="translate(-52.141 -92.321)"/>
            <path id="Trazado_5107" d="M134.28 175.527a5.385 5.385 0 0 1 4.685.286 14.818 14.818 0 0 1-4.685-.286z" class="cls-95" data-name="Trazado 5107" transform="translate(-72.419 -95.121)"/>
            <path id="Trazado_5108" d="M95.84 79h23.96c.166.235.1.405-.212.511-.415.032-.834 0-1.253 0-7.371 0-14.7.028-22.057 0-.346-.05-.484-.235-.438-.511z" class="cls-96" data-name="Trazado 5108" transform="translate(-51.683 -43.28)"/>
            <path id="Trazado_5109" d="M143.072 76.58h7.371c-1.7.774-3.543.272-5.316.35a27.324 27.324 0 0 1-6.127-.35z" class="cls-97" data-name="Trazado 5109" transform="translate(-74.965 -41.975)"/>
            <path id="Trazado_5110" d="M91.85 71.586a3.11 3.11 0 0 1 3.027-.65c.949.276.29.553-.272.659z" class="cls-98" data-name="Trazado 5110" transform="translate(-49.536 -38.852)"/>
            <path id="Trazado_5111" d="M89.253 78.968v.35l-.281.166c-1.506.051-3.013 0-4.519 0a2.6 2.6 0 0 1-.682-.069c-.129-.1-.175-.2-.143-.313s.069-.161.111-.161z" class="cls-99" data-name="Trazado 5111" transform="translate(-45.096 -43.248)"/>
            <path id="Trazado_5112" d="M79.038 79v.355a7.73 7.73 0 0 1-3.685 0 .613.613 0 0 1-.217-.032 1.382 1.382 0 0 1-.217-.221z" class="cls-100" data-name="Trazado 5112" transform="translate(-40.405 -43.28)"/>
            <path id="Trazado_5113" d="M38.151 82.591c-.673.59-1.539.29-2.331.327.544-1.281 1.465-.548 2.331-.327z" class="cls-101" data-name="Trazado 5113" transform="translate(-19.318 -44.996)"/>
            <path id="Trazado_5114" d="M75.813 79.81H79.5c.147.083.193.161.138.23a.23.23 0 0 1-.161.106H75.79a3.255 3.255 0 0 0 .023-.336z" class="cls-102" data-name="Trazado 5114" transform="translate(-40.874 -43.717)"/>
            <path id="Trazado_5115" d="M51.87 80.945c1.138-.746 2.46-.23 3.685-.359.06.23-.037.4-.3.5a10.984 10.984 0 0 1-3.385-.141z" class="cls-99" data-name="Trazado 5115" transform="translate(-27.974 -44.106)"/>
            <path id="Trazado_5116" d="M59.81 81a3 3 0 0 1 .032-.35h3.685a1.4 1.4 0 0 1-.028.336 11.789 11.789 0 0 1-3.368.157z" class="cls-103" data-name="Trazado 5116" transform="translate(-32.256 -44.17)"/>
            <path id="Trazado_5117" d="M171.777 80.588c1.225.124 2.548-.378 3.685.359a11.009 11.009 0 0 1-3.391.138c-.261-.101-.358-.267-.294-.497z" class="cls-104" data-name="Trazado 5117" transform="translate(-92.632 -44.108)"/>
            <path id="Trazado_5118" d="M51.8 81.43h3.658c.147.088.189.17.134.244a.216.216 0 0 1-.166.106H51.74a1.468 1.468 0 0 0 .06-.35z" class="cls-105" data-name="Trazado 5118" transform="translate(-27.904 -44.591)"/>
            <path id="Trazado_5119" d="M171.665 81.41h3.653a1.363 1.363 0 0 0 .041.332h-3.685l-.184-.18z" class="cls-106" data-name="Trazado 5119" transform="translate(-92.487 -44.58)"/>
            <path id="Trazado_5120" d="M147.83 79.38v-.35h3.685c.166.221.106.392-.175.516a12.107 12.107 0 0 1-3.51-.166z" class="cls-107" data-name="Trazado 5120" transform="translate(-79.727 -43.297)"/>
            <path id="Trazado_5121" d="M155.594 79.376v-.369c.714.069 1.658-.263 1.843.7h-1.843c-.17-.074-.226-.147-.175-.221a.229.229 0 0 1 .175-.11z" class="cls-108" data-name="Trazado 5121" transform="translate(-83.81 -43.283)"/>
            <path id="Trazado_5122" d="M99.85 73.313c1.069.138 2.248-.341 3.225.369-1.075-.143-2.235.345-3.225-.369z" class="cls-109" data-name="Trazado 5122" transform="translate(-53.85 -40.196)"/>
            <path id="Trazado_5123" d="M168.57 80.65a1.273 1.273 0 0 0 .032.35 4.717 4.717 0 0 1-2.764 0 2.015 2.015 0 0 0-.028-.332z" class="cls-110" data-name="Trazado 5123" transform="translate(-89.424 -44.17)"/>
            <path id="Trazado_5124" d="M186.689 83.134c-.954-.06-1.986.327-2.829-.341a4.514 4.514 0 0 1 2.727 0 3.254 3.254 0 0 0 .102.341z" class="cls-111" data-name="Trazado 5124" transform="translate(-99.159 -45.212)"/>
            <path id="Trazado_5125" d="M186.577 82.558h-2.727v-.341c.908.083 1.912-.291 2.727.341z" class="cls-112" data-name="Trazado 5125" transform="translate(-99.153 -44.995)"/>
            <path id="Trazado_5126" d="M95.667 79.785H118.7c.152.069.207.138.166.217s-.092.115-.143.115H95.69c-.147-.078-.193-.157-.143-.23a.193.193 0 0 1 .157-.106z" class="cls-113" data-name="Trazado 5126" transform="translate(-51.519 -43.701)"/>
            <path id="Trazado_5127" d="M89.378 79.84v.336H83.85v-.336z" class="cls-114" data-name="Trazado 5127" transform="translate(-45.221 -43.733)"/>
            <path id="Trazado_5128" d="M145.833 80.162a1.607 1.607 0 0 0-.023-.332h4.607v.341z" class="cls-115" data-name="Trazado 5128" transform="translate(-78.637 -43.728)"/>
            <path id="Trazado_5129" d="M59.79 81.78c0-.115.023-.23.032-.35h3.685c-1.16.723-2.487.226-3.717.35z" class="cls-116" data-name="Trazado 5129" transform="translate(-32.245 -44.591)"/>
            <path id="Trazado_5130" d="M165.85 81.43h2.764v.346c-.914-.083-1.939.313-2.764-.346z" class="cls-117" data-name="Trazado 5130" transform="translate(-89.445 -44.591)"/>
            <path id="Trazado_5131" d="M126.446 152.007h-4.33c-.4 0-.815-.1-.769-.488a.774.774 0 0 1 .8-.557c1.313-.01 2.723-.384 4.299 1.045z" class="cls-118" data-name="Trazado 5131" transform="translate(-65.442 -82.063)"/>
            <path id="Trazado_5132" d="M168.751 148.41c.871.115 2.018-.24 2.161.7.088.608-1.027.682-1.414.562-.783-.24-2.174.332-2.3-.7-.098-.783 1.065-.382 1.553-.562z" class="cls-119" data-name="Trazado 5132" transform="translate(-90.167 -80.715)"/>
            <path id="Trazado_5133" d="M194.145 144.185c-.249.691-1 .829-1.76.889-.516.037-1.3.078-1.239-.493.1-.871 1.239-.728 1.967-.921a.756.756 0 0 1 1.032.525z" class="cls-120" data-name="Trazado 5133" transform="translate(-103.086 -78.12)"/>
            <path id="Trazado_5134" d="M150.982 146.76c.645.147 1.562-.207 1.589.461s-.884.668-1.548.673-1.622.041-1.585-.64c.047-.812 1.125-.218 1.544-.494z" class="cls-121" data-name="Trazado 5134" transform="translate(-80.594 -79.825)"/>
            <path id="Trazado_5135" d="M79.434 150.488a6.081 6.081 0 0 1-3.814.064 4.705 4.705 0 0 1 3.814-.064z" class="cls-122" data-name="Trazado 5135" transform="translate(-40.783 -81.632)"/>
            <path id="Trazado_5136" d="M101.564 148.786a3.661 3.661 0 0 1-3.064.184c.967-.67 2.027-.377 3.064-.184z" class="cls-123" data-name="Trazado 5136" transform="translate(-53.122 -80.791)"/>
            <path id="Trazado_5137" d="M195.593 89.095c-.622-.369-1.995.382-2.161-.617-.1-.6.972-.64 1.64-.562s1.635.157 1.635.949c-.007.575-.612.345-1.114.23z" class="cls-124" data-name="Trazado 5137" transform="translate(-104.317 -48.073)"/>
            <path id="Trazado_5138" d="M72.48 88.8l4.487.461a3.7 3.7 0 0 1-.074.5c-1.377.076-2.793.513-4.413-.961z" class="cls-125" data-name="Trazado 5138" transform="translate(-39.089 -48.566)"/>
            <path id="Trazado_5139" d="M122.989 87.337c-.949.7-1.949.576-3.349.221a4.552 4.552 0 0 1 3.349-.221z" class="cls-126" data-name="Trazado 5139" transform="translate(-64.523 -47.66)"/>
            <path id="Trazado_5140" d="M28.27 91.816l1.995-1.516c-.092.986-.908 1.364-1.995 1.516z" class="cls-14" data-name="Trazado 5140" transform="translate(-15.246 -49.375)"/>
            <path id="Trazado_5141" d="M156.5 85.65a1.353 1.353 0 0 1 1.76.327c.074.092-.083.461-.129.461a1.727 1.727 0 0 1-1.631-.788z" class="cls-127" data-name="Trazado 5141" transform="translate(-84.403 -46.77)"/>
            <path id="Trazado_5142" d="M205.774 91.014a.309.309 0 0 1-.4.336c-.461-.065-.954-.161-1.037-.585-.069-.332.332-.359.64-.327a.866.866 0 0 1 .797.576z" class="cls-128" data-name="Trazado 5142" transform="translate(-110.2 -49.444)"/>
            <path id="Trazado_5143" d="M36.9 90.313c-.249-.157-.521-.244-.548-.364-.083-.346.295-.382.585-.392s.7-.078.6.295c-.043.175-.393.295-.637.461z" class="cls-129" data-name="Trazado 5143" transform="translate(-19.601 -48.968)"/>
            <path id="Trazado_5144" d="M86.63 89.823c.65-.64 1.055-.921 1.76-.682-.208.659-.852.511-1.76.682z" class="cls-130" data-name="Trazado 5144" transform="translate(-46.721 -48.704)"/>
            <path id="Trazado_5145" d="M42.768 147.429a2.829 2.829 0 0 1-3.087.212c-.088-.041-.092-.4 0-.461 1.055-.719 1.953-.064 3.087.249z" class="cls-131" data-name="Trazado 5145" transform="translate(-21.364 -79.876)"/>
            <path id="Trazado_5146" d="M57.648 152.307c0 .4-.355.488-.76.5-.608 0-1.3.051-1.543-.516s.369-.548.8-.571c.628-.03 1.218.034 1.503.587z" class="cls-132" data-name="Trazado 5146" transform="translate(-29.818 -82.497)"/>
            <path id="Trazado_5147" d="M38.442 151.69c-.5.792-.99.8-1.5.571-.134-.055-.157-.281-.23-.428z" class="cls-133" data-name="Trazado 5147" transform="translate(-19.798 -82.484)"/>
            <path id="Trazado_5148" d="M54.923 106.951c1.963-3.064.217-6.155-3.718-6.91-1.787-.346-2.455.1-2.382 1.576.032.709.064 1.419.06 2.128a109.749 109.749 0 0 1-.613 11.517c-.157 1.506.4 1.912 2.3 1.764 3.368-.263 5.229-2.045 5.169-5.137a3.274 3.274 0 0 0-.645-2.469 1.675 1.675 0 0 1-.171-2.469zm-3.888-.539c-.051-.6 0-1.212 0-2.059.037-.613.078-1.47.157-2.3.028-.295.106-.64.557-.691a.815.815 0 0 1 .825.447 5.164 5.164 0 0 1 .041 4.842 1.138 1.138 0 0 1-1.106.7c-.755-.051-.447-.612-.474-.939zm1.166 8.859a1.488 1.488 0 0 1-1.184.35c-.544-.157-.276-.608-.295-.921-.046-.659 0-1.318 0-1.976h.041c.06-.963.111-1.926.193-2.888.069-.806.544-.8 1.212-.364 1.677 1.087 1.709 4.731.032 5.777z" class="cls-31" data-name="Trazado 5148" transform="translate(-26.019 -54.568)"/>
            <path id="Trazado_5149" d="M176.293 116.894a19.693 19.693 0 0 1-2.709-5.63 3.942 3.942 0 0 1 .7-4.146c1.815-2.575 1.207-5.634-3.566-5.846-1.907-.088-2.34.157-2.28 1.774.175 4.505.405 9.006.631 13.507.023.525-.318 1.184.539 1.47a1.626 1.626 0 0 0 1.069-.046c.751-.392.382-1 .244-1.52a23.215 23.215 0 0 1-.341-6.721l.548-.06c.585 1.686 1.156 3.377 1.755 5.067a7.937 7.937 0 0 0 1.7 3.017 1.348 1.348 0 0 0 1.778.364c.623-.401.239-.839-.068-1.23zm-5.693-8.684v-4.952c0-.355-.281-.921.461-1a1.5 1.5 0 0 1 1.571.857c.777 1.391-.032 3.768-2.032 5.095z" class="cls-32" data-name="Trazado 5149" transform="translate(-90.836 -55.284)"/>
            <path id="Trazado_5150" d="M106.445 116.461a20.086 20.086 0 0 1-2.732-5.62c-.608-1.539-.276-2.7.654-4.211 1.843-2.944 1.06-5.427-3.156-5.846-2.257-.221-2.617.051-2.621 1.921 0 4.607.728 9.214.507 13.82-.032.682.235 1.1 1.156 1.041 1.115-.069 1.069-.631.866-1.3a16.334 16.334 0 0 1-.281-7.118c1.115 1.382 1.382 2.971 1.935 4.487a9.205 9.205 0 0 0 2.009 3.722 1.327 1.327 0 0 0 1.654.327c.635-.362.317-.841.009-1.223zm-5.745-8.638v-4.874c0-.461-.336-1.147.608-1.193a1.506 1.506 0 0 1 1.47 1c.668 1.444-.07 3.593-2.078 5.067z" class="cls-32" data-name="Trazado 5150" transform="translate(-53.171 -54.994)"/>
            <path id="Trazado_5151" d="M5.8 162.915A6.45 6.45 0 0 1 2.676 161a1.806 1.806 0 0 0-1.437-.954c-2.147-.654-1.041-1.737-.138-2.373 1.976-1.382 4.091-2.58 6.15-3.851.921-1.41.511-2.764-.161-4.123a2.47 2.47 0 0 1-.207-.622c-.166-1.087.092-2.234-.433-3.271l-.138-.47c-.078-.779-.585-1.608.249-2.276a48.963 48.963 0 0 0 16.359 6.592c.921.382 1.9.5 2.824.843l1.746.147c.954.263 1.912.511 2.87.774l1.354.157c1.092.636 2.3.313 3.446.419.7.184 1.428.157 2.124.373a175.244 175.244 0 0 0 35.882 0c1.691-.405 3.437-.461 5.141-.8l1.764-.157a1.843 1.843 0 0 1 .921-.364c.944-.134 1.958.23 2.842-.392a41.975 41.975 0 0 0 16.216-6.238c.567-.378 1.124-1.069 1.764-.769.723.336.41 1.262.428 1.926.064 2.036.12 4.077.046 6.113-.055 1.506.4 2.621 1.806 3.128 2.128.769 4.072 2.045 6.339 2.432l-.028.055a1.076 1.076 0 0 1 .06 1.723c-1.258.507-2.078 1.843-3.538 1.972-.461.378-1.055.507-1.493.921a.521.521 0 0 1-.387.12c-.843-.645-.663-2.663-2.5-1.944-.322.29-.843.359-.921.921.815.313 1.534-.64 2.349-.193a1.244 1.244 0 0 1 .069 1.926l.051.124a1.626 1.626 0 0 1-.829.4c-.663.12-1.451-.207-1.926.58-2.3 1.7-5.067 2.331-7.693 3.2-4.538 1.493-9.094 2.994-13.894 3.418a19.174 19.174 0 0 0-3.322.8l-2.2.134c-1.714.318-3.492.2-5.164.811l-1.843.166a20.659 20.659 0 0 1-5.911.562c-5.883.064-11.77.23-17.653-.18a10.628 10.628 0 0 1-2.253-.387l-4.455-.138a34.513 34.513 0 0 0-5.528-.511c-.963-.894-2.3-.76-3.4-1.239-1.76.046-3.322-.861-5.026-1.083-.921-.41-1.9-.488-2.819-.861a51.136 51.136 0 0 1-12.869-4.778 3.179 3.179 0 0 0-1.506-.848z" class="cls-134" data-name="Trazado 5151" transform="translate(.002 -77.829)"/>
            <path id="Trazado_5152" d="M223.643 181.752c-.023-.636.23-1.341-.461-1.81a13.233 13.233 0 0 1-1.382-1.41c1.88-.617 2.52-.051 2.829 2.5-.065.6-.466.748-.986.72z" class="cls-135" data-name="Trazado 5152" transform="translate(-119.62 -96.837)"/>
            <path id="Trazado_5153" d="M149.87 205.256c1.552-1.405 3.4-.788 5.164-.811a11.056 11.056 0 0 1-5.164.811z" class="cls-136" data-name="Trazado 5153" transform="translate(-80.827 -110.873)"/>
            <path id="Trazado_5154" d="M165.86 203.242a3.477 3.477 0 0 1 3.322-.8 4.837 4.837 0 0 1-3.322.8z" class="cls-137" data-name="Trazado 5154" transform="translate(-89.451 -109.803)"/>
            <path id="Trazado_5155" d="M219.93 187c.083-1.382 1.1-.921 1.843-1 .184.562-.207.7-.59.843z" class="cls-135" data-name="Trazado 5155" transform="translate(-118.612 -100.982)"/>
            <path id="Trazado_5156" d="M228.85 182.9a1.331 1.331 0 0 1 1.493-.921c-.217.773-.825.889-1.493.921z" class="cls-135" data-name="Trazado 5156" transform="translate(-123.423 -98.809)"/>
            <path id="Trazado_5157" d="M222.66 186.863l.59-.843h.921c-.161.967-.797.98-1.511.843z" class="cls-138" data-name="Trazado 5157" transform="translate(-120.084 -100.998)"/>
            <path id="Trazado_5158" d="M15.823 160.068v-2.838c1.308 1.271 1.276 2.8-.083 4.234z" class="cls-139" data-name="Trazado 5158" transform="translate(-8.488 -85.471)"/>
            <path id="Trazado_5159" d="M163.981 161.386a8.85 8.85 0 0 1-5.141.8c1.589-1.03 3.354-.971 5.141-.8z" class="cls-140" data-name="Trazado 5159" transform="translate(-85.665 -87.66)"/>
            <path id="Trazado_5160" d="M64.117 203.234l-.981.147c-.843-.129-1.792 0-2.336-.921a3.824 3.824 0 0 1 3.317.774z" class="cls-141" data-name="Trazado 5160" transform="translate(-32.79 -109.809)"/>
            <path id="Trazado_5161" d="M76.044 162.216l-2.3.023c-.5-.585-1.658.424-1.87-.829a6.2 6.2 0 0 1 4.17.806z" class="cls-142" data-name="Trazado 5161" transform="translate(-38.76 -87.698)"/>
            <path id="Trazado_5162" d="M70.227 161.47l1.87.829c-1.142-.037-2.414.461-3.257-.815z" class="cls-143" data-name="Trazado 5162" transform="translate(-37.126 -87.758)"/>
            <path id="Trazado_5163" d="M14.785 152.411c-.276-.5-.553-1-.825-1.511v-1.88a3.749 3.749 0 0 1 .825 3.391z" class="cls-144" data-name="Trazado 5163" transform="translate(-7.528 -81.044)"/>
            <path id="Trazado_5164" d="M2.69 179.109c.355-.249.825-.783 1.05-.691.723.3.295 1.073.387 1.645-.705.037-1.082-.463-1.437-.954z" class="cls-145" data-name="Trazado 5164" transform="translate(-1.45 -96.893)"/>
            <path id="Trazado_5165" d="M52.574 158.085a3.225 3.225 0 0 1-2.824-.843 2.994 2.994 0 0 1 2.824.843z" class="cls-146" data-name="Trazado 5165" transform="translate(-26.83 -85.437)"/>
            <path id="Trazado_5166" d="M62.54 160.134a3.271 3.271 0 0 1-2.87-.774 2.953 2.953 0 0 1 2.87.774z" class="cls-147" data-name="Trazado 5166" transform="translate(-32.18 -86.565)"/>
            <path id="Trazado_5167" d="M174.741 160.146l-.921-.046c.59-1.52 1.843-.617 2.81-.825-.193 1.291-1.405.25-1.889.871z" class="cls-148" data-name="Trazado 5167" transform="translate(-93.744 -86.531)"/>
            <path id="Trazado_5168" d="M43.75 198.285a2.98 2.98 0 0 1 2.819.861 3.271 3.271 0 0 1-2.819-.861z" class="cls-149" data-name="Trazado 5168" transform="translate(-23.594 -107.574)"/>
            <path id="Trazado_5169" d="M175.82 160.241l1.884-.871.944.069c-.626 1.442-1.861.622-2.828.802z" class="cls-150" data-name="Trazado 5169" transform="translate(-94.822 -86.625)"/>
            <path id="Trazado_5170" d="M12.6 186.085c.728-.134 1.382-.147 1.506.852-.706.106-1.119-.35-1.506-.852z" class="cls-151" data-name="Trazado 5170" transform="translate(-6.795 -100.998)"/>
            <path id="Trazado_5171" d="M40.511 163.626a8.947 8.947 0 0 1-4.1-1.677.756.756 0 0 1 0-.608c1.488-.576 2.764.327 4.091.714.562.157 1.382.189 1.382.967s-.793.498-1.373.604z" class="cls-152" data-name="Trazado 5171" transform="translate(-19.604 -87.588)"/>
            <path id="Trazado_5172" d="M156.832 170.163l-.5.507c-.921-.373-1.815 0-2.718.051-.461.3-.8.212-.972-.35 1.143-1.5 2.644-1.548 4.266-1.106a.719.719 0 0 1 .24.461.567.567 0 0 1-.316.437z" class="cls-153" data-name="Trazado 5172" transform="translate(-82.321 -91.83)"/>
            <path id="Trazado_5173" d="M219.83 178.781c1.023-.111 1.488.355 1.382 1.41a1.151 1.151 0 0 0-.2.106c-.852.691-2.078 1.488-2.732.461-.823-1.258 1.213-1.111 1.55-1.977z" class="cls-154" data-name="Trazado 5173" transform="translate(-117.618 -97.086)"/>
            <path id="Trazado_5174" d="M47.836 189.853c-.032.17-.069.336-.1.507a4.879 4.879 0 0 1-.686 0c-.921-.143-2.045.461-2.658-.746-.055-.106.189-.534.276-.53 1.091.091 2.45-.904 3.168.769z" class="cls-155" data-name="Trazado 5174" transform="translate(-23.936 -102.537)"/>
            <path id="Trazado_5175" d="M112.143 172.471a4.386 4.386 0 0 0-2.3-.6c.184-.958.949-1.166 1.7-1.271.673-.1 1.52-.161 1.746.682s-.703.853-1.146 1.189z" class="cls-156" data-name="Trazado 5175" transform="translate(-59.238 -92.65)"/>
            <path id="Trazado_5176" d="M188.154 164.047c-.428.3-.64.553-.9.617-.921.221-1.764 1.032-2.764.461a.461.461 0 0 1 .037-.765c1.073-.543 2.162-1.322 3.627-.313z" class="cls-7" data-name="Trazado 5176" transform="translate(-99.399 -88.884)"/>
            <path id="Trazado_5177" d="M128.78 199.782l.507-.921a1.8 1.8 0 0 1 2.3.083c.253.221.378.544.055.76-.918.608-1.885.996-2.862.078z" class="cls-157" data-name="Trazado 5177" transform="translate(-69.453 -107.722)"/>
            <path id="Trazado_5178" d="M196.139 188.4c-1.691.8-2.617 2-4.459 1.207 1.304-1.032 2.373-1.76 4.459-1.207z" class="cls-158" data-name="Trazado 5178" transform="translate(-103.376 -102.18)"/>
            <path id="Trazado_5179" d="M209.17 159.191c.728-1.17 1.5-1.778 2.663-1.635a.507.507 0 0 1 .29.751c-.663 1.093-1.649 1.032-2.953.884z" class="cls-159" data-name="Trazado 5179" transform="translate(-112.809 -85.636)"/>
            <path id="Trazado_5180" d="M77.98 170.96c.258-.055.659-1.142.737-.032a43.6 43.6 0 0 1-.1 6.1c-.7-1.815.12-3.787-.627-5.583-.166-.106-.221-.212-.17-.322s.105-.163.16-.163z" class="cls-160" data-name="Trazado 5180" transform="translate(-41.959 -92.591)"/>
            <path id="Trazado_5181" d="M122.07 185.789V183.9c.617.111 1.589-.322 1.649.732s-.838 1.157-1.649 1.157z" class="cls-161" data-name="Trazado 5181" transform="translate(-65.834 -99.855)"/>
            <path id="Trazado_5182" d="M171.1 184.908c.152.327.3.65.461.977-1.027.571-2 .815-2.709-.488.615-.784 1.486-.36 2.248-.489z" class="cls-162" data-name="Trazado 5182" transform="translate(-91.063 -100.398)"/>
            <path id="Trazado_5183" d="M71.137 168.551a1.889 1.889 0 0 0 0 .461 3.069 3.069 0 0 1-.35.106 5.017 5.017 0 0 1-2.847-1.11c1.368-.82 2.23.212 3.197.543z" class="cls-163" data-name="Trazado 5183" transform="translate(-36.641 -91.117)"/>
            <path id="Trazado_5184" d="M14.857 180.375c-.82-.083-1.806.461-2.354-.608-.046-.092.2-.493.341-.511a1.7 1.7 0 0 1 2.013 1.119z" class="cls-164" data-name="Trazado 5184" transform="translate(-6.739 -97.325)"/>
            <path id="Trazado_5185" d="M141.681 175.219l-.861-1.083c1.027-.663 2.165-.461 3.28-.461a.594.594 0 0 1-.074.825 2.6 2.6 0 0 1-.369.111H142.2c-.178.189-.224.511-.519.608z" class="cls-165" data-name="Trazado 5185" transform="translate(-75.946 -94.325)"/>
            <path id="Trazado_5186" d="M166.931 192.184a7.56 7.56 0 0 1-.774-3.653l.769-.461c.001 1.35.005 2.73.005 4.114z" class="cls-166" data-name="Trazado 5186" transform="translate(-89.596 -102.104)"/>
            <path id="Trazado_5187" d="M27.445 172.244l.226.484c-1.313.53-1.23-1.221-2.8-.921 1.865-1.407 2.058-.12 2.574.437z" class="cls-167" data-name="Trazado 5187" transform="translate(-13.412 -92.99)"/>
            <path id="Trazado_5188" d="M59.113 176.78a2.686 2.686 0 0 1 .313 1.76l-1.608.074c-.493-.217-.4-.557-.189-.921z" class="cls-168" data-name="Trazado 5188" transform="translate(-30.988 -96.015)"/>
            <path id="Trazado_5189" d="M114.62 184.878c.161-.327.069-.806.534-.958l1.382.461c0 .322-.028.645-.046.963a1.212 1.212 0 0 1-1.746 0z" class="cls-169" data-name="Trazado 5189" transform="translate(-61.816 -99.866)"/>
            <path id="Trazado_5190" d="M145.819 183.66c.64 1.382.341 2.847.461 4.275-1.06-1.322-.235-2.861-.461-4.275z" class="cls-170" data-name="Trazado 5190" transform="translate(-78.591 -99.726)"/>
            <path id="Trazado_5191" d="M23.4 154.961c-.4-.175-.894-.286-.921-.82a.435.435 0 0 1 .617-.415c.419.124.852.309.885.857.019.438-.253.47-.581.378z" class="cls-171" data-name="Trazado 5191" transform="translate(-12.123 -83.566)"/>
            <path id="Trazado_5192" d="M114.834 187h1.746v.507c-.405.309-.562.981-1.235.921-.286-.447-.677-.834-.511-1.428z" class="cls-172" data-name="Trazado 5192" transform="translate(-61.91 -101.527)"/>
            <path id="Trazado_5193" d="M90.734 175l.746.636c-.221.184-.415.461-.668.534-.433.12-.737-.138-.774-.6-.018-.353.19-.57.696-.57z" class="cls-173" data-name="Trazado 5193" transform="translate(-48.558 -95.055)"/>
            <path id="Trazado_5194" d="M155.584 190.09a2.981 2.981 0 0 1 0 3.755.668.668 0 0 1 0-.921z" class="cls-174" data-name="Trazado 5194" transform="translate(-83.81 -103.193)"/>
            <path id="Trazado_5195" d="M73.914 197.057a1.382 1.382 0 0 0 .921 1.027.852.852 0 0 1-1.35.078.633.633 0 0 1 0-1.11c.134-.221.281-.23.429.005z" class="cls-175" data-name="Trazado 5195" transform="translate(-39.454 -106.857)"/>
            <path id="Trazado_5196" d="M121.9 202.24l1.764.521.511.276c-.925.235-1.943.746-2.275-.797z" class="cls-176" data-name="Trazado 5196" transform="translate(-65.742 -109.746)"/>
            <path id="Trazado_5197" d="M84.208 175.372a3.6 3.6 0 0 1-.378.253c.161-1.29-.58-2.695.488-3.865a2.686 2.686 0 0 1 .037 1.843z" class="cls-177" data-name="Trazado 5197" transform="translate(-45.156 -93.308)"/>
            <path id="Trazado_5198" d="M58.2 191.269v1.5c-.921-.507-.405-1.271-.3-1.939.046-.29.392-.2.184.032-.047.071.073.283.116.407z" class="cls-178" data-name="Trazado 5198" transform="translate(-31.096 -103.493)"/>
            <path id="Trazado_5199" d="M161.957 170.1c0-.184-.028-.369-.037-.553h2.727a3.252 3.252 0 0 1 0 .424c-.847.952-1.796.27-2.69.129z" class="cls-179" data-name="Trazado 5199" transform="translate(-87.326 -92.116)"/>
            <path id="Trazado_5200" d="M149.877 171.654l-1.161.742-.806.189c.166-1.4 1.19-.885 1.967-.931z" class="cls-165" data-name="Trazado 5200" transform="translate(-79.77 -93.221)"/>
            <path id="Trazado_5201" d="M154.192 196.23v.921a1.017 1.017 0 0 1-1.382-.415c.322-.557.866-.492 1.382-.506z" class="cls-180" data-name="Trazado 5201" transform="translate(-82.413 -106.505)"/>
            <path id="Trazado_5202" d="M151.94 201.21l2.151.028c-.741.852-1.442.741-2.151-.028z" class="cls-181" data-name="Trazado 5202" transform="translate(-81.943 -109.191)"/>
            <path id="Trazado_5203" d="M82.349 186.08l-.23 2.7-.272.023c.143-.917-.447-1.963.502-2.723z" class="cls-182" data-name="Trazado 5203" transform="translate(-44.112 -101.031)"/>
            <path id="Trazado_5204" d="M58.83 170.372l.193-2.732c.346.944.632 1.88-.193 2.732z" class="cls-183" data-name="Trazado 5204" transform="translate(-31.727 -91.086)"/>
            <path id="Trazado_5205" d="M74.261 194.563H73.8v-2.3c.963.614.456 1.508.461 2.3z" class="cls-184" data-name="Trazado 5205" transform="translate(-39.801 -104.364)"/>
            <path id="Trazado_5206" d="M77.845 198.942c.387 0 .723-.6 1.147-.12a.392.392 0 0 1-.06.373c-.461.332-.792.143-1.092-.249z" class="cls-185" data-name="Trazado 5206" transform="translate(-41.98 -107.803)"/>
            <path id="Trazado_5207" d="M137.986 175.71c.954.972.258 1.958.032 2.953-.088.392-.106.834-.613.41-.415-.345.17-.654.129-1.009-.188-.838-.746-1.764.452-2.354z" class="cls-186" data-name="Trazado 5207" transform="translate(-74.015 -95.438)"/>
        </g>
        <g id="Camada_2" data-name="Camada 2" transform="translate(11.547 76.491)">
            <path id="Trazado_5208" d="M154.925 173.736a5.929 5.929 0 0 1 .3-2.207c.654-2.958 1.037-3.368 3.566-2.713.35-.18-.157.3 0 .622a14.968 14.968 0 0 1 .944 4.381c.175 2.879.848 5.528 1 8.407.032.64.322 1.635-.4 1.681s-.838-.848-.875-1.681c0-.281-.028-.562-.037-.843-.111-3.16-1-5.754-1.437-8.891-.161-1.156.24-2.363-.58-2.534s-.576.562-.765 1.46a25.473 25.473 0 0 0-.6 5.067c0 1.258-.461 2.409-.461 3.685-.4 1.032-.032 2.142-.037 3.225 0 .921-.235 1.235-.857.921-.461-.35-.359-.921-.355-1.483a61.839 61.839 0 0 1 .309-7.173z" class="cls-187" data-name="Trazado 5208" transform="translate(-94.873 -166.603)"/>
            <path id="Trazado_5209" d="M168.134 178.094a5.588 5.588 0 0 1-.212 2.22c-.548 2.981-.921 3.409-3.713 2.865-.369.193.152-.309 0-.622a14.027 14.027 0 0 1-1.258-4.335c-.346-2.87-1.216-5.491-1.534-8.361-.069-.636-.461-1.617.346-1.7.709-.074.954.806 1.032 1.64.028.281.06.562.088.843.29 3.156 1.382 5.7 2.036 8.822.235 1.143-.134 2.373.765 2.506s.59-.59.746-1.493a23.227 23.227 0 0 0 .378-5.068c-.06-1.258.364-2.428.318-3.685.373-1.046-.078-2.138-.134-3.225-.051-.944.184-1.244.875-.977.511.332.438.921.461 1.47a56.434 56.434 0 0 1 .051 7.177z" class="cls-187" data-name="Trazado 5209" transform="translate(-98.616 -166.004)"/>
            <path id="Trazado_5210" d="M57.627 168.212a2.02 2.02 0 0 0-1.778 1.52 12.922 12.922 0 0 0-.728 9.214 3.46 3.46 0 0 0 2.23 2.368 2.8 2.8 0 0 0 2.824-.083c1.3-1.06-.06.944-.092-.378-.028-1.069 1.382-.921 0-1.58-.576-.281-1.843-.691-1.47-2.372.166-.7 2.253 1.447 2.852 1.433.921-.023-2.944-9.859-.779-10.932 1.313-.65 3.722 8.564 3.225 9.849a8.66 8.66 0 0 0-.115 2.022c0 .594 2.6 3.487 2.543 3.888-.143 1-3.133-.921-3.925-.673a14.067 14.067 0 0 1-2.736.433c-3.837.41-6.482-.8-7.445-3.331-.857-2.257-.276-4.584-.562-6.864.677-2.672 1.17-5.436 5.5-5.86a5.528 5.528 0 0 1 2.935.032c.921.405.709.723-.129.963-.761.222-1.655-.198-2.35.351z" class="cls-188" data-name="Trazado 5210" transform="translate(-39.511 -165.598)"/>
            <path id="Trazado_5211" d="M27.263 186.038c-.954 0-1.88.051-1.981-.677-.092-.654.8-.668 1.424-.751l.544-.064c1.322-.129 2.589-.825 3.962-.272a.515.515 0 0 1 .124.576c-1.152 1.027-2.783.958-4.073 1.188z" class="cls-189" data-name="Trazado 5211" transform="translate(-25.276 -174.971)"/>
            <path id="Trazado_5212" d="M29.57 195.413c.691-2.23 1.843-3.285 4.436-3.6-.852 1.729-2.206 2.614-4.436 3.6z" class="cls-190" data-name="Trazado 5212" transform="translate(-27.592 -179.149)"/>
            <path id="Trazado_5213" d="M30.417 177.175c-1.451.461-2.893.737-4.367-.461 1.681-.05 3.1-.478 4.367.461z" class="cls-191" data-name="Trazado 5213" transform="translate(-25.693 -170.932)"/>
            <path id="Trazado_5214" d="M43.943 173.619a2.258 2.258 0 0 1-1.612 1.069c-.511.087-.64-.3-.557-.562a1.93 1.93 0 0 1 1.589-1.078c.52-.111.52.276.58.571z" class="cls-192" data-name="Trazado 5214" transform="translate(-34.16 -169.02)"/>
            <path id="Trazado_5215" d="M32 168.933c.7-1.258 1.58-.88 2.589-.783-.696 1.018-1.668.635-2.589.783z" class="cls-38" data-name="Trazado 5215" transform="translate(-28.902 -166.319)"/>
            <path id="Trazado_5216" d="M45.468 191.012c-.594.281-.852.921-1.9 1a1.889 1.889 0 0 1 1.295-1.792c.545.092.771.359.605.792z" class="cls-193" data-name="Trazado 5216" transform="translate(-35.142 -178.292)"/>
            <path id="Trazado_5217" d="M75.432 170.041a2.558 2.558 0 0 0 .424-.078c.967-.06 1 .332.654.9a7.918 7.918 0 0 1-.078.811l-.981-.428c-.724-.394-.36-.809-.019-1.205z" class="cls-194" data-name="Trazado 5217" transform="translate(-52.11 -167.363)"/>
            <path id="Trazado_5218" d="M42.08 203.864c.461-.539 1.235-1.124 1.875-.608.737.6-.3.848-.848 1.106a1.382 1.382 0 0 1-1.027-.5z" class="cls-195" data-name="Trazado 5218" transform="translate(-34.339 -185.215)"/>
            <path id="Trazado_5219" d="M77.474 170.038a.834.834 0 0 0-.654-.884l.691-.723c1.963.556.774 1.082-.037 1.607z" class="cls-196" data-name="Trazado 5219" transform="translate(-53.075 -166.54)"/>
            <path id="Trazado_5220" d="M184.937 171.508c.461-.23 1.05-.668 1.382-.24.41.5-.24.894-.788 1.17-1.031.033-.931-.409-.594-.93z" class="cls-197" data-name="Trazado 5220" transform="translate(-111.258 -167.973)"/>
            <path id="Trazado_5221" d="M46.983 190.352l-.6-.792c.428-.4 1.05-.866 1.511-.3.366.44-.284.885-.911 1.092z" class="cls-198" data-name="Trazado 5221" transform="translate(-36.658 -177.631)"/>
            <path id="Trazado_5222" d="M183.921 171.968a.82.82 0 0 0 .617.921c-.99.788-1.543.585-1.718-.488l.539-.461z" class="cls-199" data-name="Trazado 5222" transform="translate(-110.242 -168.433)"/>
            <path id="Trazado_5223" d="M41.68 204.8a1.1 1.1 0 0 1 1.027.5c-.378.369-.825.65-1.35.235-.096-.077.204-.482.323-.735z" class="cls-200" data-name="Trazado 5223" transform="translate(-33.939 -186.154)"/>
            <path id="Trazado_5224" d="M31.24 181.853c.055.3-.2.322-.461.318-.322 0-.732.138-.894-.212-.046-.1-.4-.433.17-.41.406.018.876-.065 1.185.304z" class="cls-38" data-name="Trazado 5224" transform="translate(-27.681 -173.614)"/>
            <path id="Trazado_5225" d="M93.738 177.541c-.263.534-.521 1.069-.779 1.6-1.488 3.091-3.317 3.778-7.979 3-.673.18-.834-.244-1.064-.585a8.882 8.882 0 0 1-1.17-4.492 601.522 601.522 0 0 1-.143-9.117c0-.673-.461-1.732.921-1.755 1.239 0 1.488.921 1.479 1.8v.889a54.851 54.851 0 0 0 .507 9.978 2.206 2.206 0 0 0 2.211 2.124 2.3 2.3 0 0 0 2.672-1.483 15.566 15.566 0 0 0 1.253-5.215c.124-1.322.29-2.644.461-3.966.829-1.073.253-2.253.355-3.377.088-1 .548-1.295 1.681-.963.82.387.59.986.534 1.58-.318 3.326-.608 6.657-.921 9.983z" class="cls-201" data-name="Trazado 5225" transform="translate(-56.154 -165.152)"/>
            <path id="Trazado_5226" d="M105.2 165.739c-1.258.051-1.41.732-1.382 1.548a8.99 8.99 0 0 1-.1 3.091c-.24.65-.359-.157-.544-.3 0-1.161-.078-2.3-.06-3.483.012-1.322.837-1.46 2.086-.856z" class="cls-202" data-name="Trazado 5226" transform="translate(-67.255 -164.903)"/>
            <path id="Trazado_5227" d="M113.71 165.277c-.553-.032-1.253.617-1.64-.1-.267-.493.193-.783.843-.843 1.115-.1.82.493.751.981z" class="cls-203" data-name="Trazado 5227" transform="translate(-72.044 -164.327)"/>
            <path id="Trazado_5228" d="M86.78 205.377l-1.078.3c-1.271-.866.378-.921.617-1.382a.608.608 0 0 1 .894-.028c.41.479-.248.751-.433 1.11z" class="cls-204" data-name="Trazado 5228" transform="translate(-57.608 -185.769)"/>
            <path id="Trazado_5229" d="M95.508 173.2c.346-.1.58.1.548.286a1.018 1.018 0 0 1-.461.7.419.419 0 0 1-.677-.359c-.004-.32.213-.537.59-.627z" class="cls-205" data-name="Trazado 5229" transform="translate(-62.835 -169.096)"/>
            <path id="Trazado_5230" d="M153.647 173.724a5.579 5.579 0 0 1 .341-2.211c.719-2.958 1.138-3.372 3.874-2.723.382-.18-.166.3 0 .622a13.687 13.687 0 0 1 1 4.376c.18 2.879.9 5.528 1.05 8.412.032.636.345 1.631-.461 1.681-.714.041-.921-.848-.921-1.681l-.041-.843c-.106-3.16-1.06-5.749-1.52-8.891-.17-1.152.267-2.363-.617-2.529s-.627.562-.838 1.465a23.3 23.3 0 0 0-.668 5.068c0 1.258-.507 2.414-.53 3.685-.433 1.032-.046 2.142-.051 3.225 0 .944-.258 1.235-.921.921-.493-.35-.387-.921-.382-1.483a56.424 56.424 0 0 1 .364-7.173z" class="cls-201" data-name="Trazado 5230" transform="translate(-94.134 -166.591)"/>
            <path id="Trazado_5231" d="M166.954 178.364a5.581 5.581 0 0 1-.212 2.221c-.548 2.981-.921 3.409-3.713 2.865-.369.193.152-.3 0-.622a14.028 14.028 0 0 1-1.258-4.335c-.346-2.87-1.216-5.487-1.534-8.361-.069-.636-.461-1.617.346-1.7.709-.074.954.811 1.032 1.645.028.276.06.557.088.838.29 3.156 1.382 5.7 2.036 8.822.235 1.147-.134 2.372.765 2.506s.59-.585.751-1.493a23.5 23.5 0 0 0 .373-5.067c-.06-1.253.369-2.428.318-3.685.373-1.046-.078-2.138-.134-3.225-.051-.944.184-1.244.875-.977.511.332.438.921.461 1.47a56.5 56.5 0 0 1 .051 7.182z" class="cls-201" data-name="Trazado 5231" transform="translate(-97.979 -166.15)"/>
            <path id="Trazado_5232" d="M152.18 201.38l-1.078.3c-1.271-.866.378-.921.617-1.382a.608.608 0 0 1 .894-.023c.396.474-.253.745-.433 1.105z" class="cls-204" data-name="Trazado 5232" transform="translate(-92.88 -183.615)"/>
            <path id="Trazado_5233" d="M167.7 173.2c.341-.1.576.1.544.286a1 1 0 0 1-.461.7.419.419 0 0 1-.677-.359c.003-.32.219-.537.594-.627z" class="cls-205" data-name="Trazado 5233" transform="translate(-101.768 -169.096)"/>
            <path id="Trazado_5234" d="M167.93 166.593a2.031 2.031 0 0 1 .677-.253c.309 0 .461.253.281.461a1.424 1.424 0 0 1-.719.184c-.055-.014-.138-.226-.239-.392z" class="cls-203" data-name="Trazado 5234" transform="translate(-102.212 -165.413)"/>
            <path id="Trazado_5235" d="M66.565 166.739l-2.935-.032a3.382 3.382 0 0 1 2.935.032z" class="cls-206" data-name="Trazado 5235" transform="translate(-45.961 -165.438)"/>
            <path id="Trazado_5236" d="M201.933 183.429a.668.668 0 0 1-.654.677c-1.525.263-3.04.6-4.584.742-.732.069-1.2-.378-.677-1.032s4.648-1.313 5.459-.825a2.612 2.612 0 0 1 .456.438z" class="cls-207" data-name="Trazado 5236" transform="translate(-117.24 -174.302)"/>
            <path id="Trazado_5237" d="M202.9 193.559a4.241 4.241 0 0 1-4.1-.921c1.5-.134 3.225-1 4.072.921l.088.088z" class="cls-208" data-name="Trazado 5237" transform="translate(-118.861 -179.428)"/>
            <path id="Trazado_5238" d="M197.746 175.53a1.146 1.146 0 0 1-.041.433.433.433 0 0 1-.511.138c-.811-.069-1.52 1.248-1.907.594-.64-1.087 1.087-1.511 1.815-2.216.543.241.879.521.644 1.051z" class="cls-209" data-name="Trazado 5238" transform="translate(-116.891 -169.803)"/>
            <path id="Trazado_5239" d="M112.72 182.591l.1-15.078c2.474-1.318 4.92-.267 7.371.055 0 1.617-1.3 1.078-2.4 1.013-.889-.055-2.179-.848-2.4.682-.216 1.327-.617 2.658.249 3.939.972.378 2.806-1.014 3 .954a2.878 2.878 0 0 1-1.843.217c-1.382-.1-1.691.461-1.645 1.46a26.977 26.977 0 0 1 0 4.183c-.157 1.5.382 2.2 2.377 1.99a4.542 4.542 0 0 1 2.4.175c.35 0 .5.157.488.433a10.208 10.208 0 0 1-7.697-.023z" class="cls-210" data-name="Trazado 5239" transform="translate(-72.436 -165.696)"/>
            <path id="Trazado_5240" d="M122.389 190.69c-6.169.12-4.957.378-5.035-4.017v-1.106c.037-2.93.037-2.93 3.741-2.9-.765.967-2.819-.29-3.022.811a32.477 32.477 0 0 0-.249 6.422c0 .53.806.461 1.35.461 1.087.075 2.215-.243 3.215.329z" class="cls-187" data-name="Trazado 5240" transform="translate(-74.909 -174.214)"/>
            <path id="Trazado_5241" d="M118.019 175.989c-1.414-1.258-.838-2.6-.249-3.939.33 1.304-.336 2.65.249 3.939z" class="cls-187" data-name="Trazado 5241" transform="translate(-74.819 -168.492)"/>
            <path id="Trazado_5242" d="M133.4 182.591l.1-15.078c2.474-1.318 4.92-.267 7.371.055 0 1.617-1.308 1.078-2.4 1.013-.889-.055-2.179-.848-2.4.682-.217 1.327-.617 2.658.249 3.939.972.378 2.806-1.014 3 .954a2.882 2.882 0 0 1-1.843.217c-1.382-.1-1.691.461-1.645 1.46a27.562 27.562 0 0 1 0 4.183c-.157 1.5.378 2.2 2.372 1.99a4.561 4.561 0 0 1 2.4.175c.35 0 .5.157.488.433a10.208 10.208 0 0 1-7.692-.023z" class="cls-210" data-name="Trazado 5242" transform="translate(-83.589 -165.696)"/>
            <path id="Trazado_5243" d="M143.046 190.69c-6.173.12-4.961.378-5.035-4.017v-1.106c.037-2.93.037-2.93 3.741-2.9-.765.967-2.819-.29-3.022.811a32.476 32.476 0 0 0-.249 6.422c0 .53.806.461 1.345.461 1.096.075 2.229-.243 3.22.329z" class="cls-187" data-name="Trazado 5243" transform="translate(-86.048 -174.214)"/>
            <path id="Trazado_5244" d="M138.7 175.989c-1.419-1.258-.838-2.6-.249-3.939.329 1.304-.339 2.65.249 3.939z" class="cls-187" data-name="Trazado 5244" transform="translate(-85.97 -168.492)"/>
            <path id="Trazado_5245" d="M180.929 190.177a1.009 1.009 0 0 1-1.511.078c-.428-.576.373-.774.871-1 1.059-.078.93.383.64.922z" class="cls-211" data-name="Trazado 5245" transform="translate(-108.342 -177.765)"/>
            <path id="Trazado_5246" d="M200.035 174.6l-.645-1.05c.327-.461.921-1.073 1.382-.65.788.676-.18 1.215-.737 1.7z" class="cls-212" data-name="Trazado 5246" transform="translate(-119.179 -168.876)"/>
            <path id="Trazado_5247" d="M190.242 201.5c-.378 0-.41-.313-.35-.585a.894.894 0 0 1 .884-.691c.461-.028.65.263.534.562a1.092 1.092 0 0 1-1.068.714z" class="cls-213" data-name="Trazado 5247" transform="translate(-114.044 -183.688)"/>
            <path id="Trazado_5248" d="M182.09 189.578a.921.921 0 0 0-.64-.921c.461-.4 1.124-.788 1.566-.286.584.663-.262.968-.926 1.207z" class="cls-214" data-name="Trazado 5248" transform="translate(-109.504 -177.166)"/>
            <path id="Trazado_5249" d="M199.59 177.837a.871.871 0 0 1 .511-.138c.493.272.861.8.309 1s-.732-.438-.82-.862z" class="cls-38" data-name="Trazado 5249" transform="translate(-119.287 -171.538)"/>
        </g>
    </g>
</svg>
