<svg xmlns="http://www.w3.org/2000/svg" width="59.735" height="59.768" viewBox="0 0 59.735 59.768">
    <defs>
        <style>
            .cls-1{fill:#4f1a0f}
        </style>
    </defs>
    <g id="veggie_double" data-name="veggie double" transform="translate(-.145)">
        <path id="Trazado_5301" d="M322.77 337.548a22.323 22.323 0 0 0-7.346 3.215c-2.569-1.941-6.9-3.066-7.486-3.215a1 1 0 0 0-1.22.816c-.109.712-1 7.087.856 9.885s5.6 4.23 8.282 2.438a5.259 5.259 0 0 0 2.144-3.344l2.071-2.135a1 1 0 1 0-1.434-1.394l-.746.776a7.709 7.709 0 0 0-1.056-2.379 19.733 19.733 0 0 1 5.345-2.409c.259 2.429.289 5.811-.617 7.178a5.207 5.207 0 0 1-2.209 1.892 1 1 0 0 0 .408 1.9 6.085 6.085 0 0 0 3.424-2.7c1.812-2.757.886-8.959.777-9.7a1 1 0 0 0-1.186-.836zm-13.549 9.625c-1-1.523-.9-5.176-.676-7.366 2.418.727 5.664 2.08 6.609 3.484a4.625 4.625 0 0 1 .487 4.788l-2.479-3.175a1 1 0 1 0-1.573 1.211l2.508 3.225c-1.593.528-3.643-.338-4.878-2.17z" class="cls-1" data-name="Trazado 5301" transform="translate(-270.446 -298.724)"/>
        <path id="Trazado_5302" d="M56.066 41.986a4.981 4.981 0 0 0-4.917-5.693v-4.981h1a1.991 1.991 0 0 0 1.991-1.991 18.913 18.913 0 0 0-18.91-18.91h-9.963A18.914 18.914 0 0 0 6.356 29.322a1.991 1.991 0 0 0 1.991 1.994h1V36.3a4.981 4.981 0 0 0-1.99 9.536v2.409A10.949 10.949 0 0 0 18.3 59.192h16.486A14.932 14.932 0 1 0 56.068 42zM8.344 29.324A16.922 16.922 0 0 1 25.268 12.4h9.953a16.922 16.922 0 0 1 16.923 16.925zM49.158 33.8v2.491H11.337V33.8zm0-3.469v2.491H11.337v-2.487zM7.941 43.9a2.986 2.986 0 0 1-1.586-2.633 2.986 2.986 0 0 1 2.986-2.986h41.808a2.987 2.987 0 0 1 2.986 2.857 14.871 14.871 0 0 0-16.524 4.625 3.29 3.29 0 0 1-.637-.537.994.994 0 0 0-1.493 0 2.987 2.987 0 0 1-4.479 0 .994.994 0 0 0-1.493 0 2.989 2.989 0 0 1-4.481 0 .994.994 0 0 0-1.493 0 2.987 2.987 0 0 1-4.479 0 .994.994 0 0 0-1.493 0 2.986 2.986 0 0 1-5.046-1 1 1 0 0 0-1.5-.5 2.986 2.986 0 0 1-3.071.167zm26.435 13.3H18.3a8.96 8.96 0 0 1-8.959-8.959v-1.994a5.133 5.133 0 0 0 1.772-.319 4.981 4.981 0 0 0 7.187 1.317 5.108 5.108 0 0 0 5.974 0 5.107 5.107 0 0 0 5.973 0 4.981 4.981 0 0 0 5.973 0l.237.149a14.687 14.687 0 0 0-2.079 9.8zm23.933 7.159a12.94 12.94 0 0 1-9.151 3.8 12.941 12.941 0 1 1 9.151-3.8z" class="cls-1" data-name="Trazado 5302" transform="translate(-4.24 -10.41)"/>
    </g>
</svg>
