<svg xmlns="http://www.w3.org/2000/svg" width="59.735" height="59.768" viewBox="0 0 59.735 59.768">
    <defs>
        <style>
            .cls-1{fill:#4f1a0f}
        </style>
    </defs>
    <g id="Componente_10_1" data-name="Componente 10 – 1">
        <path id="Trazado_5302" d="M56.066 41.986a4.981 4.981 0 0 0-4.917-5.693v-4.981h1a1.991 1.991 0 0 0 1.991-1.991 18.913 18.913 0 0 0-18.91-18.91h-9.963A18.914 18.914 0 0 0 6.356 29.322a1.991 1.991 0 0 0 1.991 1.994h1V36.3a4.981 4.981 0 0 0-1.99 9.536v2.409A10.949 10.949 0 0 0 18.3 59.192h16.486A14.932 14.932 0 1 0 56.068 42zM8.344 29.324A16.922 16.922 0 0 1 25.268 12.4h9.953a16.922 16.922 0 0 1 16.923 16.925zM49.158 33.8v2.491H11.337V33.8zm0-3.469v2.491H11.337v-2.487zM7.941 43.9a2.986 2.986 0 0 1-1.586-2.633 2.986 2.986 0 0 1 2.986-2.986h41.808a2.987 2.987 0 0 1 2.986 2.857 14.871 14.871 0 0 0-16.524 4.625 3.29 3.29 0 0 1-.637-.537.994.994 0 0 0-1.493 0 2.987 2.987 0 0 1-4.479 0 .994.994 0 0 0-1.493 0 2.989 2.989 0 0 1-4.481 0 .994.994 0 0 0-1.493 0 2.987 2.987 0 0 1-4.479 0 .994.994 0 0 0-1.493 0 2.986 2.986 0 0 1-5.046-1 1 1 0 0 0-1.5-.5 2.986 2.986 0 0 1-3.071.167zm26.435 13.3H18.3a8.96 8.96 0 0 1-8.959-8.959v-1.994a5.133 5.133 0 0 0 1.772-.319 4.981 4.981 0 0 0 7.187 1.317 5.108 5.108 0 0 0 5.974 0 5.107 5.107 0 0 0 5.973 0 4.981 4.981 0 0 0 5.973 0l.237.149a14.687 14.687 0 0 0-2.079 9.8zm23.933 7.159a12.94 12.94 0 0 1-9.151 3.8 12.941 12.941 0 1 1 9.151-3.8z" class="cls-1" data-name="Trazado 5302" transform="translate(-4.385 -10.41)"/>
        <g id="chicken" transform="translate(33.999 30.934)">
            <g id="Grupo_559" data-name="Grupo 559" transform="translate(0 9.314)">
                <path id="Trazado_5295" d="M6.1 24.147a6.1 6.1 0 1 1 0-12.2c3.361 0 10.078 2.637 10.078 6.1s-6.715 6.1-10.078 6.1zm0-11.511a5.409 5.409 0 1 0 0 10.818c3.091 0 9.386-2.5 9.386-5.409S9.192 12.637 6.1 12.637z" class="cls-1" data-name="Trazado 5295" transform="translate(0 -11.945)"/>
                <path id="Trazado_5296" d="M27.3 22.886a2.285 2.285 0 0 1-2.28-2.2h-2.773a.346.346 0 0 1 0-.692h3.139a.346.346 0 0 1 .343.392 1.539 1.539 0 0 0-.024.215 1.59 1.59 0 1 0 3.18 0 1.575 1.575 0 0 0-.64-1.267.344.344 0 0 1 0-.552 1.588 1.588 0 1 0-2.54-1.267 1.191 1.191 0 0 0 .017.173.387.387 0 0 1-.078.295.36.36 0 0 1-.259.139h-3.138a.346.346 0 0 1 0-.692h2.769a2.282 2.282 0 0 1 4.562.085 2.247 2.247 0 0 1-.608 1.542 2.251 2.251 0 0 1 .608 1.544 2.284 2.284 0 0 1-2.278 2.285z" class="cls-1" data-name="Trazado 5296" transform="translate(-6.754 -12.96)"/>
                <path id="Trazado_5297" d="M3.372 18.237a.333.333 0 0 1-.1-.014.346.346 0 0 1-.237-.428 3.044 3.044 0 0 1 1.874-2.154.346.346 0 0 1 .2.663A2.374 2.374 0 0 0 3.7 17.987a.348.348 0 0 1-.328.25z" class="cls-1" data-name="Trazado 5297" transform="translate(-.933 -13.081)"/>
            </g>
            <g id="Grupo_560" data-name="Grupo 560" transform="translate(3.138 3.413)">
                <path id="Trazado_5298" d="M14.277 7.91a.345.345 0 0 1-.261-.119 1.8 1.8 0 0 1 0-2.356 1.107 1.107 0 0 0 0-1.448.346.346 0 1 1 .521-.454 1.8 1.8 0 0 1 0 2.356 1.108 1.108 0 0 0 0 1.449.345.345 0 0 1-.261.573z" class="cls-1" data-name="Trazado 5298" transform="translate(-7.325 -3.413)"/>
                <path id="Trazado_5299" d="M9.757 7.91a.344.344 0 0 1-.257-.119 1.8 1.8 0 0 1 0-2.356 1.107 1.107 0 0 0 0-1.448.346.346 0 1 1 .521-.454 1.8 1.8 0 0 1 0 2.356 1.108 1.108 0 0 0 0 1.449.345.345 0 0 1-.261.573z" class="cls-1" data-name="Trazado 5299" transform="translate(-5.931 -3.413)"/>
                <path id="Trazado_5300" d="M5.237 7.91a.344.344 0 0 1-.261-.119 1.8 1.8 0 0 1 0-2.356 1.107 1.107 0 0 0 0-1.448.346.346 0 1 1 .524-.454 1.8 1.8 0 0 1 0 2.356 1.108 1.108 0 0 0 0 1.449.345.345 0 0 1-.261.573z" class="cls-1" data-name="Trazado 5300" transform="translate(-4.537 -3.413)"/>
            </g>
        </g>
    </g>
</svg>
