<svg xmlns="http://www.w3.org/2000/svg" width="59.735" height="59.768" viewBox="0 0 59.735 59.768">
    <defs>
        <style>
            .cls-1{fill:#4f1a0f}
        </style>
    </defs>
    <g id="Componente_9_1" data-name="Componente 9 – 1">
        <path id="Trazado_5302" d="M56.066 41.986a4.981 4.981 0 0 0-4.917-5.693v-4.981h1a1.991 1.991 0 0 0 1.991-1.991 18.913 18.913 0 0 0-18.91-18.91h-9.963A18.914 18.914 0 0 0 6.356 29.322a1.991 1.991 0 0 0 1.991 1.994h1V36.3a4.981 4.981 0 0 0-1.99 9.536v2.409A10.949 10.949 0 0 0 18.3 59.192h16.486A14.932 14.932 0 1 0 56.068 42zM8.344 29.324A16.922 16.922 0 0 1 25.268 12.4h9.953a16.922 16.922 0 0 1 16.923 16.925zM49.158 33.8v2.491H11.337V33.8zm0-3.469v2.491H11.337v-2.487zM7.941 43.9a2.986 2.986 0 0 1-1.586-2.633 2.986 2.986 0 0 1 2.986-2.986h41.808a2.987 2.987 0 0 1 2.986 2.857 14.871 14.871 0 0 0-16.524 4.625 3.29 3.29 0 0 1-.637-.537.994.994 0 0 0-1.493 0 2.987 2.987 0 0 1-4.479 0 .994.994 0 0 0-1.493 0 2.989 2.989 0 0 1-4.481 0 .994.994 0 0 0-1.493 0 2.987 2.987 0 0 1-4.479 0 .994.994 0 0 0-1.493 0 2.986 2.986 0 0 1-5.046-1 1 1 0 0 0-1.5-.5 2.986 2.986 0 0 1-3.071.167zm26.435 13.3H18.3a8.96 8.96 0 0 1-8.959-8.959v-1.994a5.133 5.133 0 0 0 1.772-.319 4.981 4.981 0 0 0 7.187 1.317 5.108 5.108 0 0 0 5.974 0 5.107 5.107 0 0 0 5.973 0 4.981 4.981 0 0 0 5.973 0l.237.149a14.687 14.687 0 0 0-2.079 9.8zm23.933 7.159a12.94 12.94 0 0 1-9.151 3.8 12.941 12.941 0 1 1 9.151-3.8z" class="cls-1" data-name="Trazado 5302" transform="translate(-4.385 -10.41)"/>
        <g id="meat" transform="translate(33.511 -20.301)">
            <g id="Grupo_549" data-name="Grupo 549" transform="translate(0 56.043)">
                <g id="Grupo_548" data-name="Grupo 548">
                    <path id="Trazado_5290" d="M21.68 59.266a12.672 12.672 0 0 0-4.533-2.1 38.917 38.917 0 0 0-9.511-1.128A7.645 7.645 0 0 0 0 63.679v3.235a7.645 7.645 0 0 0 7.636 7.636 12.13 12.13 0 0 0 4.943-1.25 13.464 13.464 0 0 1 5.569-1.354 5.553 5.553 0 0 0 5.546-5.546v-3.238a4.849 4.849 0 0 0-2.014-3.896zm-.39 7.911a.463.463 0 0 0 .654.02 5.559 5.559 0 0 0 .825-.979v.182a4.626 4.626 0 0 1-4.621 4.621 14.229 14.229 0 0 0-5.925 1.426 11.4 11.4 0 0 1-4.587 1.181 6.719 6.719 0 0 1-6.7-6.279 7.642 7.642 0 0 0 6.7 3.969 12.13 12.13 0 0 0 4.943-1.252 13.464 13.464 0 0 1 5.569-1.354c.172 0 .347-.008.518-.024a.463.463 0 1 0-.086-.921c-.143.013-.288.02-.432.02a14.229 14.229 0 0 0-5.925 1.426 11.4 11.4 0 0 1-4.587 1.181 6.71 6.71 0 1 1 0-13.421 37.962 37.962 0 0 1 9.264 1.09c3.893 1.069 5.867 2.785 5.867 5.1a4.638 4.638 0 0 1-1.459 3.361.463.463 0 0 0-.018.654z" class="cls-1" data-name="Trazado 5290" transform="translate(0 -56.043)"/>
                </g>
            </g>
            <g id="Grupo_551" data-name="Grupo 551" transform="translate(20.027 67.207)">
                <g id="Grupo_550" data-name="Grupo 550">
                    <path id="Trazado_5291" d="M433.632 297.546a.463.463 0 0 0-.616-.222l-.011.005a.463.463 0 1 0 .627.216z" class="cls-1" data-name="Trazado 5291" transform="translate(-432.75 -297.281)"/>
                </g>
            </g>
            <g id="Grupo_553" data-name="Grupo 553" transform="translate(10.453 58.021)">
                <g id="Grupo_552" data-name="Grupo 552">
                    <path id="Trazado_5292" d="M226.4 98.792h-.024a.463.463 0 0 0-.074.923h.061a.463.463 0 0 0 .036-.924z" class="cls-1" data-name="Trazado 5292" transform="translate(-225.877 -98.789)"/>
                </g>
            </g>
            <g id="Grupo_555" data-name="Grupo 555" transform="translate(1.851 57.894)">
                <g id="Grupo_554" data-name="Grupo 554">
                    <path id="Trazado_5293" d="M59.7 100.063a5.611 5.611 0 0 0-3.036-2.33 19.8 19.8 0 0 0-3.564-1.027 31.61 31.61 0 0 0-1.742-.291.463.463 0 1 0-.128.917 30.9 30.9 0 0 1 1.692.283c3.179.623 5.35 1.668 5.956 2.866a1.794 1.794 0 0 1 .189.829 2.773 2.773 0 0 1-2.77 2.77 14.148 14.148 0 0 0-4.584.772 30.14 30.14 0 0 0-1.931.75c-.412.171-.838.348-1.261.508a7.443 7.443 0 0 1-2.736.577 4.859 4.859 0 1 1 0-9.719c.523 0 1.053.01 1.577.029l.267.011a.463.463 0 0 0 .041-.925l-.273-.011c-.535-.02-1.077-.03-1.612-.03a5.785 5.785 0 1 0 0 11.57 8.3 8.3 0 0 0 3.064-.637c.436-.165.869-.345 1.288-.519a29.02 29.02 0 0 1 1.872-.727 13.237 13.237 0 0 1 4.289-.723 3.7 3.7 0 0 0 3.7-3.7 2.7 2.7 0 0 0-.298-1.243z" class="cls-1" data-name="Trazado 5293" transform="translate(-39.998 -96.042)"/>
                </g>
            </g>
            <g id="Grupo_557" data-name="Grupo 557" transform="translate(5.733 59.735)">
                <g id="Grupo_556" data-name="Grupo 556">
                    <path id="Trazado_5294" d="M126.223 135.82a2.138 2.138 0 1 0 2.346 2.128 2.248 2.248 0 0 0-2.346-2.128zm0 3.33a1.219 1.219 0 1 1 1.421-1.2 1.327 1.327 0 0 1-1.421 1.2z" class="cls-1" data-name="Trazado 5294" transform="translate(-123.877 -135.82)"/>
                </g>
            </g>
        </g>
    </g>
</svg>
