<svg xmlns="http://www.w3.org/2000/svg" width="54.267" height="54.099" viewBox="0 0 54.267 54.099">
    <defs>
        <style>
            .cls-1{fill:#4f1a0f}
        </style>
    </defs>
    <g id="fried-egg" transform="translate(0 -.5)">
        <path id="Trazado_5286" d="M235.951 211.55a7.346 7.346 0 0 0-2.916 5.885.8.8 0 0 0 1.592 0 5.765 5.765 0 0 1 2.289-4.619.8.8 0 1 0-.965-1.266zm0 0" class="cls-1" data-name="Trazado 5286" transform="translate(-208.336 -188.535)"/>
        <path id="Trazado_5287" d="M155.991 121.439c-.551-.43-1.12-.874-1.662-1.346a.8.8 0 0 0-1.045 1.2c.574.5 1.161.957 1.727 1.4 3.147 2.456 5.865 4.577 5.865 12.835a20.04 20.04 0 0 1-2.994 10.4 13.566 13.566 0 0 1-8.188 6.248c-2.841.673-4.765 2.322-6.625 3.918-2.193 1.881-4.265 3.658-7.734 3.658-5.54 0-9.043-2.869-12.9-7.5a.8.8 0 0 0-1.223 1.019c3.252 3.9 7.293 8.07 14.121 8.07 4.058 0 6.454-2.055 8.771-4.042 1.795-1.539 3.49-2.993 5.955-3.577 8.059-1.908 12.407-10.8 12.407-18.194 0-9.035-3.293-11.6-6.477-14.09zm0 0" class="cls-1" data-name="Trazado 5287" transform="translate(-108.201 -106.743)"/>
        <path id="Trazado_5288" d="M10.644 41.091a14.133 14.133 0 0 0-4.017-3.112c-2.7-1.59-5.035-2.964-5.035-9.193a11.461 11.461 0 0 1 2.679-7.819 22.561 22.561 0 0 1 5.715-4.344 24.661 24.661 0 0 0 3.848-2.65 13.608 13.608 0 0 0 3.207-5.251c1.471-3.557 2.741-6.63 10.091-6.63 7.916 0 10.472 3.351 13.707 7.593a85.86 85.86 0 0 0 1.569 2.016.8.8 0 1 0 1.238-1 85.481 85.481 0 0 1-1.541-1.98C38.882 4.492 35.837.5 27.133.5c-3.739 0-6.465.787-8.334 2.408a12.9 12.9 0 0 0-3.229 5.206 12.2 12.2 0 0 1-2.808 4.686 23.581 23.581 0 0 1-3.6 2.464C5.081 17.722 0 20.786 0 28.786c0 7.14 2.959 8.881 5.82 10.565a12.691 12.691 0 0 1 3.6 2.76c.361.433.744.9 1.242 1.519a.8.8 0 0 0 1.24-1c-.5-.625-.892-1.1-1.259-1.54zm0 0" class="cls-1" data-name="Trazado 5288"/>
        <path id="Trazado_5289" d="M210.15 164.8a10.986 10.986 0 1 0 10.986 10.986A11 11 0 0 0 210.15 164.8zm0 20.38a9.394 9.394 0 1 1 9.394-9.394 9.4 9.4 0 0 1-9.394 9.395zm0 0" class="cls-1" data-name="Trazado 5289" transform="translate(-178.055 -146.887)"/>
    </g>
</svg>
