<svg xmlns="http://www.w3.org/2000/svg" width="41.021" height="53.446" viewBox="0 0 41.021 53.446">
    <defs>
        <style>
            .cls-1{fill:#4f1a0f}
        </style>
    </defs>
    <g id="fried-potatoes">
        <path id="Trazado_5303" d="M119.759 276.27a8.943 8.943 0 1 0 8.943 8.943 8.953 8.953 0 0 0-8.943-8.943zm0 16.32a7.377 7.377 0 1 1 7.378-7.377 7.385 7.385 0 0 1-7.378 7.377zm0 0" class="cls-1" data-name="Trazado 5303" transform="translate(-99.248 -247.431)"/>
        <path id="Trazado_5304" d="M39.245 17.513h-.061l1.787-8.648a2.3 2.3 0 0 0-.358-1.8 2.041 2.041 0 0 0-1.413-.85l-3.015-.4a2.113 2.113 0 0 0-.671.02l.027-.225a2.351 2.351 0 0 0-.515-1.784 2.081 2.081 0 0 0-1.488-.751l-2.229-.125a2.43 2.43 0 0 0-.474-1.759A2.129 2.129 0 0 0 29.38.363L26.269.014A2.156 2.156 0 0 0 24.661.5a2.467 2.467 0 0 0-.884 1.673L23.493 5.1a2.217 2.217 0 0 0-.254-.312 2.14 2.14 0 0 0-1.539-.654h-3.087a2.113 2.113 0 0 0-1.145.338l-.222-2.3A2.466 2.466 0 0 0 16.361.5a2.156 2.156 0 0 0-1.608-.486l-3.111.349a2.129 2.129 0 0 0-1.454.827 2.43 2.43 0 0 0-.474 1.76l-2.232.128a2.081 2.081 0 0 0-1.488.751 2.351 2.351 0 0 0-.515 1.784l.027.225a2.113 2.113 0 0 0-.671-.02l-3.015.4a2.042 2.042 0 0 0-1.409.852 2.3 2.3 0 0 0-.358 1.8l1.787 8.648h-.063a1.776 1.776 0 0 0-1.75 2.072l5.582 32.382a1.773 1.773 0 0 0 1.75 1.474h26.3a1.772 1.772 0 0 0 1.75-1.474L41 19.59a1.776 1.776 0 0 0-1.75-2.078zm-3.956-9.732a.72.72 0 0 1 .694-.412l3.015.4a.486.486 0 0 1 .338.207.735.735 0 0 1 .1.574l-1.852 8.964h-1.143l.762-6.019a2.174 2.174 0 0 0-.476-1.668 2.033 2.033 0 0 0-1.471-.732l-.121-.006zm-1.068 2.828l.955.049a.479.479 0 0 1 .351.172.6.6 0 0 1 .124.466l-.787 6.217h-3.659l.423-2.472a2.093 2.093 0 0 0-.285-1.462l.186-2.414a.74.74 0 0 1 .326-.558.6.6 0 0 1 .362-.1l2 .1zm-3.887-6.145h.031l3.086.176a.529.529 0 0 1 .378.194.783.783 0 0 1 .159.594l-.24 2.044-.18 1.534-1.268-.063a2.262 2.262 0 0 0-2.33 2.1l-.12 1.551-.732-.115.5-7.242a.789.789 0 0 1 .716-.774zm-.249 10.313l-.485 2.815a1.771 1.771 0 0 0-1.13 1.066 8.519 8.519 0 0 1-3.08 3.936c-.15.105-.3.2-.46.3l1.259-8.73a.545.545 0 0 1 .624-.46l1.335.21 1.479.233a.545.545 0 0 1 .452.63zm-6.5 5.656l1.75-18.114a.893.893 0 0 1 .312-.608.6.6 0 0 1 .448-.141l3.111.349a.571.571 0 0 1 .389.229.862.862 0 0 1 .155.65l-.027.188-.039.014-.049.017c-.049.017-.1.035-.145.055l-.037.016a2.212 2.212 0 0 0-.268.142l-.023.014a2.752 2.752 0 0 0-.157.109l-.013.01a2.49 2.49 0 0 0-.08.064l-.017.015a2.48 2.48 0 0 0-.13.121l-.031.032c-.021.022-.043.044-.063.068l-.066.077-.058.074-.042.058-.053.078c-.02.03-.039.061-.057.092l-.033.058c-.02.035-.038.071-.056.107l-.024.052a3.783 3.783 0 0 0-.049.112l-.018.046c-.018.047-.035.1-.05.144 0 .012-.007.024-.01.036-.013.044-.025.09-.036.136 0 .01 0 .02-.007.03a2.173 2.173 0 0 0-.03.161l-.005.037a2.354 2.354 0 0 0-.018.171l-.493 7.106-.5-.079a2.11 2.11 0 0 0-2.417 1.784l-1.077 7.471zM18.2 5.884a.578.578 0 0 1 .418-.184H21.7a.582.582 0 0 1 .419.185.81.81 0 0 1 .219.584l-.307 13.541-.305-5.85a2.377 2.377 0 0 0-.718-1.593 2.16 2.16 0 0 0-1.629-.621l-1.257.066-.027-1.028-.115-4.52a.806.806 0 0 1 .217-.583zm1.265 7.627a.628.628 0 0 1 .458.183.815.815 0 0 1 .243.548l.516 9.885h-.167a8.482 8.482 0 0 1-3.767-.875l-.889-8.824a.751.751 0 0 1 .163-.565.54.54 0 0 1 .385-.194zM11.427 2.147a.571.571 0 0 1 .39-.229l3.111-.349a.6.6 0 0 1 .448.141.893.893 0 0 1 .312.608l.842 8.734.027 1.043-.236.012a2.1 2.1 0 0 0-1.491.738 2.324 2.324 0 0 0-.533 1.741l.431 4.272-.971-2.327-.791-11.4c0-.057-.011-.114-.018-.17 0-.013 0-.025-.005-.038a2.855 2.855 0 0 0-.03-.161l-.007-.027a2.186 2.186 0 0 0-.037-.139l-.01-.033c-.015-.05-.033-.1-.051-.148l-.015-.039a1.776 1.776 0 0 0-.055-.126c0-.008-.007-.016-.011-.024a1.859 1.859 0 0 0-.07-.133l-.024-.043a3.729 3.729 0 0 0-.077-.124l-.023-.033-.07-.1-.03-.039a2.38 2.38 0 0 0-.092-.108l-.033-.035-.084-.085-.024-.021c-.035-.033-.072-.064-.109-.1l-.035-.028a2.453 2.453 0 0 0-.119-.089l-.015-.01a2.236 2.236 0 0 0-.121-.077l-.026-.015a1.85 1.85 0 0 0-.139-.074l-.016-.008a2.178 2.178 0 0 0-.311-.12h-.005l-.028-.19a.863.863 0 0 1 .155-.65zM7.192 4.834a.525.525 0 0 1 .378-.194l3.088-.177h.013a.786.786 0 0 1 .732.774l.471 6.784-.389-.931a2.377 2.377 0 0 0-1.213-1.258 2.758 2.758 0 0 0-.206-.082h-.012a2.624 2.624 0 0 0-.2-.057h-.02a2.198 2.198 0 0 0-.2-.035h-.025a1.846 1.846 0 0 0-.2-.014h-.248c-.044 0-.088.011-.132.018-.027 0-.055.007-.082.012-.048.01-.1.022-.143.035l-.068.017a2.157 2.157 0 0 0-.206.074l-.937.392-.141-1.2-.419-3.563a.785.785 0 0 1 .159-.595zm-.883 7.588l.464-.194.466-.195 1.9-.793a.624.624 0 0 1 .493.018.82.82 0 0 1 .414.435l3.9 9.342a8.5 8.5 0 0 1-1.39-2.378 1.768 1.768 0 0 0-1.66-1.146H8.04l-1.992-4.189a.752.752 0 0 1-.036-.587.58.58 0 0 1 .065-.124.522.522 0 0 1 .232-.188zM1.585 8.548a.735.735 0 0 1 .1-.574.487.487 0 0 1 .338-.207l3.015-.4a.724.724 0 0 1 .694.413L5.9 9.187l.192 1.63-.385.161a2.093 2.093 0 0 0-1.155 1.2 2.321 2.321 0 0 0 .084 1.818l1.672 3.519H3.437zm37.868 10.776L36.98 33.668h-5.12a.783.783 0 1 0 0 1.566h4.85l-.81 4.722h-3.937a.783.783 0 1 0 0 1.566h3.663l-1.755 10.184a.21.21 0 0 1-.208.175H7.359a.21.21 0 0 1-.208-.175L5.4 41.522h3.659a.783.783 0 0 0 0-1.566H5.126l-.814-4.723h4.874a.783.783 0 1 0 0-1.566H4.042L1.569 19.324a.211.211 0 0 1 .208-.246h9.113a.213.213 0 0 1 .2.141 10.1 10.1 0 0 0 9.421 6.481c.107 0 .215 0 .324-.006l.154-.006.135-.008a10.071 10.071 0 0 0 1.409-.184 10.1 10.1 0 0 0 7.4-6.272.214.214 0 0 1 .2-.141h9.113a.21.21 0 0 1 .207.246zm0 0" class="cls-1" data-name="Trazado 5304"/>
    </g>
</svg>
