<svg xmlns="http://www.w3.org/2000/svg" width="124" height="124" viewBox="0 0 124 124">
    <defs>
        <style>
            .cls-1{fill:#f7b32c}.cls-2,.cls-3{fill:#4f1a0f}.cls-3{font-size:15px;font-family:Roboto-Bold,Roboto;font-weight:700}.cls-4{filter:url(#Elipse_62)}
        </style>
        <filter id="Elipse_62" width="124" height="124" x="0" y="0" filterUnits="userSpaceOnUse">
            <feOffset dy="3"/>
            <feGaussianBlur result="blur" stdDeviation="3"/>
            <feFlood flood-opacity=".161"/>
            <feComposite in2="blur" operator="in"/>
            <feComposite in="SourceGraphic"/>
        </filter>
    </defs>
    <g id="Componente_14_1" data-name="Componente 14 – 1" transform="translate(9 6)">
        <g class="cls-4" transform="translate(-9 -6)">
            <circle id="Elipse_62-2" cx="53" cy="53" r="53" class="cls-1" data-name="Elipse 62" transform="translate(9 6)"/>
        </g>
        <g id="Grupo_588" data-name="Grupo 588" transform="translate(29.024 22.46)">
            <g id="fork" transform="translate(2.432)">
                <path id="Trazado_4701" d="M82.259 22.407l2.419-.153h.013a5.7 5.7 0 0 0 4.246-2.479l1.913-2.806a11.323 11.323 0 0 0 1.815-8.308 2.555 2.555 0 0 0-2.4-2.125 11.32 11.32 0 0 0-8.03 2.8l-2.557 2.235a5.7 5.7 0 0 0-1.952 4.513v.013l.138 2.42a3.406 3.406 0 0 1-.947 2.552L56.949 41.585a2.9 2.9 0 0 0-.777 2.154 3.336 3.336 0 0 0 3.381 3.243q.133 0 .265-.011a2.9 2.9 0 0 0 2.048-1.033l17.972-22.283a3.407 3.407 0 0 1 2.421-1.248zm-3.381.471L60.909 45.16a1.68 1.68 0 0 1-1.189.581 2.108 2.108 0 0 1-2.315-2.052 1.677 1.677 0 0 1 .431-1.247l19.972-20.516a4.645 4.645 0 0 0 1.292-3.481l-.138-2.414a4.468 4.468 0 0 1 1.532-3.531l2.557-2.235a10.1 10.1 0 0 1 7.159-2.496 1.321 1.321 0 0 1 1.239 1.1 10.094 10.094 0 0 1-1.618 7.406l-1.913 2.806a4.468 4.468 0 0 1-3.324 1.943l-2.413.153a4.647 4.647 0 0 0-3.3 1.7zm0 0" class="cls-2" data-name="Trazado 4701" transform="translate(-51.652 -6.038)"/>
                <path id="Trazado_4702" d="M306.427 299.258l-13.392-12.2a.617.617 0 1 0-.831.913l13.388 12.195a1.68 1.68 0 0 1 .509 1.221 2.109 2.109 0 0 1-2.187 2.187 1.679 1.679 0 0 1-1.218-.505l-11.933-13.1a.617.617 0 1 0-.913.831l11.936 13.1a2.9 2.9 0 0 0 2.1.905h.065a3.341 3.341 0 0 0 3.381-3.447 2.9 2.9 0 0 0-.905-2.1zm0 0" class="cls-2" data-name="Trazado 4702" transform="translate(-266.391 -263.867)"/>
                <path id="Trazado_4703" d="M7.448 16.751a5.716 5.716 0 0 0 3.737 1.511h.015l2.424.008a3.4 3.4 0 0 1 2.491 1.1l1.068 1.172a.617.617 0 1 0 .913-.831l-1.069-1.174a4.644 4.644 0 0 0-3.4-1.5l-2.417-.008a4.485 4.485 0 0 1-2.9-1.159L1.288 7.518A.213.213 0 0 1 1.6 7.23L8 13.625a1.623 1.623 0 0 0 2.293 0l.751-.751 1.334-1.334.751-.751a1.623 1.623 0 0 0 0-2.293L6.731 2.1a.213.213 0 0 1 .288-.314l8.351 7.025a4.483 4.483 0 0 1 1.159 2.9l.007 2.418a4.648 4.648 0 0 0 1.5 3.4l1.144 1.042a.617.617 0 1 0 .831-.913l-1.142-1.04a3.407 3.407 0 0 1-1.1-2.492l-.005-2.426v-.013a5.716 5.716 0 0 0-1.511-3.737.617.617 0 0 0-.057-.054L7.814.842a1.447 1.447 0 0 0-1.955 2.131l6.394 6.394a.387.387 0 0 1 0 .547l-.315.315L4.811 3.1a.617.617 0 1 0-.873.873l7.127 7.127-.462.461-7.126-7.124a.617.617 0 0 0-.877.873l7.13 7.127-.315.315a.387.387 0 0 1-.547 0L2.474 6.357A1.448 1.448 0 0 0 .343 8.313l7.051 8.381a.574.574 0 0 0 .054.057zm0 0" class="cls-2" data-name="Trazado 4703" transform="translate(0 -.499)"/>
            </g>
            <text id="MENU" class="cls-3" transform="translate(2.976 57.54)">
                <tspan x="0" y="0">MENU</tspan>
            </text>
        </g>
    </g>
</svg>
