<svg xmlns="http://www.w3.org/2000/svg" width="54" height="73.717" viewBox="0 0 54 73.717">
    <defs>
        <style>
            .cls-1,.cls-2{fill:#4f1a0f}.cls-1{font-size:18px;font-family:Roboto-Bold,Roboto;font-weight:700}
        </style>
    </defs>
    <g id="Componente_18_3" data-name="Componente 18 – 3">
        <text id="Food" class="cls-1" transform="translate(6 68.717)">
            <tspan x="0" y="0">Food</tspan>
        </text>
        <path id="burger" d="M51.294 36.1v-1.986a3.4 3.4 0 0 0-.021-.356 3.874 3.874 0 0 0 .545-.391 3.111 3.111 0 0 0 1.12-2.417 3.342 3.342 0 0 0-.817-2.182 2.615 2.615 0 0 0 .625-1.732 2.668 2.668 0 0 0-1.792-2.456 3.355 3.355 0 0 0 .331-1.457v-.579A2.92 2.92 0 0 0 54 19.638a18.06 18.06 0 0 0-4.131-10.522 21.034 21.034 0 0 0-8.167-6A37.451 37.451 0 0 0 27 .5C19.807.5 13.867 1.891 9.346 4.625a.791.791 0 1 0 .821 1.352C14.437 3.394 20.1 2.084 27 2.081a35.891 35.891 0 0 1 14.077 2.487 19.469 19.469 0 0 1 7.562 5.545 16.343 16.343 0 0 1 3.776 9.525 1.336 1.336 0 0 1-1.336 1.333H2.92a1.336 1.336 0 0 1-1.336-1.333 14.2 14.2 0 0 1 .932-4.507A17.246 17.246 0 0 1 7.307 8.08.791.791 0 1 0 6.252 6.9 18.312 18.312 0 0 0 0 19.638a2.92 2.92 0 0 0 2.715 2.906v.579a3.358 3.358 0 0 0 .337 1.469 2.753 2.753 0 0 0-1.037.66 2.6 2.6 0 0 0-.76 1.885 2.634 2.634 0 0 0 .6 1.632 3.343 3.343 0 0 0-.816 2.181 3.111 3.111 0 0 0 1.12 2.417 3.917 3.917 0 0 0 .581.412 3.384 3.384 0 0 0-.019.335V36.1A2.92 2.92 0 0 0 0 39.007a11.856 11.856 0 0 0 11.855 11.831h30.29A11.856 11.856 0 0 0 54 39.007a2.92 2.92 0 0 0-2.706-2.907zm-.513-3.931a4.538 4.538 0 0 1-3.485.682 5.691 5.691 0 0 1-2.1-.723c-.129-.068-.259-.137-.4-.2L46.6 30.1a1.211 1.211 0 0 1 .858-.359h2.577a2.67 2.67 0 0 0 .724-.1 1.759 1.759 0 0 1 .59 1.311 1.555 1.555 0 0 1-.572 1.22zM4.3 22.553h45.4v.571a1.8 1.8 0 0 1-.78 1.482l-.04.027-.1.063-.036.021a1.745 1.745 0 0 1-.138.066h-.008a1.467 1.467 0 0 1-.161.058l-.019.005q-.069.021-.14.036l-.044.009a2.465 2.465 0 0 1-.124.019l-.047.005a1.893 1.893 0 0 1-.169.009H6.107a1.807 1.807 0 0 1-1.807-1.8zM3.146 26.36a1.153 1.153 0 0 1 .816-.345h.385a3.378 3.378 0 0 0 1.761.493h41.785c.07 0 .14 0 .209-.007h.066c.049 0 .1-.009.145-.015l.071-.009c.062-.009.123-.019.184-.032l.076-.017a2.49 2.49 0 0 0 .124-.03l.094-.026.1-.032.094-.032a3.8 3.8 0 0 0 .16-.063l.094-.043.088-.042.092-.047.1-.058.062-.035h.432a1.059 1.059 0 0 1 .445 2.027 1.124 1.124 0 0 1-.493.116h-2.575a2.806 2.806 0 0 0-1.988.832l-3.211 3.262a2.26 2.26 0 0 1-2.865.285l-.057-.04a1.728 1.728 0 0 1-.146-.113l-4.159-3.557a2.793 2.793 0 0 0-1.813-.669H3.912a1.063 1.063 0 0 1-.471-.111 1.067 1.067 0 0 1-.6-.941 1.036 1.036 0 0 1 .307-.748zm-.519 4.591a1.757 1.757 0 0 1 .585-1.305 2.638 2.638 0 0 0 .7.094h29.307a1.207 1.207 0 0 1 .783.289l3.289 2.813h-.206a3.508 3.508 0 0 1-2.117-.642 5.39 5.39 0 0 0-5.862 0 3.812 3.812 0 0 1-4.234 0 5.39 5.39 0 0 0-5.862 0 3.507 3.507 0 0 1-2.117.642 3.507 3.507 0 0 1-2.117-.642 5.042 5.042 0 0 0-2.931-.867 5.676 5.676 0 0 0-3.066.794 5.684 5.684 0 0 1-2.1.723 4.538 4.538 0 0 1-3.479-.679 1.554 1.554 0 0 1-.572-1.22zm39.518 18.306h-30.29a10.272 10.272 0 0 1-10.27-10.25 1.336 1.336 0 0 1 1.335-1.333h35.515a.791.791 0 1 0 0-1.581H4.309v-1.731a7.018 7.018 0 0 0 1.428.143 8.187 8.187 0 0 0 1.176-.087 7.2 7.2 0 0 0 2.608-.89 4.175 4.175 0 0 1 2.325-.61 3.508 3.508 0 0 1 2.117.642 5.042 5.042 0 0 0 2.931.867 5.041 5.041 0 0 0 2.931-.867 3.812 3.812 0 0 1 4.234 0 5.39 5.39 0 0 0 5.862 0 3.812 3.812 0 0 1 4.234 0 5.457 5.457 0 0 0 4.8.545 3.854 3.854 0 0 0 4.441-.744l.222-.225a6.181 6.181 0 0 1 .845.392 7.206 7.206 0 0 0 2.608.89 8.128 8.128 0 0 0 1.176.087 7 7 0 0 0 1.467-.151v1.74h-7.593a.791.791 0 1 0 0 1.581h8.959a1.336 1.336 0 0 1 1.336 1.333 10.272 10.272 0 0 1-10.271 10.25zm0 0" class="cls-2" transform="translate(0 -.5)"/>
    </g>
</svg>
