<svg id="Camada_1" data-name="Camada 1" xmlns="http://www.w3.org/2000/svg" viewBox="0 0 125 124"><title>icon-kitchen-yellow</title><g id="Componente_15_1" data-name="Componente 15 1"><ellipse id="Elipse_63-2" data-name="Elipse 63-2" cx="62.5" cy="59" rx="53.5" ry="53" style="fill:#f7b32c"/><g id="Grupo_589" data-name="Grupo 589"><path id="serving-dish" d="M87.12,48.73H85.4a20.8,20.8,0,0,0-1.9-7.51.72.72,0,0,0-1-.35.72.72,0,0,0-.36,1A19.43,19.43,0,0,1,84,48.73H50.74a.73.73,0,0,0-.73.72.73.73,0,0,0,.73.73H87.12a.66.66,0,0,1,.66.66v.89a.65.65,0,0,1-.66.66H41.79a.66.66,0,0,1-.67-.66v-.89a.67.67,0,0,1,.67-.66h5.57a.73.73,0,0,0,.72-.73.72.72,0,0,0-.72-.72H45A19.54,19.54,0,0,1,63.15,30.55h0l.58,0h1.38l.4,0h.21A19.54,19.54,0,0,1,80.57,39a.73.73,0,1,0,1.2-.82,21,21,0,0,0-14.34-8.91A3.58,3.58,0,0,0,68,27.36c0-.4-.17-1.12-1.35-1.56a7.24,7.24,0,0,0-4.37,0c-1.18.44-1.35,1.17-1.35,1.56a3.49,3.49,0,0,0,.56,1.91,21,21,0,0,0-18,19.46H41.79a2.12,2.12,0,0,0-2.12,2.12v.88a2.12,2.12,0,0,0,2.12,2.12H49.6a8.08,8.08,0,0,0-1.11.9h0l-.06.07L45,59a2,2,0,0,0-2.73.56l-1.36,2a2,2,0,0,0,.54,2.78l9.26,6.3A2,2,0,0,0,51.8,71a2.43,2.43,0,0,0,.38,0,2,2,0,0,0,1.28-.85l1.36-2a2,2,0,0,0-.54-2.78l-.05,0a4.76,4.76,0,0,1,2.44-1.48,16,16,0,0,1,5.86.1,13.87,13.87,0,0,0,5.91-.31l2.67-.74A13.92,13.92,0,0,0,76,60.41l0,0,4.58-4.06a2.23,2.23,0,0,0,.69-2.47h5.84a2.12,2.12,0,0,0,2.12-2.12v-.88a2.13,2.13,0,0,0-2.12-2.12ZM64.45,26.92a3.4,3.4,0,0,1,2.09.47,2.11,2.11,0,0,1-.92,1.7l-.43,0h-1.9a2.08,2.08,0,0,1-.92-1.7,3.36,3.36,0,0,1,2.08-.47Zm5.2,27.28a1.48,1.48,0,0,0-.19-.35h7l-3,2-4.29,1.24H69a2.47,2.47,0,0,0,.67-2.88Zm-7.86-.35-1,.21-.81-.21ZM53.61,67.3l-1.35,2a.55.55,0,0,1-.76.15h0l-9.26-6.3a.56.56,0,0,1-.15-.77l1.36-2a.55.55,0,0,1,.76-.15h0l.5.34,8.76,6A.55.55,0,0,1,53.61,67.3ZM79.7,55.17l0,0-4.59,4.06a12.21,12.21,0,0,1-4.34,2.2l-2.67.74a12.39,12.39,0,0,1-5.28.28,17.59,17.59,0,0,0-6.43-.08A6.14,6.14,0,0,0,53,64.48l-6.86-4.66,3.33-4a6.8,6.8,0,0,1,4.38-1.93h0a5.23,5.23,0,0,1,1.51.28l.32.08,4.79,1.3a.66.66,0,0,0,.34,0l6.29-1.31a1.08,1.08,0,0,1,.82.16,1.1,1.1,0,0,1,.35.42,1,1,0,0,1-.47,1.31l-2.15,1.13a.74.74,0,0,0-.3,1,.75.75,0,0,0,.66.39l3.18-.07a.63.63,0,0,0,.19,0l4.48-1.3a.72.72,0,0,0,.2-.09l4.52-3c.38-.23.89-.42,1.16,0a.86.86,0,0,1-.1,1.09Z" style="fill:#4f1a0f"/><g style="isolation:isolate"><path d="M35.18,79.7h.47a1.34,1.34,0,0,0,.48-.08.76.76,0,0,0,.32-.25l3-3.79a1.06,1.06,0,0,1,.39-.33,1.35,1.35,0,0,1,.52-.09H42.1l-3.66,4.5a2.94,2.94,0,0,1-.33.36,1.36,1.36,0,0,1-.34.23,1.41,1.41,0,0,1,.45.25,2.68,2.68,0,0,1,.39.42L42.37,86H40.59a1.1,1.1,0,0,1-.54-.1.86.86,0,0,1-.3-.3l-3.06-4a.81.81,0,0,0-.34-.28,1.23,1.23,0,0,0-.53-.09h-.64V86h-2V75.15h2Z" style="fill:#4f1a0f"/><path d="M45.84,86h-2V75.16h2Z" style="fill:#4f1a0f"/><path d="M55.92,75.16v1.65H52.65V86h-2V76.81H47.36V75.16Z" style="fill:#4f1a0f"/><path d="M64.07,83.44a.41.41,0,0,1,.29.13l.79.86a4.22,4.22,0,0,1-1.62,1.25,5.65,5.65,0,0,1-2.32.44A5.56,5.56,0,0,1,59,85.71a4.81,4.81,0,0,1-1.64-1.15,4.9,4.9,0,0,1-1-1.75A6.69,6.69,0,0,1,56,80.58a6,6,0,0,1,.41-2.24,5.1,5.1,0,0,1,1.14-1.75,5.32,5.32,0,0,1,1.76-1.15,6.1,6.1,0,0,1,2.26-.4,5.3,5.3,0,0,1,2.11.38,4.94,4.94,0,0,1,1.55,1l-.67.93a.61.61,0,0,1-.16.16.4.4,0,0,1-.26.07.6.6,0,0,1-.35-.14,4.79,4.79,0,0,0-.46-.29,4,4,0,0,0-.7-.29,4,4,0,0,0-2.48.13,3.06,3.06,0,0,0-1.1.76,3.43,3.43,0,0,0-.72,1.2,4.52,4.52,0,0,0-.26,1.6,4.61,4.61,0,0,0,.26,1.63,3.55,3.55,0,0,0,.7,1.2,3,3,0,0,0,1,.74,3.27,3.27,0,0,0,1.29.26c.27,0,.52,0,.75,0a2.87,2.87,0,0,0,.61-.15,2.35,2.35,0,0,0,.53-.25,2.87,2.87,0,0,0,.5-.38.91.91,0,0,1,.16-.11A.53.53,0,0,1,64.07,83.44Z" style="fill:#4f1a0f"/><path d="M75.82,86h-2V81.26H68.71V86h-2V75.16h2v4.66h5.08V75.16h2Z" style="fill:#4f1a0f"/><path d="M84.85,75.16v1.6H80v3h3.79v1.55H80v3.07h4.81V86H78V75.16Z" style="fill:#4f1a0f"/><path d="M87.88,75.17a.38.38,0,0,1,.16,0,.45.45,0,0,1,.14.1.86.86,0,0,1,.15.17L94,82.73c0-.17,0-.35,0-.51s0-.33,0-.47V75.16h1.78V86h-1a1.1,1.1,0,0,1-.4-.07.94.94,0,0,1-.31-.27l-5.67-7.23c0,.16,0,.32,0,.48s0,.3,0,.43V86H86.6V75.16h1.28Z" style="fill:#4f1a0f"/></g></g></g></svg>