<svg xmlns="http://www.w3.org/2000/svg" width="54.475" height="50.03" viewBox="0 0 54.475 50.03">
    <defs>
        <style>
            .cls-1{fill:#4f1a0f}
        </style>
    </defs>
    <path id="serving-dish" d="M52.151 25.568H50.26a22.839 22.839 0 0 0-2.089-8.259.8.8 0 1 0-1.445.671 21.259 21.259 0 0 1 1.938 7.588h-36.5a.8.8 0 0 0 0 1.593h39.99a.732.732 0 0 1 .731.731v.973a.732.732 0 0 1-.731.731H2.325a.731.731 0 0 1-.731-.731v-.973a.731.731 0 0 1 .731-.731h6.122a.8.8 0 1 0 0-1.593H5.813A21.472 21.472 0 0 1 25.8 5.588h.009q.325-.021.643-.033h.127l.225-.006h.429c.19 0 .381 0 .571.009h.168c.146 0 .292.012.438.02l.232.013a21.489 21.489 0 0 1 16.307 9.287.8.8 0 1 0 1.314-.9A23.085 23.085 0 0 0 30.5 4.18a3.88 3.88 0 0 0 .621-2.1c0-.433-.193-1.231-1.487-1.708a7.988 7.988 0 0 0-4.8 0c-1.294.476-1.487 1.275-1.487 1.708a3.885 3.885 0 0 0 .617 2.1A23.073 23.073 0 0 0 4.216 25.567H2.325A2.328 2.328 0 0 0 0 27.892v.973a2.327 2.327 0 0 0 2.325 2.325h8.584a9.875 9.875 0 0 0-1.224.988l-.016.015a.723.723 0 0 0-.069.074L5.818 36.86a2.2 2.2 0 0 0-3 .622l-1.487 2.195a2.2 2.2 0 0 0 .585 3.056L12.1 49.649a2.186 2.186 0 0 0 1.232.381 2.236 2.236 0 0 0 .419-.04 2.185 2.185 0 0 0 1.408-.927l1.488-2.194a2.2 2.2 0 0 0-.585-3.056L16 43.774a5.152 5.152 0 0 1 2.681-1.618 17.513 17.513 0 0 1 6.443.108 15.222 15.222 0 0 0 6.5-.35l2.934-.811A15.106 15.106 0 0 0 39.9 38.4l.035-.03 5.038-4.462a2.459 2.459 0 0 0 .749-2.717h6.428a2.327 2.327 0 0 0 2.325-2.325v-.973a2.327 2.327 0 0 0-2.325-2.325zM27.238 1.594a3.733 3.733 0 0 1 2.293.517 2.294 2.294 0 0 1-1.015 1.872 38.774 38.774 0 0 0-.465-.021l-.156-.005a20.88 20.88 0 0 0-1.122-.005l-.228.006-.273.01-.313.015a2.294 2.294 0 0 1-1.015-1.871 3.733 3.733 0 0 1 2.293-.517zm5.715 29.98a2.628 2.628 0 0 0-.211-.384h7.644l-3.3 2.187-4.716 1.363h-.16a2.711 2.711 0 0 0 .743-3.166zm-8.641-.384l-1.15.24-.889-.24zm-8.988 14.785l-1.487 2.194a.607.607 0 0 1-.844.162L2.812 41.414a.608.608 0 0 1-.161-.843l1.488-2.194a.606.606 0 0 1 .844-.161l.55.373 9.631 6.543a.608.608 0 0 1 .16.843zM44 32.649a.7.7 0 0 0-.055.044L38.9 37.16a13.523 13.523 0 0 1-4.768 2.406l-2.934.811a13.606 13.606 0 0 1-5.81.314 18.973 18.973 0 0 0-7.063-.088 6.769 6.769 0 0 0-3.646 2.271l-7.535-5.117 3.656-4.44a7.5 7.5 0 0 1 4.815-2.128h.032a6.007 6.007 0 0 1 1.653.311l.351.1 5.277 1.423a.8.8 0 0 0 .37.01l6.911-1.441a1.188 1.188 0 0 1 .9.175 1.07 1.07 0 0 1 .38.454 1.115 1.115 0 0 1-.516 1.441l-2.358 1.249a.8.8 0 0 0 .39 1.5l3.5-.076a.8.8 0 0 0 .2-.031l4.928-1.426a.8.8 0 0 0 .219-.1l4.972-3.291c.417-.258.973-.47 1.268-.034a.949.949 0 0 1-.1 1.2zm0 0" class="cls-1"/>
</svg>
