<svg xmlns="http://www.w3.org/2000/svg" width="65" height="60.717" viewBox="0 0 65 60.717">
    <defs>
        <style>
            .cls-1{fill:#4f1a0f}
        </style>
    </defs>
    <path id="burger" d="M61.742 43.442v-2.4a4.115 4.115 0 0 0-.025-.429 4.663 4.663 0 0 0 .656-.471 3.756 3.756 0 0 0 1.348-2.915 4.036 4.036 0 0 0-.983-2.632 3.158 3.158 0 0 0 .752-2.089 3.218 3.218 0 0 0-2.157-2.962 4.054 4.054 0 0 0 .4-1.758v-.7A3.519 3.519 0 0 0 65 23.584a21.812 21.812 0 0 0-4.973-12.691A25.323 25.323 0 0 0 50.2 3.654 45 45 0 0 0 32.5.5c-8.658 0-15.808 1.677-21.25 4.975a.953.953 0 1 0 .988 1.631C17.378 3.991 24.2 2.41 32.5 2.407a43.123 43.123 0 0 1 16.945 3 23.438 23.438 0 0 1 9.1 6.689 19.738 19.738 0 0 1 4.546 11.489 1.609 1.609 0 0 1-1.608 1.608H3.515a1.609 1.609 0 0 1-1.608-1.608 17.154 17.154 0 0 1 1.122-5.436A20.8 20.8 0 0 1 8.8 9.643.954.954 0 1 0 7.525 8.22 22.109 22.109 0 0 0 0 23.584a3.519 3.519 0 0 0 3.269 3.506v.7a4.057 4.057 0 0 0 .405 1.771 3.313 3.313 0 0 0-1.249.8 3.144 3.144 0 0 0-.915 2.269 3.181 3.181 0 0 0 .726 1.97 4.037 4.037 0 0 0-.982 2.63A3.755 3.755 0 0 0 2.6 40.144a4.715 4.715 0 0 0 .7.5 4.159 4.159 0 0 0-.022.4v2.4A3.52 3.52 0 0 0 0 46.947a14.286 14.286 0 0 0 14.27 14.27h36.46A14.286 14.286 0 0 0 65 46.947a3.519 3.519 0 0 0-3.258-3.5zm-.616-4.742a5.453 5.453 0 0 1-4.2.823 6.841 6.841 0 0 1-2.524-.872 19.06 19.06 0 0 0-.476-.246L56.1 36.2a1.456 1.456 0 0 1 1.033-.433h3.1a3.208 3.208 0 0 0 .872-.12 2.123 2.123 0 0 1 .711 1.581 1.878 1.878 0 0 1-.689 1.471zM5.176 27.1h54.648v.689a2.173 2.173 0 0 1-.939 1.788l-.049.032a2.29 2.29 0 0 1-.124.076l-.044.025a1.95 1.95 0 0 1-.166.08h-.009a2.11 2.11 0 0 1-.193.07l-.022.006q-.083.025-.168.043l-.053.011c-.049.009-.1.017-.149.023l-.056.006a2.25 2.25 0 0 1-.2.01H7.351a2.178 2.178 0 0 1-2.175-2.175zm-1.39 4.592a1.387 1.387 0 0 1 .982-.416h.463a4.06 4.06 0 0 0 2.12.595h50.3c.085 0 .169 0 .252-.008l.079-.006c.059 0 .117-.011.175-.018l.085-.01c.074-.011.148-.023.221-.038l.092-.021c.05-.011.1-.023.15-.037l.113-.032.12-.038.114-.038c.065-.024.129-.05.193-.076l.114-.052.106-.051.111-.057c.042-.022.083-.046.124-.07l.075-.042h.52a1.278 1.278 0 0 1 .535 2.445 1.351 1.351 0 0 1-.594.14h-3.1a3.374 3.374 0 0 0-2.393 1L50.87 38.8a2.716 2.716 0 0 1-3.449.344l-.069-.048a2.507 2.507 0 0 1-.176-.136l-5.007-4.29a3.358 3.358 0 0 0-2.183-.807H4.709a1.277 1.277 0 0 1-.567-.133 1.287 1.287 0 0 1-.725-1.135 1.251 1.251 0 0 1 .369-.9zm-.625 5.538a2.121 2.121 0 0 1 .7-1.575 3.17 3.17 0 0 0 .844.114h35.281a1.451 1.451 0 0 1 .942.348l3.959 3.393h-.248a4.217 4.217 0 0 1-2.548-.774 6.476 6.476 0 0 0-7.056 0 4.58 4.58 0 0 1-5.1 0 6.476 6.476 0 0 0-7.056 0 4.216 4.216 0 0 1-2.548.774 4.216 4.216 0 0 1-2.548-.774 6.06 6.06 0 0 0-3.528-1.045 6.822 6.822 0 0 0-3.691.958 6.832 6.832 0 0 1-2.523.872A5.453 5.453 0 0 1 3.85 38.7a1.876 1.876 0 0 1-.688-1.472zM50.73 59.31H14.27A12.377 12.377 0 0 1 1.907 46.947a1.609 1.609 0 0 1 1.608-1.608h42.749a.954.954 0 1 0 0-1.907H5.187v-2.088a8.431 8.431 0 0 0 1.719.173 9.835 9.835 0 0 0 1.415-.1 8.661 8.661 0 0 0 3.14-1.074 5.018 5.018 0 0 1 2.8-.736 4.217 4.217 0 0 1 2.548.774 6.06 6.06 0 0 0 3.528 1.045 6.06 6.06 0 0 0 3.528-1.045 4.58 4.58 0 0 1 5.1 0 6.476 6.476 0 0 0 7.056 0 4.58 4.58 0 0 1 5.1 0 6.556 6.556 0 0 0 5.773.658 4.632 4.632 0 0 0 5.346-.9l.267-.271a7.433 7.433 0 0 1 1.017.473 8.662 8.662 0 0 0 3.14 1.073 9.764 9.764 0 0 0 1.415.1 8.415 8.415 0 0 0 1.766-.182v2.1H50.7a.954.954 0 1 0 0 1.907h10.785a1.61 1.61 0 0 1 1.608 1.608A12.378 12.378 0 0 1 50.73 59.31zm0 0" class="cls-1" transform="translate(0 -.5)"/>
</svg>
