<svg xmlns="http://www.w3.org/2000/svg" id="fork" width="45.258" height="45.004" viewBox="0 0 45.258 45.004">
    <defs>
        <style>
            .cls-1{fill:#4f1a0f}
        </style>
    </defs>
    <path id="Trazado_4701" d="M84.846 23.982l2.659-.168h.014a6.261 6.261 0 0 0 4.667-2.724L94.288 18a12.445 12.445 0 0 0 2-9.131 2.808 2.808 0 0 0-2.635-2.336 12.442 12.442 0 0 0-8.826 3.076l-2.81 2.457a6.262 6.262 0 0 0-2.145 4.96v.014l.152 2.66a3.743 3.743 0 0 1-1.041 2.805L57.026 45.061a3.19 3.19 0 0 0-.854 2.368 3.667 3.667 0 0 0 3.716 3.565q.146 0 .292-.012a3.191 3.191 0 0 0 2.251-1.136l19.753-24.493a3.745 3.745 0 0 1 2.661-1.371zm-3.716.518L61.378 48.991a1.847 1.847 0 0 1-1.307.639 2.317 2.317 0 0 1-2.544-2.256A1.844 1.844 0 0 1 58 46l21.953-22.547a5.106 5.106 0 0 0 1.422-3.827l-.152-2.653a4.911 4.911 0 0 1 1.683-3.883l2.81-2.457a11.1 11.1 0 0 1 7.868-2.742A1.452 1.452 0 0 1 94.946 9.1a11.094 11.094 0 0 1-1.779 8.14l-2.1 3.084a4.911 4.911 0 0 1-3.653 2.136l-2.652.168A5.108 5.108 0 0 0 81.13 24.5zm0 0" class="cls-1" data-name="Trazado 4701" transform="translate(-51.204 -5.99)"/>
    <path id="Trazado_4702" d="M308.086 300.484l-14.719-13.407a.678.678 0 1 0-.914 1l14.716 13.4a1.846 1.846 0 0 1 .559 1.342 2.318 2.318 0 0 1-2.4 2.4 1.845 1.845 0 0 1-1.339-.556l-13.116-14.4a.678.678 0 1 0-1 .914l13.119 14.4a3.19 3.19 0 0 0 2.312 1h.071a3.672 3.672 0 0 0 3.716-3.788 3.193 3.193 0 0 0-1.005-2.305zm0 0" class="cls-1" data-name="Trazado 4702" transform="translate(-264.082 -261.584)"/>
    <path id="Trazado_4703" d="M8.186 18.362a6.282 6.282 0 0 0 4.108 1.661h.014l2.664.008a3.742 3.742 0 0 1 2.737 1.207l1.174 1.288a.678.678 0 1 0 1-.914l-1.175-1.29a5.1 5.1 0 0 0-3.734-1.649l-2.657-.008a4.929 4.929 0 0 1-3.184-1.274L1.415 8.214A.234.234 0 0 1 1.76 7.9l7.028 7.028a1.784 1.784 0 0 0 2.52 0l.826-.826 1.466-1.469.826-.826a1.784 1.784 0 0 0 0-2.52L7.4 2.259a.234.234 0 0 1 .317-.345l9.179 7.721a4.927 4.927 0 0 1 1.274 3.184l.008 2.657a5.109 5.109 0 0 0 1.651 3.736l1.258 1.145a.678.678 0 1 0 .914-1l-1.255-1.144a3.745 3.745 0 0 1-1.21-2.739l-.008-2.664v-.015a6.282 6.282 0 0 0-1.661-4.108.678.678 0 0 0-.062-.06L8.589.876a1.591 1.591 0 0 0-2.15 2.342l7.028 7.028a.426.426 0 0 1 0 .6l-.346.346-7.833-7.831a.678.678 0 1 0-.959.959l7.833 7.833-.508.507-7.833-7.832a.678.678 0 0 0-.959.959l7.833 7.833-.346.346a.426.426 0 0 1-.6 0l-7.03-7.028a1.591 1.591 0 0 0-2.342 2.15l7.75 9.212a.631.631 0 0 0 .059.062zm0 0" class="cls-1" data-name="Trazado 4703" transform="translate(0 -.499)"/>
</svg>
