<svg xmlns="http://www.w3.org/2000/svg" width="51.045" height="51.045" viewBox="0 0 51.045 51.045">
    <defs>
        <style>
            .cls-1{fill:#4f1a0f}.cls-2{fill:none;stroke:#707070}
        </style>
    </defs>
    <g id="coffee-cup">
        <g id="Grupo_523" data-name="Grupo 523" transform="translate(0 17.48)">
            <g id="Grupo_522" data-name="Grupo 522">
                <path id="Trazado_5257" d="M50.048 178.44h-8.175v-2.11a1 1 0 0 0-1-1H19.341a1 1 0 1 0 0 1.994h20.538v7.643a19 19 0 0 1-9.373 16.35H11.367a19 19 0 0 1-9.373-16.35v-7.643h6.68a1 1 0 1 0 0-1.994H1a1 1 0 0 0-1 1v8.64a20.9 20.9 0 0 0 7.862 16.35H1a1 1 0 0 0-1 1 6.587 6.587 0 0 0 6.58 6.58h31.106a6.587 6.587 0 0 0 6.58-6.58 1 1 0 0 0-1-1h-9.255a21.057 21.057 0 0 0 4.616-5.151h2.814a9.615 9.615 0 0 0 9.6-9.6v-7.128a1 1 0 0 0-.993-1.001zm-7.886 24.875a4.594 4.594 0 0 1-4.477 3.589H6.58a4.594 4.594 0 0 1-4.48-3.589h40.063zm-.29-18.344v-.548h3.19v2.143a3.626 3.626 0 0 1-3.622 3.622h-.226a20.987 20.987 0 0 0 .659-5.218zm7.178 1.6a7.619 7.619 0 0 1-7.61 7.61h-1.7a20.817 20.817 0 0 0 .851-1.994h.846a5.623 5.623 0 0 0 5.616-5.616v-3.14a1 1 0 0 0-1-1h-4.18v-1.994h7.178z" class="cls-1" data-name="Trazado 5257" transform="translate(0 -175.333)"/>
            </g>
        </g>
        <g id="Grupo_525" data-name="Grupo 525" transform="translate(18.801)">
            <g id="Grupo_524" data-name="Grupo 524">
                <path id="Trazado_5258" d="M191.672 5.517l-.519-.651a2.6 2.6 0 0 1 0-3.249 1 1 0 0 0-1.562-1.24 4.584 4.584 0 0 0 0 5.731l.519.651a3.4 3.4 0 0 1 0 4.247l-.532.67a1 1 0 1 0 1.562 1.24l.532-.67a5.381 5.381 0 0 0 0-6.729z" class="cls-1" data-name="Trazado 5258" transform="translate(-188.585)"/>
            </g>
        </g>
        <g id="Grupo_527" data-name="Grupo 527" transform="translate(24.328 2.241)">
            <g id="Grupo_526" data-name="Grupo 526">
                <path id="Trazado_5259" d="M247.1 28l-.519-.651a2.6 2.6 0 0 1 0-3.25 1 1 0 0 0-1.562-1.24 4.584 4.584 0 0 0 0 5.731l.519.651a3.4 3.4 0 0 1 0 4.247l-.531.67a1 1 0 1 0 1.562 1.239l.531-.67a5.381 5.381 0 0 0 0-6.727z" class="cls-1" data-name="Trazado 5259" transform="translate(-244.014 -22.484)"/>
            </g>
        </g>
        <g id="Grupo_529" data-name="Grupo 529" transform="translate(13.275 2.241)">
            <g id="Grupo_528" data-name="Grupo 528">
                <path id="Trazado_5260" d="M136.243 28l-.519-.651a2.6 2.6 0 0 1 0-3.25 1 1 0 1 0-1.562-1.24 4.584 4.584 0 0 0 0 5.731l.519.651a3.4 3.4 0 0 1 0 4.247l-.532.67a1 1 0 1 0 1.562 1.24l.532-.67a5.382 5.382 0 0 0 0-6.728z" class="cls-1" data-name="Trazado 5260" transform="translate(-133.156 -22.485)"/>
            </g>
        </g>
        <g id="Grupo_531" data-name="Grupo 531" transform="translate(13.281 17.48)">
            <g id="Grupo_530" data-name="Grupo 530">
                <path id="Trazado_5261" d="M134.912 175.622a1 1 0 1 0 .292.7 1 1 0 0 0-.292-.7z" class="cls-1" data-name="Trazado 5261" transform="translate(-133.21 -175.33)"/>
            </g>
        </g>
        <g id="Grupo_533" data-name="Grupo 533" transform="translate(30.686 26.12)">
            <g id="Grupo_532" data-name="Grupo 532">
                <path id="Trazado_5262" d="M313.2 262a1 1 0 0 0-1 1 14.284 14.284 0 0 1-4.118 9.978 1 1 0 1 0 1.416 1.4A16.293 16.293 0 0 0 314.2 263a1 1 0 0 0-1-1z" class="cls-1" data-name="Trazado 5262" transform="translate(-307.795 -262)"/>
            </g>
        </g>
        <g id="Grupo_535" data-name="Grupo 535" transform="translate(27.411 39.294)">
            <g id="Grupo_534" data-name="Grupo 534">
                <path id="Trazado_5263" d="M276.833 394.644a1 1 0 0 0-1.358-.379l-.023.013a1 1 0 1 0 .98 1.737l.023-.013a1 1 0 0 0 .378-1.358z" class="cls-1" data-name="Trazado 5263" transform="translate(-274.945 -394.136)"/>
            </g>
        </g>
    </g>
</svg>
