<svg xmlns="http://www.w3.org/2000/svg" width="41" height="50.448" viewBox="0 0 41 50.448">
    <defs>
        <style>
            .cls-1{fill:#4f1a0f}
        </style>
    </defs>
    <g id="coffee" transform="translate(-.5)">
        <path id="Trazado_4679" d="M39.536 4.557h-2.453l-.681-3.3A1.578 1.578 0 0 0 34.863 0H7.137A1.577 1.577 0 0 0 5.6 1.254l-.682 3.3H2.464A1.966 1.966 0 0 0 .5 6.522v3.247a1.967 1.967 0 0 0 1.964 1.964h.964l.546 3.838a1.723 1.723 0 0 0-.85 1.74L6.77 42.928a1.737 1.737 0 0 0 1.3 1.433l.519 3.647a2.854 2.854 0 0 0 2.812 2.44H30.6a2.854 2.854 0 0 0 2.812-2.44l.519-3.647a1.737 1.737 0 0 0 1.3-1.433l3.646-25.617a1.722 1.722 0 0 0-.85-1.74l.547-3.838h.964A1.967 1.967 0 0 0 41.5 9.769V6.522a1.967 1.967 0 0 0-1.964-1.964zM37.411 17.1l-3.646 25.62a.249.249 0 0 1-.245.213h-7.079a.74.74 0 0 0 0 1.48h5.986l-.483 3.387a1.367 1.367 0 0 1-1.344 1.169H11.4a1.367 1.367 0 0 1-1.345-1.169l-.482-3.388H23a.74.74 0 1 0 0-1.48H8.48a.249.249 0 0 1-.245-.213L4.589 17.1a.245.245 0 0 1 .058-.2.248.248 0 0 1 .174-.084h32.36a.248.248 0 0 1 .174.084.245.245 0 0 1 .058.2zM4.922 11.733h32.156l-.513 3.608H5.436zm35.1-1.964a.485.485 0 0 1-.485.485H2.464a.486.486 0 0 1-.485-.485V6.521a.486.486 0 0 1 .485-.485h6.619a.74.74 0 0 0 0-1.479H6.427l.62-3a.093.093 0 0 1 .09-.074h27.726a.093.093 0 0 1 .09.074l.62 3H12.525a.74.74 0 1 0 0 1.479h27.011a.485.485 0 0 1 .485.485zm0 0" class="cls-1" data-name="Trazado 4679"/>
        <path id="Trazado_4680" d="M148.846 227.2l-.016-.015c-2.459-2.433-6.938-1.928-10 1.134a8.955 8.955 0 0 0-2.627 5.149 5.711 5.711 0 0 0 1.511 4.87l.006.005a5.516 5.516 0 0 0 3.978 1.561 7.237 7.237 0 0 0 .884-.056 8.96 8.96 0 0 0 5.149-2.627c3.069-3.07 3.57-7.564 1.116-10.019zm-11.174 6.451a7.477 7.477 0 0 1 2.205-4.286 7.256 7.256 0 0 1 4.974-2.253 4.381 4.381 0 0 1 2.1.5 7.949 7.949 0 0 0-3.757 4.34c-.51 1.87-3.279 3.942-4.8 4.9a4.434 4.434 0 0 1-.72-3.206zm9.016 2.525a7.474 7.474 0 0 1-4.286 2.205 4.578 4.578 0 0 1-2.87-.5c1.525-1.007 4.447-3.194 5.086-5.536.522-1.913 2.583-3.2 3.524-3.7 1.464 1.948.874 5.205-1.455 7.534zm0 0" class="cls-1" data-name="Trazado 4680" transform="translate(-122.282 -203.416)"/>
    </g>
</svg>
