<svg xmlns="http://www.w3.org/2000/svg" width="52" height="59.999" viewBox="0 0 52 59.999">
    <defs>
        <style>
            .cls-1{fill:#4f1a0f}
        </style>
    </defs>
    <g id="cherry-juice" transform="translate(-47.907 -15.997)">
        <path id="Trazado_5264" d="M174.077 24l-1.087-7.148a1 1 0 0 0-1.167-.833l-11 2a1 1 0 0 0 .358 1.967l9.985-1.815.887 5.83H167a1 1 0 0 0-.978 1.209l8.915 41.59-4.784 7.655a1 1 0 0 0 .848 1.53h18a1 1 0 0 0 .848-1.53L185.06 66.8l8.316-38.808h.119a3.5 3.5 0 0 0 3.5-3.5 3.335 3.335 0 0 0-.04-.516 3.484 3.484 0 0 0-1.416-5.812 3.977 3.977 0 0 0-7.086 0 3.484 3.484 0 0 0-1.416 5.812v.016zm13.259 2a3.5 3.5 0 0 0 3.161 2 3.435 3.435 0 0 0 .858-.11l-.88 4.109h-15.18l-.912-6zm-14.977 0l.912 6h-3.747l-1.285-6zm10.791 41.516l4.043 6.469H172.8l3.749-6H180a1 1 0 0 0 0-2h-3.191l-6.856-31.993h3.623l4.435 29.143a1 1 0 0 0 1.977-.3L175.6 33.993h14.447l-7.027 32.783a1 1 0 0 0 .13.74zm6.15-47.495a1 1 0 0 0 .815-.667 1.981 1.981 0 0 1 3.76 0 1 1 0 0 0 .815.667 1.487 1.487 0 0 1 .6 2.74 1 1 0 0 0-.4 1.2 1.487 1.487 0 0 1-2.292 1.723 1 1 0 0 0-1.205 0 1.486 1.486 0 0 1-2.292-1.723 1 1 0 0 0-.4-1.2 1.487 1.487 0 0 1 .6-2.74z" class="cls-1" data-name="Trazado 5264" transform="translate(-98.088)"/>
        <circle id="Elipse_58" cx="1" cy="1" r="1" class="cls-1" data-name="Elipse 58" transform="translate(92.908 20.996)"/>
        <path id="Trazado_5265" d="M52.917 325a5 5 0 1 0 2.771.841l6.59-9.226L63.5 325.2a5 5 0 1 0 2-.168l-1.6-11.175a1 1 0 0 0-1.761-.49A11.6 11.6 0 0 0 56.916 312a12.174 12.174 0 0 0-6.6 2.2 1 1 0 0 0 0 1.6 12.174 12.174 0 0 0 6.6 2.2 10.026 10.026 0 0 0 2.075-.225l-5.214 7.3a5.01 5.01 0 0 0-.86-.075zm15 5a3 3 0 1 1-4.121-2.781l.132.923a1 1 0 1 0 1.98-.283l-.1-.725A3 3 0 0 1 67.914 330zM52.9 315a8.57 8.57 0 0 1 8.035 0 8.572 8.572 0 0 1-8.035 0zm3.018 15a3 3 0 1 1-3.551-2.948l-.262.367a1 1 0 1 0 1.627 1.162l.794-1.112A3 3 0 0 1 55.917 330z" class="cls-1" data-name="Trazado 5265" transform="translate(0 -259.011)"/>
    </g>
</svg>
