<svg xmlns="http://www.w3.org/2000/svg" width="43.418" height="57.001" viewBox="0 0 43.418 57.001">
    <defs>
        <style>
            .cls-1{fill:#4f1a0f}
        </style>
    </defs>
    <g id="surface1" transform="translate(.001)">
        <path id="Trazado_5305" d="M41.747 13.359h-1.79A11.686 11.686 0 0 0 21.706 2.1a11.683 11.683 0 0 0-18.367 9.589 11.785 11.785 0 0 0 .121 1.67H1.669A1.671 1.671 0 0 0 0 15.167l3.34 40.3a1.671 1.671 0 0 0 2.289 1.413 43.112 43.112 0 0 1 32.158 0 1.671 1.671 0 0 0 2.285-1.413l3.34-40.3a1.671 1.671 0 0 0-1.665-1.808zm-5.452 1.016a18.676 18.676 0 0 1-3.224 4.588 11.623 11.623 0 0 0-1.456-3.452 5 5 0 0 0-3.227-8.831 4.979 4.979 0 0 0-2.5.674 11.689 11.689 0 0 0-1.674-2.892 8.349 8.349 0 0 1 12.085 9.914zM26.6 22.763a5.009 5.009 0 1 0-9.794 0 14.3 14.3 0 0 1-3.443-1.431 8.348 8.348 0 0 1 16.68 0 14.293 14.293 0 0 1-3.443 1.431zm-6.567-1.054a1.67 1.67 0 1 1 1.67 1.67 1.672 1.672 0 0 1-1.665-1.67zm-6.081-8.741a1.669 1.669 0 1 1 2.663-1.781 11.72 11.72 0 0 0-2.658 1.78zm15.5 0a11.713 11.713 0 0 0-2.652-1.782 1.669 1.669 0 1 1 2.664 1.781zM15.028 3.34a8.363 8.363 0 0 1 8.2 6.778 11.755 11.755 0 0 0-3.424.057 5.009 5.009 0 1 0-8 5.337 11.614 11.614 0 0 0-1.456 3.452 18.674 18.674 0 0 1-3.223-4.588A8.359 8.359 0 0 1 15.028 3.34zM36.925 53a46.653 46.653 0 0 0-30.434 0L3.483 16.7h1.091c3.7 6.672 9.584 10.02 17.133 10.02 7.651 0 13.437-3.338 17.135-10.02h1.09zm0 0" class="cls-1" data-name="Trazado 5305"/>
    </g>
</svg>
