<svg xmlns="http://www.w3.org/2000/svg" id="return-to-the-past" width="51.729" height="51.729" viewBox="0 0 51.729 51.729">
    <defs>
        <style>
            .cls-1{fill:#4f1a0f}
        </style>
    </defs>
    <path id="Trazado_4684" d="M44.153 7.575a25.9 25.9 0 0 0-27.059-6.05l-.575-.99a1.011 1.011 0 0 0-.873-.5 1.011 1.011 0 0 0-.876.505l-4 6.964a1.01 1.01 0 0 0 .876 1.513L19.682 9a1.01 1.01 0 0 0 .871-1.518l-.345-.594A19.8 19.8 0 1 1 6.062 25.864a1.01 1.01 0 0 0-1.01-1.01H1.01A1.01 1.01 0 0 0 0 25.864a25.864 25.864 0 0 0 44.153 18.289 25.864 25.864 0 0 0 0-36.578zM25.864 49.708A23.873 23.873 0 0 1 2.042 26.875h2.022A21.823 21.823 0 0 0 41.3 41.3 21.827 21.827 0 0 0 18.362 5.367a1.01 1.01 0 0 0-.526 1.456l.09.156-4.526.012 2.253-3.928.127.218a1.009 1.009 0 0 0 1.248.431 23.846 23.846 0 1 1 8.838 46zm0 0" class="cls-1" data-name="Trazado 4684"/>
    <path id="Trazado_4685" d="M363.72 130.341a1.01 1.01 0 0 0-1.427 1.43l.008.007a1.01 1.01 0 0 0 1.427-1.431zm0 0" class="cls-1" data-name="Trazado 4685" transform="translate(-325.426 -116.908)"/>
    <path id="Trazado_4686" d="M108.527 85.613a1.011 1.011 0 0 0-.391-1.375 17.7 17.7 0 0 0-10.87-2.066 17.578 17.578 0 1 0 17.4 8.4 1.01 1.01 0 1 0-1.733 1.039A15.558 15.558 0 1 1 107.152 86a1.011 1.011 0 0 0 1.375-.39zm0 0" class="cls-1" data-name="Trazado 4686" transform="translate(-73.715 -73.735)"/>
    <path id="Trazado_4687" d="M248.15 120.768v-.758a1.01 1.01 0 1 0-2.021 0v.758a1.01 1.01 0 0 0 2.021 0zm0 0" class="cls-1" data-name="Trazado 4687" transform="translate(-221.262 -106.977)"/>
    <path id="Trazado_4688" d="M245.871 366.51v.758a1.01 1.01 0 0 0 2.021 0v-.758a1.01 1.01 0 0 0-2.021 0zm0 0" class="cls-1" data-name="Trazado 4688" transform="translate(-221.03 -328.573)"/>
    <path id="Trazado_4689" d="M365.5 247.139a1.01 1.01 0 0 0 1.01 1.01h.758a1.01 1.01 0 0 0 0-2.021h-.758a1.01 1.01 0 0 0-1.01 1.011zm0 0" class="cls-1" data-name="Trazado 4689" transform="translate(-328.573 -221.262)"/>
    <path id="Trazado_4690" d="M120.01 245.871a1.01 1.01 0 1 0 0 2.021h.758a1.01 1.01 0 1 0 0-2.021zm0 0" class="cls-1" data-name="Trazado 4690" transform="translate(-106.977 -221.03)"/>
    <path id="Trazado_4691" d="M183.041 176.979a1.01 1.01 0 0 0-1.01-1.01H177.4l-7.575-7.575a1.01 1.01 0 0 0-1.429 1.429l7.871 7.871a1.01 1.01 0 0 0 .714.3h5.052a1.01 1.01 0 0 0 1.01-1.01zm0 0" class="cls-1" data-name="Trazado 4691" transform="translate(-151.114 -151.114)"/>
</svg>
