<svg xmlns="http://www.w3.org/2000/svg" width="76" height="37.041" viewBox="0 0 76 37.041">
    <defs>
        <style>
            .cls-1{fill:#4f1a0f}
        </style>
    </defs>
    <g id="sandwich01">
        <path id="Trazado_5268" d="M76 21.075c0-2.469-2.481-4.487-6.386-5.332v-4.248a2.1 2.1 0 0 0-.017-.25v-.032c.008-.119.016-.237.016-.355A10.869 10.869 0 0 0 58.756 0c-.342 0-.683.019-1.023.052-.168.016-.331.043-.5.068s-.323.043-.483.074c-.21.039-.416.089-.623.141-.106.027-.212.053-.317.082-.231.066-.457.14-.681.219-.075.027-.151.054-.225.083a8.466 8.466 0 0 0-.874.385c-.238.115-.47.236-.7.368-.049.028-.1.059-.143.087-.231.139-.459.282-.678.437-.042.03-.082.061-.122.092a11.02 11.02 0 0 0-.652.506l-.009.008A10.878 10.878 0 0 0 44.707 0c-.342 0-.683.019-1.023.052-.168.016-.331.043-.5.068s-.323.043-.483.074c-.21.039-.416.089-.623.141-.106.027-.212.053-.317.082-.231.065-.457.139-.681.218-.075.027-.151.054-.225.083a8.466 8.466 0 0 0-.874.385c-.238.115-.47.236-.7.368-.049.028-.1.059-.143.087-.231.139-.459.282-.678.437-.042.03-.082.061-.123.092-.222.162-.442.328-.651.506l-.009.008A10.89 10.89 0 0 0 31.48.044a1.229 1.229 0 0 0-.18-.037c-.1 0-.2.013-.3.015S30.769 0 30.655 0a10.878 10.878 0 0 0-7.025 2.593 10.845 10.845 0 0 0-17.883 8.265c0 .12.008.237.016.355v.031a2.136 2.136 0 0 0-.016.253v4.4C2.229 16.828 0 18.787 0 21.075c0 2.363 2.293 4.3 5.753 5.2a10.866 10.866 0 0 0 10.852 10.766h42.151A10.864 10.864 0 0 0 69.6 26.432c3.82-.818 6.4-2.849 6.4-5.357zM8.3 10.857a8.312 8.312 0 0 1 8.3-8.3 8.187 8.187 0 0 1 5.676 2.263 10.785 10.785 0 0 0-1.839 6.037 1.277 1.277 0 0 0 2.555 0 8.306 8.306 0 0 1 7.982-8.287 8.161 8.161 0 0 1 4.967 1.906 10.787 10.787 0 0 0-2.092 6.38 1.277 1.277 0 1 0 2.554 0 8.264 8.264 0 0 1 2.237-5.65c.176-.189.36-.366.549-.536.03-.026.056-.053.085-.078.166-.146.34-.279.515-.41.06-.045.119-.092.18-.134.139-.1.284-.185.428-.274.1-.061.2-.128.306-.185s.208-.1.311-.157c.147-.073.293-.15.445-.215.063-.027.129-.048.193-.073.193-.077.386-.152.585-.215l.091-.024c.232-.071.467-.133.709-.183.02 0 .041 0 .061-.01.25-.05.5-.089.76-.117.281-.028.565-.043.851-.043a8.166 8.166 0 0 1 5.285 1.922 10.787 10.787 0 0 0-2.092 6.38 1.277 1.277 0 0 0 2.555 0A8.264 8.264 0 0 1 52.693 5.2c.176-.189.36-.366.549-.536.03-.026.056-.053.085-.078.166-.146.34-.279.515-.41.06-.045.119-.092.18-.134.14-.1.284-.185.428-.273.1-.061.2-.128.306-.186s.208-.1.311-.157c.147-.072.293-.15.445-.215.063-.027.129-.047.193-.073.193-.077.386-.152.585-.215l.09-.023c.233-.071.467-.133.709-.183a8.13 8.13 0 0 1 .821-.126 8.439 8.439 0 0 1 .851-.043 8.311 8.311 0 0 1 8.3 8.3v5.642l-.017.179c0 .027-.013.051-.016.078a1.279 1.279 0 0 1-.111.413v.005a1.311 1.311 0 0 1-.272.369c-.013.012-.028.016-.041.028a1.239 1.239 0 0 1-.345.223 1.277 1.277 0 0 1-.474.1H9.58a1.281 1.281 0 0 1-.47-.095 1.235 1.235 0 0 1-.233-.144.842.842 0 0 1-.365-.379.992.992 0 0 1-.056-.083 1.3 1.3 0 0 1-.11-.355 1.4 1.4 0 0 1-.035-.171l-.011-.089v-5.036l.024-.221zm52.884 10.7c-.009.019-.013.038-.023.057a2.356 2.356 0 0 1-.306.419 3.094 3.094 0 0 1-.23.233 3.723 3.723 0 0 1-.295.245 5.756 5.756 0 0 1-.558.369c-.061.035-.123.071-.187.106-.129.07-.262.137-.4.2a11.182 11.182 0 0 1-2.552.8h-.01c-.453.088-.923.155-1.4.2a15.453 15.453 0 0 1-2.715.032c-.1-.008-.205-.016-.309-.027a19.6 19.6 0 0 1-.878-.1c-.082-.013-.166-.021-.248-.035a13.51 13.51 0 0 1-1.042-.212c-.063-.016-.12-.033-.181-.05q-.41-.107-.793-.238l-.14-.05a4.317 4.317 0 0 0 .669-1.165.059.059 0 0 0 0-.009 3.559 3.559 0 0 0 .161-.579c0-.017.009-.032.013-.049a3.818 3.818 0 0 0 .056-.63 3.4 3.4 0 0 0-.06-.638H61.08c.019.031.052.063.069.093s.031.063.045.093a1.121 1.121 0 0 1 .118.452 1.186 1.186 0 0 1-.125.48zM38.159 24.2c-.11-.01-.218-.019-.327-.032-.457-.05-.9-.114-1.332-.2-.05-.01-.1-.024-.147-.035a12.75 12.75 0 0 1-1.111-.293c-.089-.028-.179-.055-.264-.085a8.965 8.965 0 0 1-1.051-.428c-.019-.009-.035-.019-.054-.029.009-.013.014-.027.022-.04a4.4 4.4 0 0 0 .213-.386c.028-.057.052-.118.077-.175a3.484 3.484 0 0 0 .125-.327c.031-.093.049-.189.072-.284s.043-.165.056-.249a3.428 3.428 0 0 0 .049-.561 3.336 3.336 0 0 0-.061-.638h12.588c.031.048.084.1.108.144v.008a1.066 1.066 0 0 1 .134.486 1.175 1.175 0 0 1-.12.467 1.875 1.875 0 0 1-.123.2 2.213 2.213 0 0 1-.191.262 2.96 2.96 0 0 1-.26.268c-.063.057-.136.115-.207.172a4.728 4.728 0 0 1-.422.311 7.412 7.412 0 0 1-1.171.591c-.065.027-.133.053-.2.079a11.336 11.336 0 0 1-1.312.409c-.045.012-.085.024-.132.035-.224.052-.453.1-.686.14-.324.059-.653.114-1.005.153-.128.014-.26.022-.391.034-.464.039-.938.07-1.443.07-.488 0-.966-.03-1.437-.07zm-15.035.026l-.309-.027a19.6 19.6 0 0 1-.878-.1c-.082-.013-.166-.022-.248-.036a13.51 13.51 0 0 1-1.042-.212c-.063-.015-.12-.033-.181-.049q-.41-.108-.793-.238l-.14-.05a4.325 4.325 0 0 0 .669-1.165.045.045 0 0 0 0-.009 3.542 3.542 0 0 0 .161-.579c0-.016.009-.032.012-.049a3.546 3.546 0 0 0 .059-.631 3.456 3.456 0 0 0-.06-.638h11.319c.026.041.07.083.092.122l.021.045a1.1 1.1 0 0 1 .126.471 1.165 1.165 0 0 1-.12.464c-.023.05-.051.1-.079.146a2.225 2.225 0 0 1-.248.34 3.057 3.057 0 0 1-.239.243c-.07.065-.152.129-.233.193a4.976 4.976 0 0 1-.456.326c-.041.026-.091.051-.134.077a7.812 7.812 0 0 1-1.179.562c-.067.027-.13.055-.2.081-.213.077-.439.146-.668.212-.13.038-.267.072-.4.107a14.205 14.205 0 0 1-1.791.33c-.16.019-.322.032-.483.046-.46.038-.929.071-1.43.071-.386 0-.768-.019-1.145-.046zM2.555 21.075c0-.86 1.272-2.007 3.654-2.671.02.038.046.072.068.109a3.735 3.735 0 0 0 .2.322 3.813 3.813 0 0 0 .337.409c.068.07.14.133.213.2a4.437 4.437 0 0 0 .503.39 3.932 3.932 0 0 0 .532.29c.043.019.089.031.135.048a3.659 3.659 0 0 0 .513.16c.063.015.125.029.191.041a3.941 3.941 0 0 0 .68.067h8.056c.031.047.085.1.108.144v.008a1.066 1.066 0 0 1 .134.486 1.17 1.17 0 0 1-.12.466 1.82 1.82 0 0 1-.122.2 2.288 2.288 0 0 1-.192.262 3.038 3.038 0 0 1-.26.268 4.197 4.197 0 0 1-.207.172 4.728 4.728 0 0 1-.422.311 11.784 11.784 0 0 1-5.321 1.462c-.106.006-.212.012-.321.015-.34.016-.681.024-1.023.018-.166 0-.321-.015-.483-.023a15.055 15.055 0 0 1-2.146-.237l-.43-.083c-2.7-.6-4.28-1.857-4.28-2.834zm64.482 5.706a8.314 8.314 0 0 1-8.281 7.706H16.605a8.312 8.312 0 0 1-8.285-7.76c.355.035.719.059 1.088.074.121.005.242.006.365.01.148 0 .294.012.445.012.116 0 .227-.008.342-.009l.357-.009c.35-.013.695-.033 1.032-.063a14.278 14.278 0 0 0 5.3-1.43c.006 0 .014.005.02.009a11.435 11.435 0 0 0 1.354.578c.075.027.148.057.224.082a14.593 14.593 0 0 0 1.487.415c.091.02.181.039.273.057.526.108 1.067.2 1.626.258.077.009.155.012.231.02.59.056 1.189.093 1.8.093a14.637 14.637 0 0 0 7.671-1.879c.242.152.5.3.772.432.073.037.154.067.229.1.22.1.443.2.677.3.115.045.235.086.353.128.207.074.417.147.634.213.133.041.268.077.4.114a14.527 14.527 0 0 0 1.086.256c.23.046.463.085.7.122.143.021.285.045.429.064.26.033.525.057.792.081.126.01.252.026.379.033.4.026.8.039 1.2.039a15.406 15.406 0 0 0 7.035-1.513l.02.009A11.34 11.34 0 0 0 48 25.9c.075.027.148.056.224.082a14.271 14.271 0 0 0 1.487.415c.09.02.181.04.272.057.526.109 1.067.2 1.626.258.077.009.155.013.231.02.59.057 1.189.093 1.8.093.532 0 1.046-.027 1.552-.067l.144-.012a15.282 15.282 0 0 0 4.4-1c.126.051.273.084.4.132.3.108.6.209.917.3.233.067.467.125.709.181.332.078.668.144 1.014.2.253.042.505.081.764.112.345.042.691.07 1.044.093.275.018.547.034.826.039.122 0 .241.018.365.018.423 0 .837-.017 1.244-.042a.036.036 0 0 1 .014 0zm.816-2.653c-.2.026-.4.05-.595.067a17.12 17.12 0 0 1-1.355.067c-.125 0-.249-.005-.375-.006a16.351 16.351 0 0 1-1.093-.055c-.143-.012-.288-.02-.428-.035a14.3 14.3 0 0 1-1.225-.191c-.064-.012-.125-.028-.189-.042a5.192 5.192 0 0 0 .518-.616c.034-.048.059-.1.09-.146a4.234 4.234 0 0 0 .276-.482c.038-.078.07-.157.1-.237a3.6 3.6 0 0 0 .151-.457c.019-.074.042-.147.057-.222a3.561 3.561 0 0 0 .074-.7 3.465 3.465 0 0 0-.06-.638h1.976a3.759 3.759 0 0 0 .678-.069c.075-.013.148-.032.222-.05a3.947 3.947 0 0 0 .419-.13c.082-.03.164-.056.241-.092a3.673 3.673 0 0 0 .493-.268 3.628 3.628 0 0 0 .307-.228c.059-.046.117-.092.173-.142a4.161 4.161 0 0 0 .3-.292c.03-.032.055-.067.083-.1a3.849 3.849 0 0 0 .514-.78.213.213 0 0 0 .015-.027c2.664.612 4.222 1.844 4.222 2.818 0 1.125-2.093 2.612-5.593 3.053zm0 0" class="cls-1" data-name="Trazado 5268"/>
        <path id="Trazado_5269" d="M97.211 190.578a1.277 1.277 0 1 1-1.277-1.277 1.278 1.278 0 0 1 1.277 1.277zm0 0" class="cls-1" data-name="Trazado 5269" transform="translate(-80.605 -161.201)"/>
        <path id="Trazado_5270" d="M140.235 207.789a1.277 1.277 0 1 1-1.277-1.277 1.277 1.277 0 0 1 1.277 1.277zm0 0" class="cls-1" data-name="Trazado 5270" transform="translate(-117.243 -175.857)"/>
        <path id="Trazado_5271" d="M174.657 190.578a1.277 1.277 0 1 1-1.277-1.277 1.277 1.277 0 0 1 1.277 1.277zm0 0" class="cls-1" data-name="Trazado 5271" transform="translate(-146.556 -161.201)"/>
        <path id="Trazado_5272" d="M200.469 207.789a1.277 1.277 0 1 1-1.277-1.277 1.277 1.277 0 0 1 1.277 1.277zm0 0" class="cls-1" data-name="Trazado 5272" transform="translate(-168.536 -175.857)"/>
        <path id="Trazado_5273" d="M234.891 190.578a1.277 1.277 0 1 1-1.277-1.277 1.277 1.277 0 0 1 1.277 1.277zm0 0" class="cls-1" data-name="Trazado 5273" transform="translate(-197.849 -161.201)"/>
        <path id="Trazado_5274" d="M269.312 207.789a1.277 1.277 0 1 1-1.277-1.277 1.277 1.277 0 0 1 1.277 1.277zm0 0" class="cls-1" data-name="Trazado 5274" transform="translate(-227.161 -175.857)"/>
        <path id="Trazado_5275" d="M303.731 181.976a1.277 1.277 0 1 1-1.277-1.277 1.277 1.277 0 0 1 1.277 1.277zm0 0" class="cls-1" data-name="Trazado 5275" transform="translate(-256.47 -153.877)"/>
        <path id="Trazado_5276" d="M329.547 207.789a1.277 1.277 0 1 1-1.277-1.277 1.278 1.278 0 0 1 1.277 1.277zm0 0" class="cls-1" data-name="Trazado 5276" transform="translate(-278.454 -175.857)"/>
        <path id="Trazado_5277" d="M372.571 190.578a1.277 1.277 0 1 1-1.277-1.277 1.277 1.277 0 0 1 1.277 1.277zm0 0" class="cls-1" data-name="Trazado 5277" transform="translate(-315.092 -161.201)"/>
        <path id="Trazado_5278" d="M406.992 199.184a1.277 1.277 0 1 1-1.277-1.277 1.278 1.278 0 0 1 1.277 1.277zm0 0" class="cls-1" data-name="Trazado 5278" transform="translate(-344.403 -168.529)"/>
    </g>
</svg>
