<svg xmlns="http://www.w3.org/2000/svg" width="60.021" height="60.031" viewBox="0 0 60.021 60.031">
    <defs>
        <style>
            .cls-1{fill:#4f1a0f}
        </style>
    </defs>
    <g id="_019---Veggie-Burger" data-name="019---Veggie-Burger" transform="translate(-.005)">
        <path id="Shape" d="M9 15c.54 0 .57-.15 2.71-2.29a1 1 0 0 0-1.42-1.42l-2 2A1 1 0 0 0 9 15z" class="cls-1"/>
        <path id="Shape-2" d="M23 9c.54 0 .57-.15 2.71-2.29a1 1 0 0 0-1.42-1.42l-2 2A1 1 0 0 0 23 9z" class="cls-1" data-name="Shape"/>
        <path id="Shape-3" d="M32 9c.54 0 .57-.15 2.71-2.29a1 1 0 0 0-1.42-1.42l-2 2A1 1 0 0 0 32 9z" class="cls-1" data-name="Shape"/>
        <path id="Shape-4" d="M16 10a1 1 0 0 0 1-1V7a1 1 0 0 0-2 0v2a1 1 0 0 0 1 1z" class="cls-1" data-name="Shape"/>
        <path id="Shape-5" d="M16.29 12.29a1 1 0 0 0 0 1.42l2 2a1 1 0 1 0 1.42-1.42l-2-2a1 1 0 0 0-1.42 0z" class="cls-1" data-name="Shape"/>
        <path id="Shape-6" d="M41.29 15.71a1 1 0 1 0 1.42-1.42l-2-2a1 1 0 0 0-1.42 1.42z" class="cls-1" data-name="Shape"/>
        <path id="Shape-7" d="M25.29 13.29a1 1 0 0 0 0 1.42l2 2a1 1 0 1 0 1.42-1.42l-2-2a1 1 0 0 0-1.42 0z" class="cls-1" data-name="Shape"/>
        <path id="Shape-8" d="M32.29 11.29a1 1 0 0 0 0 1.42l2 2a1 1 0 1 0 1.42-1.42l-2-2a1 1 0 0 0-1.42 0z" class="cls-1" data-name="Shape"/>
        <path id="Shape-9" d="M51.94 31.72A5 5 0 0 0 47 26v-5h1a2 2 0 0 0 2-2A19 19 0 0 0 31 0H21A19 19 0 0 0 2 19a2 2 0 0 0 2 2h1v5a5 5 0 0 0-2 9.58V38a11 11 0 0 0 11 11h16.56a15 15 0 1 0 21.38-17.28zM21 2h10a17 17 0 0 1 17 17H4A17 17 0 0 1 21 2zM7 21h38v5H7zM2 31a3 3 0 0 1 3-3h42a3 3 0 0 1 3 2.87 14.94 14.94 0 0 0-16.6 4.65 3.28 3.28 0 0 1-.64-.54 1 1 0 0 0-1.5 0 3 3 0 0 1-4.5 0 1 1 0 0 0-1.5 0 3 3 0 0 1-4.5 0 1 1 0 0 0-1.5 0 3 3 0 0 1-4.5 0 1 1 0 0 0-1.5 0 3 3 0 0 1-5.07-1 1 1 0 0 0-1.51-.5A3 3 0 0 1 2 31zm12 16a9 9 0 0 1-9-9v-2a5.18 5.18 0 0 0 1.78-.32A5 5 0 0 0 14 37a5.13 5.13 0 0 0 6 0 5.13 5.13 0 0 0 6 0 5 5 0 0 0 6 0l.24.15A14.76 14.76 0 0 0 30.15 47zm31 11a13 13 0 1 1 9.192-3.808A13 13 0 0 1 45 58z" class="cls-1" data-name="Shape"/>
        <path id="Shape-10" d="M50.929 39a20.368 20.368 0 0 0-6.7 2.933A22.246 22.246 0 0 0 37.4 39a.908.908 0 0 0-1.117.745c-.1.654-.908 6.466.781 9.017s5.113 3.859 7.555 2.225a4.8 4.8 0 0 0 1.952-3.051l1.889-1.943a.912.912 0 0 0-1.308-1.271l-.681.708a7 7 0 0 0-.963-2.17 17.98 17.98 0 0 1 4.876-2.2c.236 2.216.263 5.3-.563 6.547a4.74 4.74 0 0 1-2.016 1.725.908.908 0 0 0 .372 1.734A5.548 5.548 0 0 0 51.3 48.6c1.653-2.515.808-8.173.708-8.845A.908.908 0 0 0 50.929 39zM38.57 47.779c-.908-1.389-.817-4.722-.618-6.72 2.207.663 5.167 1.9 6.03 3.178a4.223 4.223 0 0 1 .445 4.368l-2.261-2.9a.908.908 0 1 0-1.435 1.108l2.288 2.942a4.136 4.136 0 0 1-4.45-1.98z" class="cls-1" data-name="Shape"/>
    </g>
</svg>
