<svg xmlns="http://www.w3.org/2000/svg" width="60.021" height="60.031" viewBox="0 0 60.021 60.031">
    <defs>
        <style>
            .cls-1{fill:#4f1a0f}
        </style>
    </defs>
    <g id="Componente_8_1" data-name="Componente 8 – 1">
        <path id="Shape" d="M9 15c.54 0 .57-.15 2.71-2.29a1 1 0 0 0-1.42-1.42l-2 2A1 1 0 0 0 9 15z" class="cls-1" transform="translate(-.005)"/>
        <path id="Shape-2" d="M23 9c.54 0 .57-.15 2.71-2.29a1 1 0 0 0-1.42-1.42l-2 2A1 1 0 0 0 23 9z" class="cls-1" data-name="Shape" transform="translate(-.005)"/>
        <path id="Shape-3" d="M32 9c.54 0 .57-.15 2.71-2.29a1 1 0 0 0-1.42-1.42l-2 2A1 1 0 0 0 32 9z" class="cls-1" data-name="Shape" transform="translate(-.005)"/>
        <path id="Shape-4" d="M16 10a1 1 0 0 0 1-1V7a1 1 0 0 0-2 0v2a1 1 0 0 0 1 1z" class="cls-1" data-name="Shape" transform="translate(-.005)"/>
        <path id="Shape-5" d="M16.29 12.29a1 1 0 0 0 0 1.42l2 2a1 1 0 1 0 1.42-1.42l-2-2a1 1 0 0 0-1.42 0z" class="cls-1" data-name="Shape" transform="translate(-.005)"/>
        <path id="Shape-6" d="M41.29 15.71a1 1 0 1 0 1.42-1.42l-2-2a1 1 0 0 0-1.42 1.42z" class="cls-1" data-name="Shape" transform="translate(-.005)"/>
        <path id="Shape-7" d="M25.29 13.29a1 1 0 0 0 0 1.42l2 2a1 1 0 1 0 1.42-1.42l-2-2a1 1 0 0 0-1.42 0z" class="cls-1" data-name="Shape" transform="translate(-.005)"/>
        <path id="Shape-8" d="M32.29 11.29a1 1 0 0 0 0 1.42l2 2a1 1 0 1 0 1.42-1.42l-2-2a1 1 0 0 0-1.42 0z" class="cls-1" data-name="Shape" transform="translate(-.005)"/>
        <path id="Shape-9" d="M51.94 31.72A5 5 0 0 0 47 26v-5h1a2 2 0 0 0 2-2A19 19 0 0 0 31 0H21A19 19 0 0 0 2 19a2 2 0 0 0 2 2h1v5a5 5 0 0 0-2 9.58V38a11 11 0 0 0 11 11h16.56a15 15 0 1 0 21.38-17.28zM21 2h10a17 17 0 0 1 17 17H4A17 17 0 0 1 21 2zM7 21h38v5H7zM2 31a3 3 0 0 1 3-3h42a3 3 0 0 1 3 2.87 14.94 14.94 0 0 0-16.6 4.65 3.28 3.28 0 0 1-.64-.54 1 1 0 0 0-1.5 0 3 3 0 0 1-4.5 0 1 1 0 0 0-1.5 0 3 3 0 0 1-4.5 0 1 1 0 0 0-1.5 0 3 3 0 0 1-4.5 0 1 1 0 0 0-1.5 0 3 3 0 0 1-5.07-1 1 1 0 0 0-1.51-.5A3 3 0 0 1 2 31zm12 16a9 9 0 0 1-9-9v-2a5.18 5.18 0 0 0 1.78-.32A5 5 0 0 0 14 37a5.13 5.13 0 0 0 6 0 5.13 5.13 0 0 0 6 0 5 5 0 0 0 6 0l.24.15A14.76 14.76 0 0 0 30.15 47zm31 11a13 13 0 1 1 9.192-3.808A13 13 0 0 1 45 58z" class="cls-1" data-name="Shape" transform="translate(-.005)"/>
        <g id="chicken" transform="translate(33.999 30.966)">
            <g id="Grupo_559" data-name="Grupo 559" transform="translate(0 9.314)">
                <path id="Trazado_5295" d="M6.1 24.147a6.1 6.1 0 1 1 0-12.2c3.361 0 10.078 2.637 10.078 6.1s-6.715 6.1-10.078 6.1zm0-11.511a5.409 5.409 0 1 0 0 10.818c3.091 0 9.386-2.5 9.386-5.409S9.192 12.637 6.1 12.637z" class="cls-1" data-name="Trazado 5295" transform="translate(0 -11.945)"/>
                <path id="Trazado_5296" d="M27.3 22.886a2.285 2.285 0 0 1-2.28-2.2h-2.773a.346.346 0 0 1 0-.692h3.139a.346.346 0 0 1 .343.392 1.539 1.539 0 0 0-.024.215 1.59 1.59 0 1 0 3.18 0 1.575 1.575 0 0 0-.64-1.267.344.344 0 0 1 0-.552 1.588 1.588 0 1 0-2.54-1.267 1.191 1.191 0 0 0 .017.173.387.387 0 0 1-.078.295.36.36 0 0 1-.259.139h-3.138a.346.346 0 0 1 0-.692h2.769a2.282 2.282 0 0 1 4.562.085 2.247 2.247 0 0 1-.608 1.542 2.251 2.251 0 0 1 .608 1.544 2.284 2.284 0 0 1-2.278 2.285z" class="cls-1" data-name="Trazado 5296" transform="translate(-6.754 -12.96)"/>
                <path id="Trazado_5297" d="M3.372 18.237a.333.333 0 0 1-.1-.014.346.346 0 0 1-.237-.428 3.044 3.044 0 0 1 1.874-2.154.346.346 0 0 1 .2.663A2.374 2.374 0 0 0 3.7 17.987a.348.348 0 0 1-.328.25z" class="cls-1" data-name="Trazado 5297" transform="translate(-.933 -13.081)"/>
            </g>
            <g id="Grupo_560" data-name="Grupo 560" transform="translate(3.138 3.413)">
                <path id="Trazado_5298" d="M14.277 7.91a.345.345 0 0 1-.261-.119 1.8 1.8 0 0 1 0-2.356 1.107 1.107 0 0 0 0-1.448.346.346 0 1 1 .521-.454 1.8 1.8 0 0 1 0 2.356 1.108 1.108 0 0 0 0 1.449.345.345 0 0 1-.261.573z" class="cls-1" data-name="Trazado 5298" transform="translate(-7.325 -3.413)"/>
                <path id="Trazado_5299" d="M9.757 7.91a.344.344 0 0 1-.257-.119 1.8 1.8 0 0 1 0-2.356 1.107 1.107 0 0 0 0-1.448.346.346 0 1 1 .521-.454 1.8 1.8 0 0 1 0 2.356 1.108 1.108 0 0 0 0 1.449.345.345 0 0 1-.261.573z" class="cls-1" data-name="Trazado 5299" transform="translate(-5.931 -3.413)"/>
                <path id="Trazado_5300" d="M5.237 7.91a.344.344 0 0 1-.261-.119 1.8 1.8 0 0 1 0-2.356 1.107 1.107 0 0 0 0-1.448.346.346 0 1 1 .524-.454 1.8 1.8 0 0 1 0 2.356 1.108 1.108 0 0 0 0 1.449.345.345 0 0 1-.261.573z" class="cls-1" data-name="Trazado 5300" transform="translate(-4.537 -3.413)"/>
            </g>
        </g>
    </g>
</svg>
