<svg xmlns="http://www.w3.org/2000/svg" width="17.79" height="50" viewBox="0 0 17.79 50">
    <defs>
        <style>
            .cls-1{fill:#4f1a0f}
        </style>
    </defs>
    <g id="soda" transform="translate(-45.417 -11.772)">
        <path id="Trazado_5252" d="M60.706 26.019a5.34 5.34 0 0 1-1.906-4.094v-4.978h.219a.838.838 0 0 0 .838-.838v-3.5a.838.838 0 0 0-.838-.838h-9.414a.838.838 0 0 0-.838.838v3.5a.838.838 0 0 0 .838.838h.219v4.978a5.34 5.34 0 0 1-1.906 4.095 7.013 7.013 0 0 0-2.5 5.376V58.86a2.915 2.915 0 0 0 2.911 2.912H60.3a2.915 2.915 0 0 0 2.911-2.912V31.4a7.013 7.013 0 0 0-2.5-5.377zm-13.613 12h14.44v9.693H47.092zm3.351-24.576h7.738v1.824h-7.739zm6.681 3.5V18.3a6.667 6.667 0 0 0-3.806.8 7.358 7.358 0 0 1-1.819.687v-2.84zM49 27.3a7.011 7.011 0 0 0 2.5-5.376V21.5a8.9 8.9 0 0 0 2.609-.925 5.032 5.032 0 0 1 3.016-.595v1.942a7.011 7.011 0 0 0 2.5 5.376 5.341 5.341 0 0 1 1.906 4.102v4.953H47.092V31.4A5.341 5.341 0 0 1 49 27.3zm11.3 32.8H48.329a1.237 1.237 0 0 1-1.236-1.236v-9.471h14.439v9.468A1.237 1.237 0 0 1 60.3 60.1z" class="cls-1" data-name="Trazado 5252"/>
        <path id="Trazado_5253" d="M56.711 57.922a2.088 2.088 0 1 0-2.088-2.088 2.088 2.088 0 0 0 2.088 2.088zm0-2.284a.2.2 0 1 1-.2.2.2.2 0 0 1 .2-.2z" class="cls-1" data-name="Trazado 5253" transform="translate(-5.132 -22.358)"/>
        <path id="Trazado_5254" d="M66.224 49.032a2.474 2.474 0 1 0-2.474-2.474 2.474 2.474 0 0 0 2.474 2.474zm0-2.664a.189.189 0 1 1-.135.055.191.191 0 0 1 .135-.055z" class="cls-1" data-name="Trazado 5254" transform="translate(-10.374 -17.284)"/>
        <path id="Trazado_5255" d="M56.458 97.408a3.208 3.208 0 1 0 3.208 3.208 3.209 3.209 0 0 0-3.208-3.208zm0 4.132a.925.925 0 1 1 .924-.924.925.925 0 0 1-.924.924z" class="cls-1" data-name="Trazado 5255" transform="translate(-4.573 -47.915)"/>
        <path id="Trazado_5256" d="M71.737 95.583a1.862 1.862 0 1 0 1.863 1.862 1.862 1.862 0 0 0-1.863-1.862zm0 2.284a.422.422 0 1 1 .422-.422.422.422 0 0 1-.422.422z" class="cls-1" data-name="Trazado 5256" transform="translate(-13.522 -47.281)"/>
    </g>
</svg>
