<svg xmlns="http://www.w3.org/2000/svg" width="26" height="73.076" viewBox="0 0 26 73.076">
    <defs>
        <style>
            .cls-1{fill:#4f1a0f}
        </style>
    </defs>
    <g id="soda" transform="translate(-45.417 -11.772)">
        <path id="Trazado_5252" d="M67.762 32.595a7.8 7.8 0 0 1-2.785-5.984v-7.276h.32a1.224 1.224 0 0 0 1.224-1.224V13a1.224 1.224 0 0 0-1.221-1.228H51.539A1.224 1.224 0 0 0 50.314 13v5.11a1.224 1.224 0 0 0 1.224 1.224h.32v7.276a7.8 7.8 0 0 1-2.785 5.984 10.249 10.249 0 0 0-3.657 7.857v40.14a4.26 4.26 0 0 0 4.255 4.256h17.49a4.26 4.26 0 0 0 4.255-4.256V40.453a10.249 10.249 0 0 0-3.655-7.858zM47.866 50.14h21.1v14.167h-21.1zm4.9-35.918h11.31v2.665H52.763zm9.765 5.114v1.975a9.743 9.743 0 0 0-5.563 1.173 10.754 10.754 0 0 1-2.658 1v-4.149zM50.652 34.468a10.247 10.247 0 0 0 3.658-7.857v-.618a13.006 13.006 0 0 0 3.814-1.352 7.354 7.354 0 0 1 4.407-.87v2.839a10.247 10.247 0 0 0 3.653 7.857 7.806 7.806 0 0 1 2.784 5.984v7.239h-21.1v-7.237a7.806 7.806 0 0 1 2.787-5.984zM67.163 82.4h-17.49a1.808 1.808 0 0 1-1.806-1.807V66.756h21.1v13.837a1.808 1.808 0 0 1-1.804 1.807z" class="cls-1" data-name="Trazado 5252"/>
        <path id="Trazado_5253" d="M56.862 58.223a2.239 2.239 0 1 0-2.239-2.239 2.239 2.239 0 0 0 2.239 2.239zm0-2.449a.21.21 0 1 1-.21.21.21.21 0 0 1 .21-.209z" class="cls-1" data-name="Trazado 5253" transform="translate(-2.765 -12.609)"/>
        <path id="Trazado_5254" d="M66.4 49.389a2.653 2.653 0 1 0-2.653-2.653 2.653 2.653 0 0 0 2.653 2.653zm0-2.856a.2.2 0 1 1-.145.059.2.2 0 0 1 .145-.059z" class="cls-1" data-name="Trazado 5254" transform="translate(-5.507 -9.706)"/>
        <path id="Trazado_5255" d="M56.69 97.408a3.44 3.44 0 1 0 3.439 3.44 3.44 3.44 0 0 0-3.439-3.44zm0 4.431a.991.991 0 1 1 .991-.991.991.991 0 0 1-.991.991z" class="cls-1" data-name="Trazado 5255" transform="translate(-2.353 -25.725)"/>
        <path id="Trazado_5256" d="M71.872 95.583a2 2 0 1 0 2 2 2 2 0 0 0-2-2zm0 2.449a.452.452 0 1 1 .452-.452.452.452 0 0 1-.452.452z" class="cls-1" data-name="Trazado 5256" transform="translate(-7.347 -25.177)"/>
    </g>
</svg>
