<svg xmlns="http://www.w3.org/2000/svg" width="22" height="50.307" viewBox="0 0 22 50.307">
    <defs>
        <style>
            .cls-1{fill:#4f1a0f}
        </style>
    </defs>
    <g id="water" transform="translate(-144.047)">
        <g id="Grupo_537" data-name="Grupo 537" transform="translate(144.047)">
            <g id="Grupo_536" data-name="Grupo 536">
                <path id="Trazado_5266" d="M166.038 33.374a3.484 3.484 0 0 0-1.344-2.757 3.471 3.471 0 0 0-.153-5.612A3.862 3.862 0 0 0 166 21.954v-7.339l-7.065-9.2h1.552V0H149.56v5.415h1.651l-7.164 9.2v7.339a3.9 3.9 0 0 0 1.508 3.052 3.493 3.493 0 0 0-.114 5.612 3.508 3.508 0 0 0 .113 5.612 3.9 3.9 0 0 0-1.506 3.052v6.3a3.978 3.978 0 0 0 3.938 3.938h3.938v-.065a3.911 3.911 0 0 0 2.363.852h1.575a3.911 3.911 0 0 0 2.363-.852v.065h3.938A3.894 3.894 0 0 0 166 45.582v-6.3a3.861 3.861 0 0 0-1.458-3.052 3.5 3.5 0 0 0 1.496-2.856zm-15-29.436V1.477h7.974v2.461zm2.037 1.477h4l6.74 8.762h-17.481zm9.481 25.99a2.018 2.018 0 1 1 0 4.036h-1.969v1.477h1.575a2.331 2.331 0 0 1 2.363 2.363v6.3a2.416 2.416 0 0 1-2.363 2.461h-2.769a4.453 4.453 0 0 0 .357-1.674h-1.477a2.457 2.457 0 0 1-2.412 2.461h-1.575a2.457 2.457 0 0 1-2.412-2.461H150.4a4.452 4.452 0 0 0 .357 1.674h-2.769a2.5 2.5 0 0 1-2.461-2.461v-6.3a2.416 2.416 0 0 1 2.461-2.363h7.876v-1.477h-8.27a2.018 2.018 0 0 1 0-4.036h8.27v-1.477h-8.27a2.018 2.018 0 0 1 0-4.036h8.27v-1.477h-7.876a2.5 2.5 0 0 1-2.461-2.461v-6.3h19v6.3a2.416 2.416 0 0 1-2.363 2.461h-1.575v1.477h1.969a2.018 2.018 0 1 1 0 4.036h-1.969V31.4z" class="cls-1" data-name="Trazado 5266" transform="translate(-144.047)"/>
            </g>
        </g>
        <g id="Grupo_539" data-name="Grupo 539" transform="translate(149.56 11.026)">
            <g id="Grupo_538" data-name="Grupo 538">
                <path id="Rectángulo_1775" d="M0 0h1.575v1.477H0z" class="cls-1" data-name="Rectángulo 1775"/>
            </g>
        </g>
        <g id="Grupo_541" data-name="Grupo 541" transform="translate(151.136 9.451)">
            <g id="Grupo_540" data-name="Grupo 540">
                <path id="Rectángulo_1776" d="M0 0h1.575v1.477H0z" class="cls-1" data-name="Rectángulo 1776"/>
            </g>
        </g>
        <g id="Grupo_543" data-name="Grupo 543" transform="translate(157.436 29.928)">
            <g id="Grupo_542" data-name="Grupo 542">
                <path id="Rectángulo_1777" d="M0 0h1.575v1.477H0z" class="cls-1" data-name="Rectángulo 1777"/>
            </g>
        </g>
        <g id="Grupo_545" data-name="Grupo 545" transform="translate(157.436 24.415)">
            <g id="Grupo_544" data-name="Grupo 544">
                <path id="Rectángulo_1778" d="M0 0h1.575v1.477H0z" class="cls-1" data-name="Rectángulo 1778"/>
            </g>
        </g>
        <g id="Grupo_547" data-name="Grupo 547" transform="translate(157.436 35.441)">
            <g id="Grupo_546" data-name="Grupo 546">
                <path id="Rectángulo_1779" d="M0 0h1.575v1.477H0z" class="cls-1" data-name="Rectángulo 1779"/>
            </g>
        </g>
    </g>
</svg>
