<svg xmlns="http://www.w3.org/2000/svg" width="31.957" height="73.076" viewBox="0 0 31.957 73.076">
    <defs>
        <style>
            .cls-1{fill:#4f1a0f}
        </style>
    </defs>
    <g id="water" transform="translate(-144.047)">
        <g id="Grupo_537" data-name="Grupo 537" transform="translate(144.047)">
            <g id="Grupo_536" data-name="Grupo 536">
                <path id="Trazado_5266" d="M175.991 48.479a5.061 5.061 0 0 0-1.952-4 5.042 5.042 0 0 0-.222-8.152 5.61 5.61 0 0 0 2.121-4.433V21.229L165.674 7.865h2.255V0h-15.874v7.865h2.4l-10.408 13.364V31.89a5.672 5.672 0 0 0 2.19 4.433 5.074 5.074 0 0 0-.166 8.152 5.1 5.1 0 0 0 .164 8.152 5.67 5.67 0 0 0-2.188 4.433v9.152a5.778 5.778 0 0 0 5.72 5.72h5.72v-.094a5.681 5.681 0 0 0 3.432 1.238h2.288a5.681 5.681 0 0 0 3.432-1.238v.094h5.72a5.656 5.656 0 0 0 5.577-5.72V57.06a5.609 5.609 0 0 0-2.118-4.433 5.09 5.09 0 0 0 2.173-4.148zM154.2 5.72V2.145h11.584V5.72zm2.959 2.145h5.808l9.79 12.727h-25.388zm13.773 37.753a2.932 2.932 0 1 1 0 5.863h-2.86v2.145h2.288a3.387 3.387 0 0 1 3.432 3.432v9.152a3.509 3.509 0 0 1-3.432 3.575h-4.022a6.469 6.469 0 0 0 .518-2.431h-2.145a3.569 3.569 0 0 1-3.5 3.575h-2.291a3.569 3.569 0 0 1-3.5-3.575h-2.145a6.467 6.467 0 0 0 .518 2.431h-4.022a3.631 3.631 0 0 1-3.575-3.575v-9.151a3.509 3.509 0 0 1 3.575-3.432h11.441v-2.145H149.2a2.932 2.932 0 0 1 0-5.863h12.012v-2.145H149.2a2.932 2.932 0 0 1 0-5.863h12.012v-2.146h-11.445a3.631 3.631 0 0 1-3.575-3.575v-9.152h27.6v9.152a3.509 3.509 0 0 1-3.432 3.575h-2.288v2.145h2.86a2.932 2.932 0 1 1 0 5.863h-2.86v2.145z" class="cls-1" data-name="Trazado 5266" transform="translate(-144.047)"/>
            </g>
        </g>
        <g id="Grupo_539" data-name="Grupo 539" transform="translate(152.056 16.017)">
            <g id="Grupo_538" data-name="Grupo 538">
                <path id="Rectángulo_1775" d="M0 0h2.288v2.145H0z" class="cls-1" data-name="Rectángulo 1775"/>
            </g>
        </g>
        <g id="Grupo_541" data-name="Grupo 541" transform="translate(154.344 13.729)">
            <g id="Grupo_540" data-name="Grupo 540">
                <path id="Rectángulo_1776" d="M0 0h2.288v2.145H0z" class="cls-1" data-name="Rectángulo 1776"/>
            </g>
        </g>
        <g id="Grupo_543" data-name="Grupo 543" transform="translate(163.496 43.474)">
            <g id="Grupo_542" data-name="Grupo 542">
                <path id="Rectángulo_1777" d="M0 0h2.288v2.145H0z" class="cls-1" data-name="Rectángulo 1777"/>
            </g>
        </g>
        <g id="Grupo_545" data-name="Grupo 545" transform="translate(163.496 35.465)">
            <g id="Grupo_544" data-name="Grupo 544">
                <path id="Rectángulo_1778" d="M0 0h2.288v2.145H0z" class="cls-1" data-name="Rectángulo 1778"/>
            </g>
        </g>
        <g id="Grupo_547" data-name="Grupo 547" transform="translate(163.496 51.482)">
            <g id="Grupo_546" data-name="Grupo 546">
                <path id="Rectángulo_1779" d="M0 0h2.288v2.145H0z" class="cls-1" data-name="Rectángulo 1779"/>
            </g>
        </g>
    </g>
</svg>
