<svg xmlns="http://www.w3.org/2000/svg" id="Componente_17_3" width="52" height="73.717" data-name="Componente 17 – 3" viewBox="0 0 52 73.717">
    <defs>
        <style>
            .cls-1,.cls-2{fill:#4f1a0f}.cls-2{font-size:18px;font-family:Roboto-Bold,Roboto;font-weight:700}
        </style>
    </defs>
    <g id="coffee" transform="translate(7.775)">
        <path id="Trazado_4679" d="M36.328 4.183h-2.251l-.625-3.032A1.448 1.448 0 0 0 32.039 0H6.592a1.448 1.448 0 0 0-1.413 1.151l-.625 3.032H2.3a1.8 1.8 0 0 0-1.8 1.8v2.98a1.8 1.8 0 0 0 1.8 1.8h.885l.5 3.522a1.581 1.581 0 0 0-.78 1.6L6.255 39.4a1.594 1.594 0 0 0 1.195 1.316l.476 3.348a2.619 2.619 0 0 0 2.58 2.236h17.619a2.619 2.619 0 0 0 2.581-2.239l.476-3.348a1.594 1.594 0 0 0 1.194-1.313l3.346-23.512a1.58 1.58 0 0 0-.78-1.6l.5-3.522h.885a1.8 1.8 0 0 0 1.8-1.8v-2.98a1.805 1.805 0 0 0-1.8-1.8zM34.378 15.7l-3.346 23.51a.228.228 0 0 1-.225.2h-6.5a.679.679 0 0 0 0 1.358H29.8l-.443 3.109a1.255 1.255 0 0 1-1.236 1.073H10.506a1.255 1.255 0 0 1-1.236-1.078l-.442-3.109H21.15a.679.679 0 0 0 0-1.358H7.824a.228.228 0 0 1-.225-.2L4.253 15.7a.225.225 0 0 1 .053-.181.228.228 0 0 1 .16-.077H34.165a.228.228 0 0 1 .16.077.225.225 0 0 1 .053.181zM4.559 10.769h29.513L33.6 14.08H5.03zm32.214-1.8a.446.446 0 0 1-.445.445H2.3a.446.446 0 0 1-.445-.445V5.986a.446.446 0 0 1 .445-.445h6.078a.679.679 0 0 0 0-1.358H5.94l.569-2.758a.085.085 0 0 1 .083-.068h25.447a.085.085 0 0 1 .083.068l.569 2.758H11.537a.679.679 0 1 0 0 1.358h24.791a.446.446 0 0 1 .445.445zm0 0" class="cls-1" data-name="Trazado 4679" transform="translate(-.5)"/>
        <path id="Trazado_4680" d="M147.8 227.075l-.014-.013c-2.257-2.233-6.368-1.77-9.178 1.041a8.219 8.219 0 0 0-2.411 4.726 5.242 5.242 0 0 0 1.387 4.469h.005a5.063 5.063 0 0 0 3.651 1.433 6.646 6.646 0 0 0 .812-.051 8.223 8.223 0 0 0 4.726-2.411c2.817-2.818 3.277-6.943 1.024-9.2zM137.546 233a6.862 6.862 0 0 1 2.024-3.934 6.66 6.66 0 0 1 4.565-2.068 4.021 4.021 0 0 1 1.925.46 7.3 7.3 0 0 0-3.449 3.984c-.468 1.716-3.01 3.618-4.4 4.5a4.07 4.07 0 0 1-.661-2.943zm8.275 2.318a6.86 6.86 0 0 1-3.934 2.024 4.2 4.2 0 0 1-2.634-.46c1.4-.924 4.082-2.931 4.668-5.081.479-1.756 2.371-2.938 3.235-3.4 1.344 1.786.803 4.775-1.335 6.913zm0 0" class="cls-1" data-name="Trazado 4680" transform="translate(-123.88 -205.242)"/>
    </g>
    <text id="Drinks" class="cls-2" transform="translate(0 68.717)">
        <tspan x="0" y="0">Drinks</tspan>
    </text>
</svg>
